<svg width="1251" height="392" viewBox="0 0 1251 392" fill="none" xmlns="http://www.w3.org/2000/svg">
<path d="M99.1487 180.569L53.6263 172.438C61.1485 154.339 71.8596 140.926 85.7598 132.223C99.6478 123.496 119.208 119.126 144.428 119.126C167.298 119.126 184.01 121.767 194.527 127.013C205.031 132.247 212.066 138.881 215.608 146.926C219.138 154.984 219.54 169.785 216.825 191.329L208.889 249.218C206.808 265.674 206.078 277.821 206.698 285.636C207.344 293.462 209.352 301.861 212.736 310.807H161.955C161.042 307.508 160.02 302.615 158.888 296.152C158.425 293.207 158.072 291.259 157.817 290.31C147.982 298.562 137.794 304.745 127.29 308.859C116.798 312.973 105.904 315.043 94.6208 315.043C74.6591 315.043 59.5783 309.821 49.3906 299.365C39.2271 288.886 35.174 275.643 37.2188 259.637C38.5699 249.035 42.3918 239.578 48.6603 231.301C54.9531 223 63.096 216.634 73.1012 212.216C83.0942 207.809 97.1769 203.963 115.362 200.677C139.888 196.331 157.038 192.278 166.775 188.505L167.408 183.539C168.601 174.033 167.031 167.253 162.685 163.188C158.328 159.135 149.406 157.102 135.907 157.102C126.754 157.102 119.39 158.842 113.852 162.311C108.302 165.756 103.397 171.842 99.1487 180.569ZM162.685 220.785C155.796 222.902 145.048 225.434 130.455 228.38C115.848 231.337 106.172 234.234 101.437 237.046C94.1583 241.623 90.0686 247.453 89.1679 254.525C88.2915 261.438 90.2025 267.439 94.913 272.49C99.6113 277.554 106.111 280.085 114.388 280.085C123.626 280.085 132.816 277.152 141.945 271.273C148.749 266.806 153.544 261.329 156.307 254.865C158.182 250.618 159.886 242.548 161.419 230.668L162.685 220.785Z" fill="white"/>
<path d="M406.978 310.807H359.313L362.819 283.25C353.532 293.961 343.174 301.958 331.757 307.204C320.327 312.426 309.129 315.043 298.163 315.043C275.888 315.043 257.911 306.376 244.217 289.044C230.548 271.687 225.692 247.465 229.66 216.403C233.713 184.634 244.522 160.486 262.085 143.956C279.674 127.415 300.268 119.126 323.869 119.126C345.547 119.126 363.172 127.853 376.743 145.271L388.623 52.084H439.939L406.978 310.807ZM282.485 213.043C279.917 233.042 280.939 247.502 285.553 256.424C292.162 269.374 302.897 275.85 317.735 275.85C329.541 275.85 340.204 271.005 349.722 261.292C359.253 251.591 365.253 237.095 367.688 217.815C370.438 196.271 368.394 180.764 361.553 171.319C354.737 161.849 345.06 157.102 332.536 157.102C320.364 157.102 309.567 161.788 300.159 171.124C290.738 180.472 284.847 194.457 282.485 213.043Z" fill="white"/>
<path d="M454.724 123.362H502L498.738 148.971C518.176 129.083 539.586 119.126 562.956 119.126C575.383 119.126 585.839 121.621 594.31 126.575C602.806 131.517 609.354 138.978 613.931 148.971C623.729 138.978 633.868 131.517 644.36 126.575C654.84 121.621 665.685 119.126 676.883 119.126C691.124 119.126 702.809 121.938 711.938 127.549C721.079 133.136 727.396 141.34 730.877 152.136C733.397 160.157 733.531 173.108 731.267 190.988L715.979 310.807H664.663L678.295 203.696C680.657 185.109 680.45 173.096 677.662 167.667C673.767 160.632 666.89 157.102 657.068 157.102C649.862 157.102 642.815 159.232 635.938 163.48C629.085 167.704 623.742 173.911 619.92 182.078C616.085 190.234 613.043 203.136 610.815 220.785L599.325 310.807H548.009L561.106 208.077C563.406 189.844 563.99 178.074 562.858 172.779C561.714 167.497 559.377 163.565 555.847 160.997C552.342 158.404 547.303 157.102 540.754 157.102C532.831 157.102 525.442 159.171 518.602 163.285C511.749 167.375 506.454 173.327 502.73 181.105C498.993 188.87 495.975 201.736 493.674 219.714L482.087 310.807H430.819L454.724 123.362Z" fill="white"/>
<path d="M744.414 214.455C746.52 197.975 752.752 182.018 763.11 166.596C773.456 151.187 786.845 139.416 803.277 131.298C819.721 123.191 837.455 119.126 856.443 119.126C885.777 119.126 908.648 128.352 925.043 146.78C941.426 165.184 947.841 188.444 944.275 216.549C940.635 244.921 928.147 268.437 906.834 287.096C885.534 305.731 860.521 315.043 831.808 315.043C814.049 315.043 797.593 311.16 782.439 303.407C767.309 295.629 756.501 284.224 750.013 269.228C743.55 254.245 741.688 235.975 744.414 214.455ZM796.656 217.084C794.282 235.683 797.021 249.936 804.884 259.832C812.759 269.703 823.409 274.633 836.822 274.633C850.187 274.633 862.042 269.703 872.364 259.832C882.673 249.936 889.039 235.573 891.449 216.744C893.774 198.376 891.035 184.257 883.221 174.386C875.431 164.49 864.842 159.536 851.477 159.536C838.064 159.536 826.172 164.49 815.79 174.386C805.395 184.257 799.017 198.498 796.656 217.084Z" fill="white"/>
<path d="M1161.53 97.9472L1167.37 52.084H1218.69L1212.85 97.9472H1161.53ZM1134.41 310.807L1158.32 123.362H1209.63L1185.73 310.807H1134.41Z" fill="white"/>
<path fill-rule="evenodd" clip-rule="evenodd" d="M946.805 285.01L1135.54 129.428L955.385 310.807H984.913L1032.09 252.723L1064.13 310.807H1127.13L1067.92 212.167L1145 123.362H1084.77L1042.02 174.921L1014.27 123.362H951.66L1007.07 214.261L946.805 285.01Z" fill="white"/>
<path d="M1087.8 123.196L831.916 380.349L1148 123.196" fill="white"/>
</svg>
