<svg width="1440" height="757" viewBox="0 0 1440 757" fill="none" xmlns="http://www.w3.org/2000/svg">
<g clip-path="url(#clip0_320_1778)">
<g opacity="0.83">
<g style="mix-blend-mode:soft-light" opacity="0.7">
<path d="M-109.668 -50.6367H-147.617V-12.6873M-109.668 -50.6367V-12.6873M-109.668 -50.6367H-71.7183M-109.668 -12.6873H-147.617M-109.668 -12.6873V25.2621M-109.668 -12.6873H-71.7183M-147.617 -12.6873V25.2621M-109.668 25.2621H-147.617M-109.668 25.2621V63.2115M-109.668 25.2621H-71.7183M-147.617 25.2621V63.2115M-109.668 63.2115H-147.617M-109.668 63.2115V101.161M-109.668 63.2115H-71.7183M-147.617 63.2115V101.161M-109.668 101.161H-147.617M-109.668 101.161V139.11M-109.668 101.161H-71.7183M-147.617 101.161V139.11M-109.668 139.11H-147.617M-109.668 139.11V177.06M-109.668 139.11H-71.7183M-147.617 139.11V177.06M-109.668 177.06H-147.617M-109.668 177.06V215.009M-109.668 177.06H-71.7183M-147.617 177.06V215.009M-109.668 215.009H-147.617M-109.668 215.009V252.959M-109.668 215.009H-71.7183M-147.617 215.009V252.959M-109.668 252.959H-147.617M-109.668 252.959V290.908M-109.668 252.959H-71.7183M-147.617 252.959V290.908M-109.668 290.908H-147.617M-109.668 290.908V328.857M-109.668 290.908H-71.7183M-147.617 290.908V328.857M-109.668 328.857H-147.617M-109.668 328.857V366.807M-109.668 328.857H-71.7183M-147.617 328.857V366.807M-109.668 366.807H-147.617M-109.668 366.807V404.756M-109.668 366.807H-71.7183M-147.617 366.807V404.756M-109.668 404.756H-147.617M-109.668 404.756V442.706M-109.668 404.756H-71.7183M-147.617 404.756V442.706M-109.668 442.706H-147.617M-109.668 442.706V480.655M-109.668 442.706H-71.7183M-147.617 442.706V480.655M-109.668 480.655H-147.617M-109.668 480.655V518.605M-109.668 480.655H-71.7183M-147.617 480.655V518.605M-109.668 518.605H-147.617M-109.668 518.605V556.554M-109.668 518.605H-71.7183M-147.617 518.605V556.554M-109.668 556.554H-147.617M-109.668 556.554V594.503M-109.668 556.554H-71.7183M-147.617 556.554V594.503M-109.668 594.503H-147.617M-109.668 594.503V632.453M-109.668 594.503H-71.7183M-147.617 594.503V632.453M-109.668 632.453H-147.617M-109.668 632.453V670.402M-109.668 632.453H-71.7183M-147.617 632.453V670.402M-109.668 670.402H-147.617M-109.668 670.402V708.352M-109.668 670.402H-71.7183M-147.617 670.402V708.352H-109.668M-109.668 708.352H-71.7183M-71.7183 -50.6367V-12.6873M-71.7183 -50.6367H-33.7689M-71.7183 -12.6873V25.2621M-71.7183 -12.6873H-33.7689M-71.7183 25.2621V63.2115M-71.7183 25.2621H-33.7689M-71.7183 63.2115V101.161M-71.7183 63.2115H-33.7689M-71.7183 101.161V139.11M-71.7183 101.161H-33.7689M-71.7183 139.11V177.06M-71.7183 139.11H-33.7689M-71.7183 177.06V215.009M-71.7183 177.06H-33.7689M-71.7183 215.009V252.959M-71.7183 215.009H-33.7689M-71.7183 252.959V290.908M-71.7183 252.959H-33.7689M-71.7183 290.908V328.857M-71.7183 290.908H-33.7689M-71.7183 328.857V366.807M-71.7183 328.857H-33.7689M-71.7183 366.807V404.756M-71.7183 366.807H-33.7689M-71.7183 404.756V442.706M-71.7183 404.756H-33.7689M-71.7183 442.706V480.655M-71.7183 442.706H-33.7689M-71.7183 480.655V518.605M-71.7183 480.655H-33.7689M-71.7183 518.605V556.554M-71.7183 518.605H-33.7689M-71.7183 556.554V594.503M-71.7183 556.554H-33.7689M-71.7183 594.503V632.453M-71.7183 594.503H-33.7689M-71.7183 632.453V670.402M-71.7183 632.453H-33.7689M-71.7183 670.402V708.352M-71.7183 670.402H-33.7689M-71.7183 708.352H-33.7689M-33.7689 -50.6367V-12.6873M-33.7689 -50.6367H4.1805M-33.7689 -12.6873V25.2621M-33.7689 -12.6873H4.1805M-33.7689 25.2621V63.2115M-33.7689 25.2621H4.1805M-33.7689 63.2115V101.161M-33.7689 63.2115H4.1805M-33.7689 101.161V139.11M-33.7689 101.161H4.1805M-33.7689 139.11V177.06M-33.7689 139.11H4.1805M-33.7689 177.06V215.009M-33.7689 177.06H4.1805M-33.7689 215.009V252.959M-33.7689 215.009H4.1805M-33.7689 252.959V290.908M-33.7689 252.959H4.1805M-33.7689 290.908V328.857M-33.7689 290.908H4.1805M-33.7689 328.857V366.807M-33.7689 328.857H4.1805M-33.7689 366.807V404.756M-33.7689 366.807H4.1805M-33.7689 404.756V442.706M-33.7689 404.756H4.1805M-33.7689 442.706V480.655M-33.7689 442.706H4.1805M-33.7689 480.655V518.605M-33.7689 480.655H4.1805M-33.7689 518.605V556.554M-33.7689 518.605H4.1805M-33.7689 556.554V594.503M-33.7689 556.554H4.1805M-33.7689 594.503V632.453M-33.7689 594.503H4.1805M-33.7689 632.453V670.402M-33.7689 632.453H4.1805M-33.7689 670.402V708.352M-33.7689 670.402H4.1805M-33.7689 708.352H4.1805M4.1805 -50.6367V-12.6873M4.1805 -50.6367H42.1299M4.1805 -12.6873V25.2621M4.1805 -12.6873H42.1299M4.1805 25.2621V63.2115M4.1805 25.2621H42.1299M4.1805 63.2115V101.161M4.1805 63.2115H42.1299M4.1805 101.161V139.11M4.1805 101.161H42.1299M4.1805 139.11V177.06M4.1805 139.11H42.1299M4.1805 177.06V215.009M4.1805 177.06H42.1299M4.1805 215.009V252.959M4.1805 215.009H42.1299M4.1805 252.959V290.908M4.1805 252.959H42.1299M4.1805 290.908V328.857M4.1805 290.908H42.1299M4.1805 328.857V366.807M4.1805 328.857H42.1299M4.1805 366.807V404.756M4.1805 366.807H42.1299M4.1805 404.756V442.706M4.1805 404.756H42.1299M4.1805 442.706V480.655M4.1805 442.706H42.1299M4.1805 480.655V518.605M4.1805 480.655H42.1299M4.1805 518.605V556.554M4.1805 518.605H42.1299M4.1805 556.554V594.503M4.1805 556.554H42.1299M4.1805 594.503V632.453M4.1805 594.503H42.1299M4.1805 632.453V670.402M4.1805 632.453H42.1299M4.1805 670.402V708.352M4.1805 670.402H42.1299M4.1805 708.352H42.1299M42.1299 -50.6367V-12.6873M42.1299 -50.6367H80.0793M42.1299 -12.6873V25.2621M42.1299 -12.6873H80.0793M42.1299 25.2621V63.2115M42.1299 25.2621H80.0793M42.1299 63.2115V101.161M42.1299 63.2115H80.0793M42.1299 101.161V139.11M42.1299 101.161H80.0793M42.1299 139.11V177.06M42.1299 139.11H80.0793M42.1299 177.06V215.009M42.1299 177.06H80.0793M42.1299 215.009V252.959M42.1299 215.009H80.0793M42.1299 252.959V290.908M42.1299 252.959H80.0793M42.1299 290.908V328.857M42.1299 290.908H80.0793M42.1299 328.857V366.807M42.1299 328.857H80.0793M42.1299 366.807V404.756M42.1299 366.807H80.0793M42.1299 404.756V442.706M42.1299 404.756H80.0793M42.1299 442.706V480.655M42.1299 442.706H80.0793M42.1299 480.655V518.605M42.1299 480.655H80.0793M42.1299 518.605V556.554M42.1299 518.605H80.0793M42.1299 556.554V594.503M42.1299 556.554H80.0793M42.1299 594.503V632.453M42.1299 594.503H80.0793M42.1299 632.453V670.402M42.1299 632.453H80.0793M42.1299 670.402V708.352M42.1299 670.402H80.0793M42.1299 708.352H80.0793M80.0793 -50.6367V-12.6873M80.0793 -50.6367H118.029M80.0793 -12.6873V25.2621M80.0793 -12.6873H118.029M80.0793 25.2621V63.2115M80.0793 25.2621H118.029M80.0793 63.2115V101.161M80.0793 63.2115H118.029M80.0793 101.161V139.11M80.0793 101.161H118.029M80.0793 139.11V177.06M80.0793 139.11H118.029M80.0793 177.06V215.009M80.0793 177.06H118.029M80.0793 215.009V252.959M80.0793 215.009H118.029M80.0793 252.959V290.908M80.0793 252.959H118.029M80.0793 290.908V328.857M80.0793 290.908H118.029M80.0793 328.857V366.807M80.0793 328.857H118.029M80.0793 366.807V404.756M80.0793 366.807H118.029M80.0793 404.756V442.706M80.0793 404.756H118.029M80.0793 442.706V480.655M80.0793 442.706H118.029M80.0793 480.655V518.605M80.0793 480.655H118.029M80.0793 518.605V556.554M80.0793 518.605H118.029M80.0793 556.554V594.503M80.0793 556.554H118.029M80.0793 594.503V632.453M80.0793 594.503H118.029M80.0793 632.453V670.402M80.0793 632.453H118.029M80.0793 670.402V708.352M80.0793 670.402H118.029M80.0793 708.352H118.029M118.029 -50.6367V-12.6873M118.029 -50.6367H155.978M118.029 -12.6873V25.2621M118.029 -12.6873H155.978M118.029 25.2621V63.2115M118.029 25.2621H155.978M118.029 63.2115V101.161M118.029 63.2115H155.978M118.029 101.161V139.11M118.029 101.161H155.978M118.029 139.11V177.06M118.029 139.11H155.978M118.029 177.06V215.009M118.029 177.06H155.978M118.029 215.009V252.959M118.029 215.009H155.978M118.029 252.959V290.908M118.029 252.959H155.978M118.029 290.908V328.857M118.029 290.908H155.978M118.029 328.857V366.807M118.029 328.857H155.978M118.029 366.807V404.756M118.029 366.807H155.978M118.029 404.756V442.706M118.029 404.756H155.978M118.029 442.706V480.655M118.029 442.706H155.978M118.029 480.655V518.605M118.029 480.655H155.978M118.029 518.605V556.554M118.029 518.605H155.978M118.029 556.554V594.503M118.029 556.554H155.978M118.029 594.503V632.453M118.029 594.503H155.978M118.029 632.453V670.402M118.029 632.453H155.978M118.029 670.402V708.352M118.029 670.402H155.978M118.029 708.352H155.978M155.978 -50.6367V-12.6873M155.978 -50.6367H193.928M155.978 -12.6873V25.2621M155.978 -12.6873H193.928M155.978 25.2621V63.2115M155.978 25.2621H193.928M155.978 63.2115V101.161M155.978 63.2115H193.928M155.978 101.161V139.11M155.978 101.161H193.928M155.978 139.11V177.06M155.978 139.11H193.928M155.978 177.06V215.009M155.978 177.06H193.928M155.978 215.009V252.959M155.978 215.009H193.928M155.978 252.959V290.908M155.978 252.959H193.928M155.978 290.908V328.857M155.978 290.908H193.928M155.978 328.857V366.807M155.978 328.857H193.928M155.978 366.807V404.756M155.978 366.807H193.928M155.978 404.756V442.706M155.978 404.756H193.928M155.978 442.706V480.655M155.978 442.706H193.928M155.978 480.655V518.605M155.978 480.655H193.928M155.978 518.605V556.554M155.978 518.605H193.928M155.978 556.554V594.503M155.978 556.554H193.928M155.978 594.503V632.453M155.978 594.503H193.928M155.978 632.453V670.402M155.978 632.453H193.928M155.978 670.402V708.352M155.978 670.402H193.928M155.978 708.352H193.928M193.928 -50.6367V-12.6873M193.928 -50.6367H231.877M193.928 -12.6873V25.2621M193.928 -12.6873H231.877M193.928 25.2621V63.2115M193.928 25.2621H231.877M193.928 63.2115V101.161M193.928 63.2115H231.877M193.928 101.161V139.11M193.928 101.161H231.877M193.928 139.11V177.06M193.928 139.11H231.877M193.928 177.06V215.009M193.928 177.06H231.877M193.928 215.009V252.959M193.928 215.009H231.877M193.928 252.959V290.908M193.928 252.959H231.877M193.928 290.908V328.857M193.928 290.908H231.877M193.928 328.857V366.807M193.928 328.857H231.877M193.928 366.807V404.756M193.928 366.807H231.877M193.928 404.756V442.706M193.928 404.756H231.877M193.928 442.706V480.655M193.928 442.706H231.877M193.928 480.655V518.605M193.928 480.655H231.877M193.928 518.605V556.554M193.928 518.605H231.877M193.928 556.554V594.503M193.928 556.554H231.877M193.928 594.503V632.453M193.928 594.503H231.877M193.928 632.453V670.402M193.928 632.453H231.877M193.928 670.402V708.352M193.928 670.402H231.877M193.928 708.352H231.877M231.877 -50.6367V-12.6873M231.877 -50.6367H269.826M231.877 -12.6873V25.2621M231.877 -12.6873H269.826M231.877 25.2621V63.2115M231.877 25.2621H269.826M231.877 63.2115V101.161M231.877 63.2115H269.826M231.877 101.161V139.11M231.877 101.161H269.826M231.877 139.11V177.06M231.877 139.11H269.826M231.877 177.06V215.009M231.877 177.06H269.826M231.877 215.009V252.959M231.877 215.009H269.826M231.877 252.959V290.908M231.877 252.959H269.826M231.877 290.908V328.857M231.877 290.908H269.826M231.877 328.857V366.807M231.877 328.857H269.826M231.877 366.807V404.756M231.877 366.807H269.826M231.877 404.756V442.706M231.877 404.756H269.826M231.877 442.706V480.655M231.877 442.706H269.826M231.877 480.655V518.605M231.877 480.655H269.826M231.877 518.605V556.554M231.877 518.605H269.826M231.877 556.554V594.503M231.877 556.554H269.826M231.877 594.503V632.453M231.877 594.503H269.826M231.877 632.453V670.402M231.877 632.453H269.826M231.877 670.402V708.352M231.877 670.402H269.826M231.877 708.352H269.826M269.826 -50.6367V-12.6873M269.826 -50.6367H307.776M269.826 -12.6873V25.2621M269.826 -12.6873H307.776M269.826 25.2621V63.2115M269.826 25.2621H307.776M269.826 63.2115V101.161M269.826 63.2115H307.776M269.826 101.161V139.11M269.826 101.161H307.776M269.826 139.11V177.06M269.826 139.11H307.776M269.826 177.06V215.009M269.826 177.06H307.776M269.826 215.009V252.959M269.826 215.009H307.776M269.826 252.959V290.908M269.826 252.959H307.776M269.826 290.908V328.857M269.826 290.908H307.776M269.826 328.857V366.807M269.826 328.857H307.776M269.826 366.807V404.756M269.826 366.807H307.776M269.826 404.756V442.706M269.826 404.756H307.776M269.826 442.706V480.655M269.826 442.706H307.776M269.826 480.655V518.605M269.826 480.655H307.776M269.826 518.605V556.554M269.826 518.605H307.776M269.826 556.554V594.503M269.826 556.554H307.776M269.826 594.503V632.453M269.826 594.503H307.776M269.826 632.453V670.402M269.826 632.453H307.776M269.826 670.402V708.352M269.826 670.402H307.776M269.826 708.352H307.776M307.776 -50.6367V-12.6873M307.776 -50.6367H345.725M307.776 -12.6873V25.2621M307.776 -12.6873H345.725M307.776 25.2621V63.2115M307.776 25.2621H345.725M307.776 63.2115V101.161M307.776 63.2115H345.725M307.776 101.161V139.11M307.776 101.161H345.725M307.776 139.11V177.06M307.776 139.11H345.725M307.776 177.06V215.009M307.776 177.06H345.725M307.776 215.009V252.959M307.776 215.009H345.725M307.776 252.959V290.908M307.776 252.959H345.725M307.776 290.908V328.857M307.776 290.908H345.725M307.776 328.857V366.807M307.776 328.857H345.725M307.776 366.807V404.756M307.776 366.807H345.725M307.776 404.756V442.706M307.776 404.756H345.725M307.776 442.706V480.655M307.776 442.706H345.725M307.776 480.655V518.605M307.776 480.655H345.725M307.776 518.605V556.554M307.776 518.605H345.725M307.776 556.554V594.503M307.776 556.554H345.725M307.776 594.503V632.453M307.776 594.503H345.725M307.776 632.453V670.402M307.776 632.453H345.725M307.776 670.402V708.352M307.776 670.402H345.725M307.776 708.352H345.725M345.725 -50.6367V-12.6873M345.725 -50.6367H383.675M345.725 -12.6873V25.2621M345.725 -12.6873H383.675M345.725 25.2621V63.2115M345.725 25.2621H383.675M345.725 63.2115V101.161M345.725 63.2115H383.675M345.725 101.161V139.11M345.725 101.161H383.675M345.725 139.11V177.06M345.725 139.11H383.675M345.725 177.06V215.009M345.725 177.06H383.675M345.725 215.009V252.959M345.725 215.009H383.675M345.725 252.959V290.908M345.725 252.959H383.675M345.725 290.908V328.857M345.725 290.908H383.675M345.725 328.857V366.807M345.725 328.857H383.675M345.725 366.807V404.756M345.725 366.807H383.675M345.725 404.756V442.706M345.725 404.756H383.675M345.725 442.706V480.655M345.725 442.706H383.675M345.725 480.655V518.605M345.725 480.655H383.675M345.725 518.605V556.554M345.725 518.605H383.675M345.725 556.554V594.503M345.725 556.554H383.675M345.725 594.503V632.453M345.725 594.503H383.675M345.725 632.453V670.402M345.725 632.453H383.675M345.725 670.402V708.352M345.725 670.402H383.675M345.725 708.352H383.675M383.675 -50.6367V-12.6873M383.675 -50.6367H421.624M383.675 -12.6873V25.2621M383.675 -12.6873H421.624M383.675 25.2621V63.2115M383.675 25.2621H421.624M383.675 63.2115V101.161M383.675 63.2115H421.624M383.675 101.161V139.11M383.675 101.161H421.624M383.675 139.11V177.06M383.675 139.11H421.624M383.675 177.06V215.009M383.675 177.06H421.624M383.675 215.009V252.959M383.675 215.009H421.624M383.675 252.959V290.908M383.675 252.959H421.624M383.675 290.908V328.857M383.675 290.908H421.624M383.675 328.857V366.807M383.675 328.857H421.624M383.675 366.807V404.756M383.675 366.807H421.624M383.675 404.756V442.706M383.675 404.756H421.624M383.675 442.706V480.655M383.675 442.706H421.624M383.675 480.655V518.605M383.675 480.655H421.624M383.675 518.605V556.554M383.675 518.605H421.624M383.675 556.554V594.503M383.675 556.554H421.624M383.675 594.503V632.453M383.675 594.503H421.624M383.675 632.453V670.402M383.675 632.453H421.624M383.675 670.402V708.352M383.675 670.402H421.624M383.675 708.352H421.624M421.624 -50.6367V-12.6873M421.624 -50.6367H459.574M421.624 -12.6873V25.2621M421.624 -12.6873H459.574M421.624 25.2621V63.2115M421.624 25.2621H459.574M421.624 63.2115V101.161M421.624 63.2115H459.574M421.624 101.161V139.11M421.624 101.161H459.574M421.624 139.11V177.06M421.624 139.11H459.574M421.624 177.06V215.009M421.624 177.06H459.574M421.624 215.009V252.959M421.624 215.009H459.574M421.624 252.959V290.908M421.624 252.959H459.574M421.624 290.908V328.857M421.624 290.908H459.574M421.624 328.857V366.807M421.624 328.857H459.574M421.624 366.807V404.756M421.624 366.807H459.574M421.624 404.756V442.706M421.624 404.756H459.574M421.624 442.706V480.655M421.624 442.706H459.574M421.624 480.655V518.605M421.624 480.655H459.574M421.624 518.605V556.554M421.624 518.605H459.574M421.624 556.554V594.503M421.624 556.554H459.574M421.624 594.503V632.453M421.624 594.503H459.574M421.624 632.453V670.402M421.624 632.453H459.574M421.624 670.402V708.352M421.624 670.402H459.574M421.624 708.352H459.574M459.574 -50.6367V-12.6873M459.574 -50.6367H497.523M459.574 -12.6873V25.2621M459.574 -12.6873H497.523M459.574 25.2621V63.2115M459.574 25.2621H497.523M459.574 63.2115V101.161M459.574 63.2115H497.523M459.574 101.161V139.11M459.574 101.161H497.523M459.574 139.11V177.06M459.574 139.11H497.523M459.574 177.06V215.009M459.574 177.06H497.523M459.574 215.009V252.959M459.574 215.009H497.523M459.574 252.959V290.908M459.574 252.959H497.523M459.574 290.908V328.857M459.574 290.908H497.523M459.574 328.857V366.807M459.574 328.857H497.523M459.574 366.807V404.756M459.574 366.807H497.523M459.574 404.756V442.706M459.574 404.756H497.523M459.574 442.706V480.655M459.574 442.706H497.523M459.574 480.655V518.605M459.574 480.655H497.523M459.574 518.605V556.554M459.574 518.605H497.523M459.574 556.554V594.503M459.574 556.554H497.523M459.574 594.503V632.453M459.574 594.503H497.523M459.574 632.453V670.402M459.574 632.453H497.523M459.574 670.402V708.352M459.574 670.402H497.523M459.574 708.352H497.523M497.523 -50.6367V-12.6873M497.523 -50.6367H535.472M497.523 -12.6873V25.2621M497.523 -12.6873H535.472M497.523 25.2621V63.2115M497.523 25.2621H535.472M497.523 63.2115V101.161M497.523 63.2115H535.472M497.523 101.161V139.11M497.523 101.161H535.472M497.523 139.11V177.06M497.523 139.11H535.472M497.523 177.06V215.009M497.523 177.06H535.472M497.523 215.009V252.959M497.523 215.009H535.472M497.523 252.959V290.908M497.523 252.959H535.472M497.523 290.908V328.857M497.523 290.908H535.472M497.523 328.857V366.807M497.523 328.857H535.472M497.523 366.807V404.756M497.523 366.807H535.472M497.523 404.756V442.706M497.523 404.756H535.472M497.523 442.706V480.655M497.523 442.706H535.472M497.523 480.655V518.605M497.523 480.655H535.472M497.523 518.605V556.554M497.523 518.605H535.472M497.523 556.554V594.503M497.523 556.554H535.472M497.523 594.503V632.453M497.523 594.503H535.472M497.523 632.453V670.402M497.523 632.453H535.472M497.523 670.402V708.352M497.523 670.402H535.472M497.523 708.352H535.472M535.472 -50.6367V-12.6873M535.472 -50.6367H573.422M535.472 -12.6873V25.2621M535.472 -12.6873H573.422M535.472 25.2621V63.2115M535.472 25.2621H573.422M535.472 63.2115V101.161M535.472 63.2115H573.422M535.472 101.161V139.11M535.472 101.161H573.422M535.472 139.11V177.06M535.472 139.11H573.422M535.472 177.06V215.009M535.472 177.06H573.422M535.472 215.009V252.959M535.472 215.009H573.422M535.472 252.959V290.908M535.472 252.959H573.422M535.472 290.908V328.857M535.472 290.908H573.422M535.472 328.857V366.807M535.472 328.857H573.422M535.472 366.807V404.756M535.472 366.807H573.422M535.472 404.756V442.706M535.472 404.756H573.422M535.472 442.706V480.655M535.472 442.706H573.422M535.472 480.655V518.605M535.472 480.655H573.422M535.472 518.605V556.554M535.472 518.605H573.422M535.472 556.554V594.503M535.472 556.554H573.422M535.472 594.503V632.453M535.472 594.503H573.422M535.472 632.453V670.402M535.472 632.453H573.422M535.472 670.402V708.352M535.472 670.402H573.422M535.472 708.352H573.422M573.422 -50.6367V-12.6873M573.422 -50.6367H611.371M573.422 -12.6873V25.2621M573.422 -12.6873H611.371M573.422 25.2621V63.2115M573.422 25.2621H611.371M573.422 63.2115V101.161M573.422 63.2115H611.371M573.422 101.161V139.11M573.422 101.161H611.371M573.422 139.11V177.06M573.422 139.11H611.371M573.422 177.06V215.009M573.422 177.06H611.371M573.422 215.009V252.959M573.422 215.009H611.371M573.422 252.959V290.908M573.422 252.959H611.371M573.422 290.908V328.857M573.422 290.908H611.371M573.422 328.857V366.807M573.422 328.857H611.371M573.422 366.807V404.756M573.422 366.807H611.371M573.422 404.756V442.706M573.422 404.756H611.371M573.422 442.706V480.655M573.422 442.706H611.371M573.422 480.655V518.605M573.422 480.655H611.371M573.422 518.605V556.554M573.422 518.605H611.371M573.422 556.554V594.503M573.422 556.554H611.371M573.422 594.503V632.453M573.422 594.503H611.371M573.422 632.453V670.402M573.422 632.453H611.371M573.422 670.402V708.352M573.422 670.402H611.371M573.422 708.352H611.371M611.371 -50.6367V-12.6873M611.371 -50.6367H649.321M611.371 -12.6873V25.2621M611.371 -12.6873H649.321M611.371 25.2621V63.2115M611.371 25.2621H649.321M611.371 63.2115V101.161M611.371 63.2115H649.321M611.371 101.161V139.11M611.371 101.161H649.321M611.371 139.11V177.06M611.371 139.11H649.321M611.371 177.06V215.009M611.371 177.06H649.321M611.371 215.009V252.959M611.371 215.009H649.321M611.371 252.959V290.908M611.371 252.959H649.321M611.371 290.908V328.857M611.371 290.908H649.321M611.371 328.857V366.807M611.371 328.857H649.321M611.371 366.807V404.756M611.371 366.807H649.321M611.371 404.756V442.706M611.371 404.756H649.321M611.371 442.706V480.655M611.371 442.706H649.321M611.371 480.655V518.605M611.371 480.655H649.321M611.371 518.605V556.554M611.371 518.605H649.321M611.371 556.554V594.503M611.371 556.554H649.321M611.371 594.503V632.453M611.371 594.503H649.321M611.371 632.453V670.402M611.371 632.453H649.321M611.371 670.402V708.352M611.371 670.402H649.321M611.371 708.352H649.321M649.321 -50.6367V-12.6873M649.321 -50.6367H687.27M649.321 -12.6873V25.2621M649.321 -12.6873H687.27M649.321 25.2621V63.2115M649.321 25.2621H687.27M649.321 63.2115V101.161M649.321 63.2115H687.27M649.321 101.161V139.11M649.321 101.161H687.27M649.321 139.11V177.06M649.321 139.11H687.27M649.321 177.06V215.009M649.321 177.06H687.27M649.321 215.009V252.959M649.321 215.009H687.27M649.321 252.959V290.908M649.321 252.959H687.27M649.321 290.908V328.857M649.321 290.908H687.27M649.321 328.857V366.807M649.321 328.857H687.27M649.321 366.807V404.756M649.321 366.807H687.27M649.321 404.756V442.706M649.321 404.756H687.27M649.321 442.706V480.655M649.321 442.706H687.27M649.321 480.655V518.605M649.321 480.655H687.27M649.321 518.605V556.554M649.321 518.605H687.27M649.321 556.554V594.503M649.321 556.554H687.27M649.321 594.503V632.453M649.321 594.503H687.27M649.321 632.453V670.402M649.321 632.453H687.27M649.321 670.402V708.352M649.321 670.402H687.27M649.321 708.352H687.27M687.27 -50.6367V-12.6873M687.27 -50.6367H725.219M687.27 -12.6873V25.2621M687.27 -12.6873H725.219M687.27 25.2621V63.2115M687.27 25.2621H725.219M687.27 63.2115V101.161M687.27 63.2115H725.219M687.27 101.161V139.11M687.27 101.161H725.219M687.27 139.11V177.06M687.27 139.11H725.219M687.27 177.06V215.009M687.27 177.06H725.219M687.27 215.009V252.959M687.27 215.009H725.219M687.27 252.959V290.908M687.27 252.959H725.219M687.27 290.908V328.857M687.27 290.908H725.219M687.27 328.857V366.807M687.27 328.857H725.219M687.27 366.807V404.756M687.27 366.807H725.219M687.27 404.756V442.706M687.27 404.756H725.219M687.27 442.706V480.655M687.27 442.706H725.219M687.27 480.655V518.605M687.27 480.655H725.219M687.27 518.605V556.554M687.27 518.605H725.219M687.27 556.554V594.503M687.27 556.554H725.219M687.27 594.503V632.453M687.27 594.503H725.219M687.27 632.453V670.402M687.27 632.453H725.219M687.27 670.402V708.352M687.27 670.402H725.219M687.27 708.352H725.219M725.219 -50.6367V-12.6873M725.219 -50.6367H763.169M725.219 -12.6873V25.2621M725.219 -12.6873H763.169M725.219 25.2621V63.2115M725.219 25.2621H763.169M725.219 63.2115V101.161M725.219 63.2115H763.169M725.219 101.161V139.11M725.219 101.161H763.169M725.219 139.11V177.06M725.219 139.11H763.169M725.219 177.06V215.009M725.219 177.06H763.169M725.219 215.009V252.959M725.219 215.009H763.169M725.219 252.959V290.908M725.219 252.959H763.169M725.219 290.908V328.857M725.219 290.908H763.169M725.219 328.857V366.807M725.219 328.857H763.169M725.219 366.807V404.756M725.219 366.807H763.169M725.219 404.756V442.706M725.219 404.756H763.169M725.219 442.706V480.655M725.219 442.706H763.169M725.219 480.655V518.605M725.219 480.655H763.169M725.219 518.605V556.554M725.219 518.605H763.169M725.219 556.554V594.503M725.219 556.554H763.169M725.219 594.503V632.453M725.219 594.503H763.169M725.219 632.453V670.402M725.219 632.453H763.169M725.219 670.402V708.352M725.219 670.402H763.169M725.219 708.352H763.169M763.169 -50.6367V-12.6873M763.169 -50.6367H801.118M763.169 -12.6873V25.2621M763.169 -12.6873H801.118M763.169 25.2621V63.2115M763.169 25.2621H801.118M763.169 63.2115V101.161M763.169 63.2115H801.118M763.169 101.161V139.11M763.169 101.161H801.118M763.169 139.11V177.06M763.169 139.11H801.118M763.169 177.06V215.009M763.169 177.06H801.118M763.169 215.009V252.959M763.169 215.009H801.118M763.169 252.959V290.908M763.169 252.959H801.118M763.169 290.908V328.857M763.169 290.908H801.118M763.169 328.857V366.807M763.169 328.857H801.118M763.169 366.807V404.756M763.169 366.807H801.118M763.169 404.756V442.706M763.169 404.756H801.118M763.169 442.706V480.655M763.169 442.706H801.118M763.169 480.655V518.605M763.169 480.655H801.118M763.169 518.605V556.554M763.169 518.605H801.118M763.169 556.554V594.503M763.169 556.554H801.118M763.169 594.503V632.453M763.169 594.503H801.118M763.169 632.453V670.402M763.169 632.453H801.118M763.169 670.402V708.352M763.169 670.402H801.118M763.169 708.352H801.118M801.118 -50.6367V-12.6873M801.118 -50.6367H839.068M801.118 -12.6873V25.2621M801.118 -12.6873H839.068M801.118 25.2621V63.2115M801.118 25.2621H839.068M801.118 63.2115V101.161M801.118 63.2115H839.068M801.118 101.161V139.11M801.118 101.161H839.068M801.118 139.11V177.06M801.118 139.11H839.068M801.118 177.06V215.009M801.118 177.06H839.068M801.118 215.009V252.959M801.118 215.009H839.068M801.118 252.959V290.908M801.118 252.959H839.068M801.118 290.908V328.857M801.118 290.908H839.068M801.118 328.857V366.807M801.118 328.857H839.068M801.118 366.807V404.756M801.118 366.807H839.068M801.118 404.756V442.706M801.118 404.756H839.068M801.118 442.706V480.655M801.118 442.706H839.068M801.118 480.655V518.605M801.118 480.655H839.068M801.118 518.605V556.554M801.118 518.605H839.068M801.118 556.554V594.503M801.118 556.554H839.068M801.118 594.503V632.453M801.118 594.503H839.068M801.118 632.453V670.402M801.118 632.453H839.068M801.118 670.402V708.352M801.118 670.402H839.068M801.118 708.352H839.068M839.068 -50.6367V-12.6873M839.068 -50.6367H877.017M839.068 -12.6873V25.2621M839.068 -12.6873H877.017M839.068 25.2621V63.2115M839.068 25.2621H877.017M839.068 63.2115V101.161M839.068 63.2115H877.017M839.068 101.161V139.11M839.068 101.161H877.017M839.068 139.11V177.06M839.068 139.11H877.017M839.068 177.06V215.009M839.068 177.06H877.017M839.068 215.009V252.959M839.068 215.009H877.017M839.068 252.959V290.908M839.068 252.959H877.017M839.068 290.908V328.857M839.068 290.908H877.017M839.068 328.857V366.807M839.068 328.857H877.017M839.068 366.807V404.756M839.068 366.807H877.017M839.068 404.756V442.706M839.068 404.756H877.017M839.068 442.706V480.655M839.068 442.706H877.017M839.068 480.655V518.605M839.068 480.655H877.017M839.068 518.605V556.554M839.068 518.605H877.017M839.068 556.554V594.503M839.068 556.554H877.017M839.068 594.503V632.453M839.068 594.503H877.017M839.068 632.453V670.402M839.068 632.453H877.017M839.068 670.402V708.352M839.068 670.402H877.017M839.068 708.352H877.017M877.017 -50.6367V-12.6873M877.017 -50.6367H914.967M877.017 -12.6873V25.2621M877.017 -12.6873H914.967M877.017 25.2621V63.2115M877.017 25.2621H914.967M877.017 63.2115V101.161M877.017 63.2115H914.967M877.017 101.161V139.11M877.017 101.161H914.967M877.017 139.11V177.06M877.017 139.11H914.967M877.017 177.06V215.009M877.017 177.06H914.967M877.017 215.009V252.959M877.017 215.009H914.967M877.017 252.959V290.908M877.017 252.959H914.967M877.017 290.908V328.857M877.017 290.908H914.967M877.017 328.857V366.807M877.017 328.857H914.967M877.017 366.807V404.756M877.017 366.807H914.967M877.017 404.756V442.706M877.017 404.756H914.967M877.017 442.706V480.655M877.017 442.706H914.967M877.017 480.655V518.605M877.017 480.655H914.967M877.017 518.605V556.554M877.017 518.605H914.967M877.017 556.554V594.503M877.017 556.554H914.967M877.017 594.503V632.453M877.017 594.503H914.967M877.017 632.453V670.402M877.017 632.453H914.967M877.017 670.402V708.352M877.017 670.402H914.967M877.017 708.352H914.967M914.967 -50.6367V-12.6873M914.967 -50.6367H952.916M914.967 -12.6873V25.2621M914.967 -12.6873H952.916M914.967 25.2621V63.2115M914.967 25.2621H952.916M914.967 63.2115V101.161M914.967 63.2115H952.916M914.967 101.161V139.11M914.967 101.161H952.916M914.967 139.11V177.06M914.967 139.11H952.916M914.967 177.06V215.009M914.967 177.06H952.916M914.967 215.009V252.959M914.967 215.009H952.916M914.967 252.959V290.908M914.967 252.959H952.916M914.967 290.908V328.857M914.967 290.908H952.916M914.967 328.857V366.807M914.967 328.857H952.916M914.967 366.807V404.756M914.967 366.807H952.916M914.967 404.756V442.706M914.967 404.756H952.916M914.967 442.706V480.655M914.967 442.706H952.916M914.967 480.655V518.605M914.967 480.655H952.916M914.967 518.605V556.554M914.967 518.605H952.916M914.967 556.554V594.503M914.967 556.554H952.916M914.967 594.503V632.453M914.967 594.503H952.916M914.967 632.453V670.402M914.967 632.453H952.916M914.967 670.402V708.352M914.967 670.402H952.916M914.967 708.352H952.916M952.916 -50.6367V-12.6873M952.916 -50.6367H990.865M952.916 -12.6873V25.2621M952.916 -12.6873H990.865M952.916 25.2621V63.2115M952.916 25.2621H990.865M952.916 63.2115V101.161M952.916 63.2115H990.865M952.916 101.161V139.11M952.916 101.161H990.865M952.916 139.11V177.06M952.916 139.11H990.865M952.916 177.06V215.009M952.916 177.06H990.865M952.916 215.009V252.959M952.916 215.009H990.865M952.916 252.959V290.908M952.916 252.959H990.865M952.916 290.908V328.857M952.916 290.908H990.865M952.916 328.857V366.807M952.916 328.857H990.865M952.916 366.807V404.756M952.916 366.807H990.865M952.916 404.756V442.706M952.916 404.756H990.865M952.916 442.706V480.655M952.916 442.706H990.865M952.916 480.655V518.605M952.916 480.655H990.865M952.916 518.605V556.554M952.916 518.605H990.865M952.916 556.554V594.503M952.916 556.554H990.865M952.916 594.503V632.453M952.916 594.503H990.865M952.916 632.453V670.402M952.916 632.453H990.865M952.916 670.402V708.352M952.916 670.402H990.865M952.916 708.352H990.865M990.865 -50.6367V-12.6873M990.865 -50.6367H1028.81M990.865 -12.6873V25.2621M990.865 -12.6873H1028.81M990.865 25.2621V63.2115M990.865 25.2621H1028.81M990.865 63.2115V101.161M990.865 63.2115H1028.81M990.865 101.161V139.11M990.865 101.161H1028.81M990.865 139.11V177.06M990.865 139.11H1028.81M990.865 177.06V215.009M990.865 177.06H1028.81M990.865 215.009V252.959M990.865 215.009H1028.81M990.865 252.959V290.908M990.865 252.959H1028.81M990.865 290.908V328.857M990.865 290.908H1028.81M990.865 328.857V366.807M990.865 328.857H1028.81M990.865 366.807V404.756M990.865 366.807H1028.81M990.865 404.756V442.706M990.865 404.756H1028.81M990.865 442.706V480.655M990.865 442.706H1028.81M990.865 480.655V518.605M990.865 480.655H1028.81M990.865 518.605V556.554M990.865 518.605H1028.81M990.865 556.554V594.503M990.865 556.554H1028.81M990.865 594.503V632.453M990.865 594.503H1028.81M990.865 632.453V670.402M990.865 632.453H1028.81M990.865 670.402V708.352M990.865 670.402H1028.81M990.865 708.352H1028.81M1028.81 -50.6367V-12.6873M1028.81 -50.6367H1066.76M1028.81 -12.6873V25.2621M1028.81 -12.6873H1066.76M1028.81 25.2621V63.2115M1028.81 25.2621H1066.76M1028.81 63.2115V101.161M1028.81 63.2115H1066.76M1028.81 101.161V139.11M1028.81 101.161H1066.76M1028.81 139.11V177.06M1028.81 139.11H1066.76M1028.81 177.06V215.009M1028.81 177.06H1066.76M1028.81 215.009V252.959M1028.81 215.009H1066.76M1028.81 252.959V290.908M1028.81 252.959H1066.76M1028.81 290.908V328.857M1028.81 290.908H1066.76M1028.81 328.857V366.807M1028.81 328.857H1066.76M1028.81 366.807V404.756M1028.81 366.807H1066.76M1028.81 404.756V442.706M1028.81 404.756H1066.76M1028.81 442.706V480.655M1028.81 442.706H1066.76M1028.81 480.655V518.605M1028.81 480.655H1066.76M1028.81 518.605V556.554M1028.81 518.605H1066.76M1028.81 556.554V594.503M1028.81 556.554H1066.76M1028.81 594.503V632.453M1028.81 594.503H1066.76M1028.81 632.453V670.402M1028.81 632.453H1066.76M1028.81 670.402V708.352M1028.81 670.402H1066.76M1028.81 708.352H1066.76M1066.76 -50.6367V-12.6873M1066.76 -50.6367H1104.71M1066.76 -12.6873V25.2621M1066.76 -12.6873H1104.71M1066.76 25.2621V63.2115M1066.76 25.2621H1104.71M1066.76 63.2115V101.161M1066.76 63.2115H1104.71M1066.76 101.161V139.11M1066.76 101.161H1104.71M1066.76 139.11V177.06M1066.76 139.11H1104.71M1066.76 177.06V215.009M1066.76 177.06H1104.71M1066.76 215.009V252.959M1066.76 215.009H1104.71M1066.76 252.959V290.908M1066.76 252.959H1104.71M1066.76 290.908V328.857M1066.76 290.908H1104.71M1066.76 328.857V366.807M1066.76 328.857H1104.71M1066.76 366.807V404.756M1066.76 366.807H1104.71M1066.76 404.756V442.706M1066.76 404.756H1104.71M1066.76 442.706V480.655M1066.76 442.706H1104.71M1066.76 480.655V518.605M1066.76 480.655H1104.71M1066.76 518.605V556.554M1066.76 518.605H1104.71M1066.76 556.554V594.503M1066.76 556.554H1104.71M1066.76 594.503V632.453M1066.76 594.503H1104.71M1066.76 632.453V670.402M1066.76 632.453H1104.71M1066.76 670.402V708.352M1066.76 670.402H1104.71M1066.76 708.352H1104.71M1104.71 -50.6367V-12.6873M1104.71 -50.6367H1142.66M1104.71 -12.6873V25.2621M1104.71 -12.6873H1142.66M1104.71 25.2621V63.2115M1104.71 25.2621H1142.66M1104.71 63.2115V101.161M1104.71 63.2115H1142.66M1104.71 101.161V139.11M1104.71 101.161H1142.66M1104.71 139.11V177.06M1104.71 139.11H1142.66M1104.71 177.06V215.009M1104.71 177.06H1142.66M1104.71 215.009V252.959M1104.71 215.009H1142.66M1104.71 252.959V290.908M1104.71 252.959H1142.66M1104.71 290.908V328.857M1104.71 290.908H1142.66M1104.71 328.857V366.807M1104.71 328.857H1142.66M1104.71 366.807V404.756M1104.71 366.807H1142.66M1104.71 404.756V442.706M1104.71 404.756H1142.66M1104.71 442.706V480.655M1104.71 442.706H1142.66M1104.71 480.655V518.605M1104.71 480.655H1142.66M1104.71 518.605V556.554M1104.71 518.605H1142.66M1104.71 556.554V594.503M1104.71 556.554H1142.66M1104.71 594.503V632.453M1104.71 594.503H1142.66M1104.71 632.453V670.402M1104.71 632.453H1142.66M1104.71 670.402V708.352M1104.71 670.402H1142.66M1104.71 708.352H1142.66M1142.66 -50.6367V-12.6873M1142.66 -50.6367H1180.61M1142.66 -12.6873V25.2621M1142.66 -12.6873H1180.61M1142.66 25.2621V63.2115M1142.66 25.2621H1180.61M1142.66 63.2115V101.161M1142.66 63.2115H1180.61M1142.66 101.161V139.11M1142.66 101.161H1180.61M1142.66 139.11V177.06M1142.66 139.11H1180.61M1142.66 177.06V215.009M1142.66 177.06H1180.61M1142.66 215.009V252.959M1142.66 215.009H1180.61M1142.66 252.959V290.908M1142.66 252.959H1180.61M1142.66 290.908V328.857M1142.66 290.908H1180.61M1142.66 328.857V366.807M1142.66 328.857H1180.61M1142.66 366.807V404.756M1142.66 366.807H1180.61M1142.66 404.756V442.706M1142.66 404.756H1180.61M1142.66 442.706V480.655M1142.66 442.706H1180.61M1142.66 480.655V518.605M1142.66 480.655H1180.61M1142.66 518.605V556.554M1142.66 518.605H1180.61M1142.66 556.554V594.503M1142.66 556.554H1180.61M1142.66 594.503V632.453M1142.66 594.503H1180.61M1142.66 632.453V670.402M1142.66 632.453H1180.61M1142.66 670.402V708.352M1142.66 670.402H1180.61M1142.66 708.352H1180.61M1180.61 -50.6367V-12.6873M1180.61 -50.6367H1218.56M1180.61 -12.6873V25.2621M1180.61 -12.6873H1218.56M1180.61 25.2621V63.2115M1180.61 25.2621H1218.56M1180.61 63.2115V101.161M1180.61 63.2115H1218.56M1180.61 101.161V139.11M1180.61 101.161H1218.56M1180.61 139.11V177.06M1180.61 139.11H1218.56M1180.61 177.06V215.009M1180.61 177.06H1218.56M1180.61 215.009V252.959M1180.61 215.009H1218.56M1180.61 252.959V290.908M1180.61 252.959H1218.56M1180.61 290.908V328.857M1180.61 290.908H1218.56M1180.61 328.857V366.807M1180.61 328.857H1218.56M1180.61 366.807V404.756M1180.61 366.807H1218.56M1180.61 404.756V442.706M1180.61 404.756H1218.56M1180.61 442.706V480.655M1180.61 442.706H1218.56M1180.61 480.655V518.605M1180.61 480.655H1218.56M1180.61 518.605V556.554M1180.61 518.605H1218.56M1180.61 556.554V594.503M1180.61 556.554H1218.56M1180.61 594.503V632.453M1180.61 594.503H1218.56M1180.61 632.453V670.402M1180.61 632.453H1218.56M1180.61 670.402V708.352M1180.61 670.402H1218.56M1180.61 708.352H1218.56M1218.56 -50.6367V-12.6873M1218.56 -50.6367H1256.51M1218.56 -12.6873V25.2621M1218.56 -12.6873H1256.51M1218.56 25.2621V63.2115M1218.56 25.2621H1256.51M1218.56 63.2115V101.161M1218.56 63.2115H1256.51M1218.56 101.161V139.11M1218.56 101.161H1256.51M1218.56 139.11V177.06M1218.56 139.11H1256.51M1218.56 177.06V215.009M1218.56 177.06H1256.51M1218.56 215.009V252.959M1218.56 215.009H1256.51M1218.56 252.959V290.908M1218.56 252.959H1256.51M1218.56 290.908V328.857M1218.56 290.908H1256.51M1218.56 328.857V366.807M1218.56 328.857H1256.51M1218.56 366.807V404.756M1218.56 366.807H1256.51M1218.56 404.756V442.706M1218.56 404.756H1256.51M1218.56 442.706V480.655M1218.56 442.706H1256.51M1218.56 480.655V518.605M1218.56 480.655H1256.51M1218.56 518.605V556.554M1218.56 518.605H1256.51M1218.56 556.554V594.503M1218.56 556.554H1256.51M1218.56 594.503V632.453M1218.56 594.503H1256.51M1218.56 632.453V670.402M1218.56 632.453H1256.51M1218.56 670.402V708.352M1218.56 670.402H1256.51M1218.56 708.352H1256.51M1256.51 -50.6367V-12.6873M1256.51 -50.6367H1294.46M1256.51 -12.6873V25.2621M1256.51 -12.6873H1294.46M1256.51 25.2621V63.2115M1256.51 25.2621H1294.46M1256.51 63.2115V101.161M1256.51 63.2115H1294.46M1256.51 101.161V139.11M1256.51 101.161H1294.46M1256.51 139.11V177.06M1256.51 139.11H1294.46M1256.51 177.06V215.009M1256.51 177.06H1294.46M1256.51 215.009V252.959M1256.51 215.009H1294.46M1256.51 252.959V290.908M1256.51 252.959H1294.46M1256.51 290.908V328.857M1256.51 290.908H1294.46M1256.51 328.857V366.807M1256.51 328.857H1294.46M1256.51 366.807V404.756M1256.51 366.807H1294.46M1256.51 404.756V442.706M1256.51 404.756H1294.46M1256.51 442.706V480.655M1256.51 442.706H1294.46M1256.51 480.655V518.605M1256.51 480.655H1294.46M1256.51 518.605V556.554M1256.51 518.605H1294.46M1256.51 556.554V594.503M1256.51 556.554H1294.46M1256.51 594.503V632.453M1256.51 594.503H1294.46M1256.51 632.453V670.402M1256.51 632.453H1294.46M1256.51 670.402V708.352M1256.51 670.402H1294.46M1256.51 708.352H1294.46M1294.46 -50.6367V-12.6873M1294.46 -50.6367H1332.41M1294.46 -12.6873V25.2621M1294.46 -12.6873H1332.41M1294.46 25.2621V63.2115M1294.46 25.2621H1332.41M1294.46 63.2115V101.161M1294.46 63.2115H1332.41M1294.46 101.161V139.11M1294.46 101.161H1332.41M1294.46 139.11V177.06M1294.46 139.11H1332.41M1294.46 177.06V215.009M1294.46 177.06H1332.41M1294.46 215.009V252.959M1294.46 215.009H1332.41M1294.46 252.959V290.908M1294.46 252.959H1332.41M1294.46 290.908V328.857M1294.46 290.908H1332.41M1294.46 328.857V366.807M1294.46 328.857H1332.41M1294.46 366.807V404.756M1294.46 366.807H1332.41M1294.46 404.756V442.706M1294.46 404.756H1332.41M1294.46 442.706V480.655M1294.46 442.706H1332.41M1294.46 480.655V518.605M1294.46 480.655H1332.41M1294.46 518.605V556.554M1294.46 518.605H1332.41M1294.46 556.554V594.503M1294.46 556.554H1332.41M1294.46 594.503V632.453M1294.46 594.503H1332.41M1294.46 632.453V670.402M1294.46 632.453H1332.41M1294.46 670.402V708.352M1294.46 670.402H1332.41M1294.46 708.352H1332.41M1332.41 -50.6367V-12.6873M1332.41 -50.6367H1370.36M1332.41 -12.6873V25.2621M1332.41 -12.6873H1370.36M1332.41 25.2621V63.2115M1332.41 25.2621H1370.36M1332.41 63.2115V101.161M1332.41 63.2115H1370.36M1332.41 101.161V139.11M1332.41 101.161H1370.36M1332.41 139.11V177.06M1332.41 139.11H1370.36M1332.41 177.06V215.009M1332.41 177.06H1370.36M1332.41 215.009V252.959M1332.41 215.009H1370.36M1332.41 252.959V290.908M1332.41 252.959H1370.36M1332.41 290.908V328.857M1332.41 290.908H1370.36M1332.41 328.857V366.807M1332.41 328.857H1370.36M1332.41 366.807V404.756M1332.41 366.807H1370.36M1332.41 404.756V442.706M1332.41 404.756H1370.36M1332.41 442.706V480.655M1332.41 442.706H1370.36M1332.41 480.655V518.605M1332.41 480.655H1370.36M1332.41 518.605V556.554M1332.41 518.605H1370.36M1332.41 556.554V594.503M1332.41 556.554H1370.36M1332.41 594.503V632.453M1332.41 594.503H1370.36M1332.41 632.453V670.402M1332.41 632.453H1370.36M1332.41 670.402V708.352M1332.41 670.402H1370.36M1332.41 708.352H1370.36M1370.36 -50.6367V-12.6873M1370.36 -50.6367H1408.31M1370.36 -12.6873V25.2621M1370.36 -12.6873H1408.31M1370.36 25.2621V63.2115M1370.36 25.2621H1408.31M1370.36 63.2115V101.161M1370.36 63.2115H1408.31M1370.36 101.161V139.11M1370.36 101.161H1408.31M1370.36 139.11V177.06M1370.36 139.11H1408.31M1370.36 177.06V215.009M1370.36 177.06H1408.31M1370.36 215.009V252.959M1370.36 215.009H1408.31M1370.36 252.959V290.908M1370.36 252.959H1408.31M1370.36 290.908V328.857M1370.36 290.908H1408.31M1370.36 328.857V366.807M1370.36 328.857H1408.31M1370.36 366.807V404.756M1370.36 366.807H1408.31M1370.36 404.756V442.706M1370.36 404.756H1408.31M1370.36 442.706V480.655M1370.36 442.706H1408.31M1370.36 480.655V518.605M1370.36 480.655H1408.31M1370.36 518.605V556.554M1370.36 518.605H1408.31M1370.36 556.554V594.503M1370.36 556.554H1408.31M1370.36 594.503V632.453M1370.36 594.503H1408.31M1370.36 632.453V670.402M1370.36 632.453H1408.31M1370.36 670.402V708.352M1370.36 670.402H1408.31M1370.36 708.352H1408.31M1408.31 -50.6367V-12.6873M1408.31 -50.6367H1446.26M1408.31 -12.6873V25.2621M1408.31 -12.6873H1446.26M1408.31 25.2621V63.2115M1408.31 25.2621H1446.26M1408.31 63.2115V101.161M1408.31 63.2115H1446.26M1408.31 101.161V139.11M1408.31 101.161H1446.26M1408.31 139.11V177.06M1408.31 139.11H1446.26M1408.31 177.06V215.009M1408.31 177.06H1446.26M1408.31 215.009V252.959M1408.31 215.009H1446.26M1408.31 252.959V290.908M1408.31 252.959H1446.26M1408.31 290.908V328.857M1408.31 290.908H1446.26M1408.31 328.857V366.807M1408.31 328.857H1446.26M1408.31 366.807V404.756M1408.31 366.807H1446.26M1408.31 404.756V442.706M1408.31 404.756H1446.26M1408.31 442.706V480.655M1408.31 442.706H1446.26M1408.31 480.655V518.605M1408.31 480.655H1446.26M1408.31 518.605V556.554M1408.31 518.605H1446.26M1408.31 556.554V594.503M1408.31 556.554H1446.26M1408.31 594.503V632.453M1408.31 594.503H1446.26M1408.31 632.453V670.402M1408.31 632.453H1446.26M1408.31 670.402V708.352M1408.31 670.402H1446.26M1408.31 708.352H1446.26M1446.26 -50.6367V-12.6873M1446.26 -50.6367H1484.21M1446.26 -12.6873V25.2621M1446.26 -12.6873H1484.21M1446.26 25.2621V63.2115M1446.26 25.2621H1484.21M1446.26 63.2115V101.161M1446.26 63.2115H1484.21M1446.26 101.161V139.11M1446.26 101.161H1484.21M1446.26 139.11V177.06M1446.26 139.11H1484.21M1446.26 177.06V215.009M1446.26 177.06H1484.21M1446.26 215.009V252.959M1446.26 215.009H1484.21M1446.26 252.959V290.908M1446.26 252.959H1484.21M1446.26 290.908V328.857M1446.26 290.908H1484.21M1446.26 328.857V366.807M1446.26 328.857H1484.21M1446.26 366.807V404.756M1446.26 366.807H1484.21M1446.26 404.756V442.706M1446.26 404.756H1484.21M1446.26 442.706V480.655M1446.26 442.706H1484.21M1446.26 480.655V518.605M1446.26 480.655H1484.21M1446.26 518.605V556.554M1446.26 518.605H1484.21M1446.26 556.554V594.503M1446.26 556.554H1484.21M1446.26 594.503V632.453M1446.26 594.503H1484.21M1446.26 632.453V670.402M1446.26 632.453H1484.21M1446.26 670.402V708.352M1446.26 670.402H1484.21M1446.26 708.352H1484.21M1484.21 -50.6367V-12.6873M1484.21 -50.6367H1522.16V-12.6873M1484.21 -12.6873V25.2621M1484.21 -12.6873H1522.16M1484.21 25.2621V63.2115M1484.21 25.2621H1522.16M1484.21 63.2115V101.161M1484.21 63.2115H1522.16M1484.21 101.161V139.11M1484.21 101.161H1522.16M1484.21 139.11V177.06M1484.21 139.11H1522.16M1484.21 177.06V215.009M1484.21 177.06H1522.16M1484.21 215.009V252.959M1484.21 215.009H1522.16M1484.21 252.959V290.908M1484.21 252.959H1522.16M1484.21 290.908V328.857M1484.21 290.908H1522.16M1484.21 328.857V366.807M1484.21 328.857H1522.16M1484.21 366.807V404.756M1484.21 366.807H1522.16M1484.21 404.756V442.706M1484.21 404.756H1522.16M1484.21 442.706V480.655M1484.21 442.706H1522.16M1484.21 480.655V518.605M1484.21 480.655H1522.16M1484.21 518.605V556.554M1484.21 518.605H1522.16M1484.21 556.554V594.503M1484.21 556.554H1522.16M1484.21 594.503V632.453M1484.21 594.503H1522.16M1484.21 632.453V670.402M1484.21 632.453H1522.16M1484.21 670.402V708.352M1484.21 670.402H1522.16M1484.21 708.352H1522.16V670.402M1522.16 -12.6873V25.2621M1522.16 25.2621V63.2115M1522.16 63.2115V101.161M1522.16 101.161V139.11M1522.16 139.11V177.06M1522.16 177.06V215.009M1522.16 215.009V252.959M1522.16 252.959V290.908M1522.16 290.908V328.857M1522.16 328.857V366.807M1522.16 366.807V404.756M1522.16 404.756V442.706M1522.16 442.706V480.655M1522.16 480.655V518.605M1522.16 518.605V556.554M1522.16 556.554V594.503M1522.16 594.503V632.453M1522.16 632.453V670.402" stroke="url(#paint0_radial_320_1778)" stroke-opacity="0.45" stroke-width="0.805493"/>
</g>
<g style="mix-blend-mode:soft-light" opacity="0.8">
<path d="M4.18255 89.7781V101.163M4.18255 101.163V112.548M4.18255 101.163H-7.20229M4.18255 101.163H15.5674M4.18255 393.373V404.758M4.18255 404.758V416.143M4.18255 404.758H-7.20229M4.18255 404.758H15.5674M4.18255 696.969V708.353M4.18255 708.353V719.738M4.18255 708.353H-7.20229M4.18255 708.353H15.5674M307.778 89.7781V101.163M307.778 101.163V112.548M307.778 101.163H296.393M307.778 101.163H319.163M307.778 393.373V404.758M307.778 404.758V416.143M307.778 404.758H296.393M307.778 404.758H319.163M307.778 696.969V708.353M307.778 708.353V719.738M307.778 708.353H296.393M307.778 708.353H319.163M611.373 89.7781V101.163M611.373 101.163V112.548M611.373 101.163H599.989M611.373 101.163H622.758M611.373 393.373V404.758M611.373 404.758V416.143M611.373 404.758H599.989M611.373 404.758H622.758M611.373 696.969V708.353M611.373 708.353V719.738M611.373 708.353H599.989M611.373 708.353H622.758M914.969 89.7781V101.163M914.969 101.163V112.548M914.969 101.163H903.584M914.969 101.163H926.354M914.969 393.373V404.758M914.969 404.758V416.143M914.969 404.758H903.584M914.969 404.758H926.354M914.969 696.969V708.353M914.969 708.353V719.738M914.969 708.353H903.584M914.969 708.353H926.354M1218.56 89.7781V101.163M1218.56 101.163V112.548M1218.56 101.163H1207.18M1218.56 101.163H1229.95M1218.56 393.373V404.758M1218.56 404.758V416.143M1218.56 404.758H1207.18M1218.56 404.758H1229.95M1218.56 696.969V708.353M1218.56 708.353V719.738M1218.56 708.353H1207.18M1218.56 708.353H1229.95M1522.16 89.7781V101.163M1522.16 101.163V112.548M1522.16 101.163H1510.77M1522.16 101.163H1533.54M1522.16 393.373V404.758M1522.16 404.758V416.143M1522.16 404.758H1510.77M1522.16 404.758H1533.54M1522.16 696.969V708.353M1522.16 708.353V719.738M1522.16 708.353H1510.77M1522.16 708.353H1533.54M4.18255 -62.0195V-50.6347M4.18255 -50.6347V-39.2499M4.18255 -50.6347H-7.20229M4.18255 -50.6347H15.5674M4.18255 241.576V252.961M4.18255 252.961V264.345M4.18255 252.961H-7.20229M4.18255 252.961H15.5674M4.18255 545.171V556.556M4.18255 556.556V567.941M4.18255 556.556H-7.20229M4.18255 556.556H15.5674M307.778 -62.0195V-50.6347M307.778 -50.6347V-39.2499M307.778 -50.6347H296.393M307.778 -50.6347H319.163M307.778 241.576V252.961M307.778 252.961V264.345M307.778 252.961H296.393M307.778 252.961H319.163M307.778 545.171V556.556M307.778 556.556V567.941M307.778 556.556H296.393M307.778 556.556H319.163M611.373 -62.0195V-50.6347M611.373 -50.6347V-39.2499M611.373 -50.6347H599.989M611.373 -50.6347H622.758M611.373 241.576V252.961M611.373 252.961V264.345M611.373 252.961H599.989M611.373 252.961H622.758M611.373 545.171V556.556M611.373 556.556V567.941M611.373 556.556H599.989M611.373 556.556H622.758M914.969 -62.0195V-50.6347M914.969 -50.6347V-39.2499M914.969 -50.6347H903.584M914.969 -50.6347H926.354M914.969 241.576V252.961M914.969 252.961V264.345M914.969 252.961H903.584M914.969 252.961H926.354M914.969 545.171V556.556M914.969 556.556V567.941M914.969 556.556H903.584M914.969 556.556H926.354M1218.56 -62.0195V-50.6347M1218.56 -50.6347V-39.2499M1218.56 -50.6347H1207.18M1218.56 -50.6347H1229.95M1218.56 241.576V252.961M1218.56 252.961V264.345M1218.56 252.961H1207.18M1218.56 252.961H1229.95M1218.56 545.171V556.556M1218.56 556.556V567.941M1218.56 556.556H1207.18M1218.56 556.556H1229.95M1522.16 -62.0195V-50.6347M1522.16 -50.6347V-39.2499M1522.16 -50.6347H1510.77M1522.16 -50.6347H1533.54M1522.16 241.576V252.961M1522.16 252.961V264.345M1522.16 252.961H1510.77M1522.16 252.961H1533.54M1522.16 545.171V556.556M1522.16 556.556V567.941M1522.16 556.556H1510.77M1522.16 556.556H1533.54M-147.615 89.7781V101.163M-147.615 101.163V112.548M-147.615 101.163H-159M-147.615 101.163H-136.23M-147.615 393.373V404.758M-147.615 404.758V416.143M-147.615 404.758H-159M-147.615 404.758H-136.23M-147.615 696.969V708.353M-147.615 708.353V719.738M-147.615 708.353H-159M-147.615 708.353H-136.23M155.98 89.7781V101.163M155.98 101.163V112.548M155.98 101.163H144.595M155.98 101.163H167.365M155.98 393.373V404.758M155.98 404.758V416.143M155.98 404.758H144.595M155.98 404.758H167.365M155.98 696.969V708.353M155.98 708.353V719.738M155.98 708.353H144.595M155.98 708.353H167.365M459.576 89.7781V101.163M459.576 101.163V112.548M459.576 101.163H448.191M459.576 101.163H470.96M459.576 393.373V404.758M459.576 404.758V416.143M459.576 404.758H448.191M459.576 404.758H470.96M459.576 696.969V708.353M459.576 708.353V719.738M459.576 708.353H448.191M459.576 708.353H470.96M763.171 89.7781V101.163M763.171 101.163V112.548M763.171 101.163H751.786M763.171 101.163H774.556M763.171 393.373V404.758M763.171 404.758V416.143M763.171 404.758H751.786M763.171 404.758H774.556M763.171 696.969V708.353M763.171 708.353V719.738M763.171 708.353H751.786M763.171 708.353H774.556M1066.77 89.7781V101.163M1066.77 101.163V112.548M1066.77 101.163H1055.38M1066.77 101.163H1078.15M1066.77 393.373V404.758M1066.77 404.758V416.143M1066.77 404.758H1055.38M1066.77 404.758H1078.15M1066.77 696.969V708.353M1066.77 708.353V719.738M1066.77 708.353H1055.38M1066.77 708.353H1078.15M1370.36 89.7781V101.163M1370.36 101.163V112.548M1370.36 101.163H1358.98M1370.36 101.163H1381.75M1370.36 393.373V404.758M1370.36 404.758V416.143M1370.36 404.758H1358.98M1370.36 404.758H1381.75M1370.36 696.969V708.353M1370.36 708.353V719.738M1370.36 708.353H1358.98M1370.36 708.353H1381.75M-147.615 -62.0195V-50.6346M-147.615 -50.6346V-39.2498M-147.615 -50.6346H-159M-147.615 -50.6346H-136.23M-147.615 241.576V252.961M-147.615 252.961V264.345M-147.615 252.961H-159M-147.615 252.961H-136.23M-147.615 545.171V556.556M-147.615 556.556V567.941M-147.615 556.556H-159M-147.615 556.556H-136.23M155.98 -62.0195V-50.6347M155.98 -50.6347V-39.2499M155.98 -50.6347H144.595M155.98 -50.6347H167.365M155.98 241.576V252.961M155.98 252.961V264.345M155.98 252.961H144.595M155.98 252.961H167.365M155.98 545.171V556.556M155.98 556.556V567.941M155.98 556.556H144.595M155.98 556.556H167.365M459.576 -62.0195V-50.6347M459.576 -50.6347V-39.2499M459.576 -50.6347H448.191M459.576 -50.6347H470.96M459.576 241.576V252.961M459.576 252.961V264.345M459.576 252.961H448.191M459.576 252.961H470.96M459.576 545.171V556.556M459.576 556.556V567.941M459.576 556.556H448.191M459.576 556.556H470.96M763.171 -62.0195V-50.6347M763.171 -50.6347V-39.2499M763.171 -50.6347H751.786M763.171 -50.6347H774.556M763.171 241.576V252.961M763.171 252.961V264.345M763.171 252.961H751.786M763.171 252.961H774.556M763.171 545.171V556.556M763.171 556.556V567.941M763.171 556.556H751.786M763.171 556.556H774.556M1066.77 -62.0195V-50.6347M1066.77 -50.6347V-39.2499M1066.77 -50.6347H1055.38M1066.77 -50.6347H1078.15M1066.77 241.576V252.961M1066.77 252.961V264.345M1066.77 252.961H1055.38M1066.77 252.961H1078.15M1066.77 545.171V556.556M1066.77 556.556V567.941M1066.77 556.556H1055.38M1066.77 556.556H1078.15M1370.36 -62.0195V-50.6347M1370.36 -50.6347V-39.2499M1370.36 -50.6347H1358.98M1370.36 -50.6347H1381.75M1370.36 241.576V252.961M1370.36 252.961V264.345M1370.36 252.961H1358.98M1370.36 252.961H1381.75M1370.36 545.171V556.556M1370.36 556.556V567.941M1370.36 556.556H1358.98M1370.36 556.556H1381.75" stroke="url(#paint1_radial_320_1778)" stroke-opacity="0.45" stroke-width="1.61099"/>
</g>
</g>
</g>
<defs>
<radialGradient id="paint0_radial_320_1778" cx="0" cy="0" r="1" gradientUnits="userSpaceOnUse" gradientTransform="translate(687.27 328.857) rotate(90) scale(379.494 834.887)">
<stop stop-color="white"/>
<stop offset="1" stop-color="white" stop-opacity="0"/>
</radialGradient>
<radialGradient id="paint1_radial_320_1778" cx="0" cy="0" r="1" gradientUnits="userSpaceOnUse" gradientTransform="translate(687.272 328.859) rotate(90) scale(390.879 846.272)">
<stop stop-color="white"/>
<stop offset="1" stop-color="white" stop-opacity="0"/>
</radialGradient>
<clipPath id="clip0_320_1778">
<rect width="1440" height="756" fill="white" transform="translate(0 0.640625)"/>
</clipPath>
</defs>
</svg>
