<svg width="1440" height="756" viewBox="0 0 1440 756" fill="none" xmlns="http://www.w3.org/2000/svg">
<g clip-path="url(#clip0_305_2783)">
<g style="mix-blend-mode:soft-light" opacity="0.7">
<path d="M-109.668 -51.2773H-147.617V-13.3279M-109.668 -51.2773V-13.3279M-109.668 -51.2773H-71.7183M-109.668 -13.3279H-147.617M-109.668 -13.3279V24.6215M-109.668 -13.3279H-71.7183M-147.617 -13.3279V24.6215M-109.668 24.6215H-147.617M-109.668 24.6215V62.5709M-109.668 24.6215H-71.7183M-147.617 24.6215V62.5709M-109.668 62.5709H-147.617M-109.668 62.5709V100.52M-109.668 62.5709H-71.7183M-147.617 62.5709V100.52M-109.668 100.52H-147.617M-109.668 100.52V138.47M-109.668 100.52H-71.7183M-147.617 100.52V138.47M-109.668 138.47H-147.617M-109.668 138.47V176.419M-109.668 138.47H-71.7183M-147.617 138.47V176.419M-109.668 176.419H-147.617M-109.668 176.419V214.369M-109.668 176.419H-71.7183M-147.617 176.419V214.369M-109.668 214.369H-147.617M-109.668 214.369V252.318M-109.668 214.369H-71.7183M-147.617 214.369V252.318M-109.668 252.318H-147.617M-109.668 252.318V290.267M-109.668 252.318H-71.7183M-147.617 252.318V290.267M-109.668 290.267H-147.617M-109.668 290.267V328.217M-109.668 290.267H-71.7183M-147.617 290.267V328.217M-109.668 328.217H-147.617M-109.668 328.217V366.166M-109.668 328.217H-71.7183M-147.617 328.217V366.166M-109.668 366.166H-147.617M-109.668 366.166V404.116M-109.668 366.166H-71.7183M-147.617 366.166V404.116M-109.668 404.116H-147.617M-109.668 404.116V442.065M-109.668 404.116H-71.7183M-147.617 404.116V442.065M-109.668 442.065H-147.617M-109.668 442.065V480.014M-109.668 442.065H-71.7183M-147.617 442.065V480.014M-109.668 480.014H-147.617M-109.668 480.014V517.964M-109.668 480.014H-71.7183M-147.617 480.014V517.964M-109.668 517.964H-147.617M-109.668 517.964V555.913M-109.668 517.964H-71.7183M-147.617 517.964V555.913M-109.668 555.913H-147.617M-109.668 555.913V593.863M-109.668 555.913H-71.7183M-147.617 555.913V593.863M-109.668 593.863H-147.617M-109.668 593.863V631.812M-109.668 593.863H-71.7183M-147.617 593.863V631.812M-109.668 631.812H-147.617M-109.668 631.812V669.762M-109.668 631.812H-71.7183M-147.617 631.812V669.762M-109.668 669.762H-147.617M-109.668 669.762V707.711M-109.668 669.762H-71.7183M-147.617 669.762V707.711H-109.668M-109.668 707.711H-71.7183M-71.7183 -51.2773V-13.3279M-71.7183 -51.2773H-33.7689M-71.7183 -13.3279V24.6215M-71.7183 -13.3279H-33.7689M-71.7183 24.6215V62.5709M-71.7183 24.6215H-33.7689M-71.7183 62.5709V100.52M-71.7183 62.5709H-33.7689M-71.7183 100.52V138.47M-71.7183 100.52H-33.7689M-71.7183 138.47V176.419M-71.7183 138.47H-33.7689M-71.7183 176.419V214.369M-71.7183 176.419H-33.7689M-71.7183 214.369V252.318M-71.7183 214.369H-33.7689M-71.7183 252.318V290.267M-71.7183 252.318H-33.7689M-71.7183 290.267V328.217M-71.7183 290.267H-33.7689M-71.7183 328.217V366.166M-71.7183 328.217H-33.7689M-71.7183 366.166V404.116M-71.7183 366.166H-33.7689M-71.7183 404.116V442.065M-71.7183 404.116H-33.7689M-71.7183 442.065V480.014M-71.7183 442.065H-33.7689M-71.7183 480.014V517.964M-71.7183 480.014H-33.7689M-71.7183 517.964V555.913M-71.7183 517.964H-33.7689M-71.7183 555.913V593.863M-71.7183 555.913H-33.7689M-71.7183 593.863V631.812M-71.7183 593.863H-33.7689M-71.7183 631.812V669.762M-71.7183 631.812H-33.7689M-71.7183 669.762V707.711M-71.7183 669.762H-33.7689M-71.7183 707.711H-33.7689M-33.7689 -51.2773V-13.3279M-33.7689 -51.2773H4.1805M-33.7689 -13.3279V24.6215M-33.7689 -13.3279H4.1805M-33.7689 24.6215V62.5709M-33.7689 24.6215H4.1805M-33.7689 62.5709V100.52M-33.7689 62.5709H4.1805M-33.7689 100.52V138.47M-33.7689 100.52H4.1805M-33.7689 138.47V176.419M-33.7689 138.47H4.1805M-33.7689 176.419V214.369M-33.7689 176.419H4.1805M-33.7689 214.369V252.318M-33.7689 214.369H4.1805M-33.7689 252.318V290.267M-33.7689 252.318H4.1805M-33.7689 290.267V328.217M-33.7689 290.267H4.1805M-33.7689 328.217V366.166M-33.7689 328.217H4.1805M-33.7689 366.166V404.116M-33.7689 366.166H4.1805M-33.7689 404.116V442.065M-33.7689 404.116H4.1805M-33.7689 442.065V480.014M-33.7689 442.065H4.1805M-33.7689 480.014V517.964M-33.7689 480.014H4.1805M-33.7689 517.964V555.913M-33.7689 517.964H4.1805M-33.7689 555.913V593.863M-33.7689 555.913H4.1805M-33.7689 593.863V631.812M-33.7689 593.863H4.1805M-33.7689 631.812V669.762M-33.7689 631.812H4.1805M-33.7689 669.762V707.711M-33.7689 669.762H4.1805M-33.7689 707.711H4.1805M4.1805 -51.2773V-13.3279M4.1805 -51.2773H42.1299M4.1805 -13.3279V24.6215M4.1805 -13.3279H42.1299M4.1805 24.6215V62.5709M4.1805 24.6215H42.1299M4.1805 62.5709V100.52M4.1805 62.5709H42.1299M4.1805 100.52V138.47M4.1805 100.52H42.1299M4.1805 138.47V176.419M4.1805 138.47H42.1299M4.1805 176.419V214.369M4.1805 176.419H42.1299M4.1805 214.369V252.318M4.1805 214.369H42.1299M4.1805 252.318V290.267M4.1805 252.318H42.1299M4.1805 290.267V328.217M4.1805 290.267H42.1299M4.1805 328.217V366.166M4.1805 328.217H42.1299M4.1805 366.166V404.116M4.1805 366.166H42.1299M4.1805 404.116V442.065M4.1805 404.116H42.1299M4.1805 442.065V480.014M4.1805 442.065H42.1299M4.1805 480.014V517.964M4.1805 480.014H42.1299M4.1805 517.964V555.913M4.1805 517.964H42.1299M4.1805 555.913V593.863M4.1805 555.913H42.1299M4.1805 593.863V631.812M4.1805 593.863H42.1299M4.1805 631.812V669.762M4.1805 631.812H42.1299M4.1805 669.762V707.711M4.1805 669.762H42.1299M4.1805 707.711H42.1299M42.1299 -51.2773V-13.3279M42.1299 -51.2773H80.0793M42.1299 -13.3279V24.6215M42.1299 -13.3279H80.0793M42.1299 24.6215V62.5709M42.1299 24.6215H80.0793M42.1299 62.5709V100.52M42.1299 62.5709H80.0793M42.1299 100.52V138.47M42.1299 100.52H80.0793M42.1299 138.47V176.419M42.1299 138.47H80.0793M42.1299 176.419V214.369M42.1299 176.419H80.0793M42.1299 214.369V252.318M42.1299 214.369H80.0793M42.1299 252.318V290.267M42.1299 252.318H80.0793M42.1299 290.267V328.217M42.1299 290.267H80.0793M42.1299 328.217V366.166M42.1299 328.217H80.0793M42.1299 366.166V404.116M42.1299 366.166H80.0793M42.1299 404.116V442.065M42.1299 404.116H80.0793M42.1299 442.065V480.014M42.1299 442.065H80.0793M42.1299 480.014V517.964M42.1299 480.014H80.0793M42.1299 517.964V555.913M42.1299 517.964H80.0793M42.1299 555.913V593.863M42.1299 555.913H80.0793M42.1299 593.863V631.812M42.1299 593.863H80.0793M42.1299 631.812V669.762M42.1299 631.812H80.0793M42.1299 669.762V707.711M42.1299 669.762H80.0793M42.1299 707.711H80.0793M80.0793 -51.2773V-13.3279M80.0793 -51.2773H118.029M80.0793 -13.3279V24.6215M80.0793 -13.3279H118.029M80.0793 24.6215V62.5709M80.0793 24.6215H118.029M80.0793 62.5709V100.52M80.0793 62.5709H118.029M80.0793 100.52V138.47M80.0793 100.52H118.029M80.0793 138.47V176.419M80.0793 138.47H118.029M80.0793 176.419V214.369M80.0793 176.419H118.029M80.0793 214.369V252.318M80.0793 214.369H118.029M80.0793 252.318V290.267M80.0793 252.318H118.029M80.0793 290.267V328.217M80.0793 290.267H118.029M80.0793 328.217V366.166M80.0793 328.217H118.029M80.0793 366.166V404.116M80.0793 366.166H118.029M80.0793 404.116V442.065M80.0793 404.116H118.029M80.0793 442.065V480.014M80.0793 442.065H118.029M80.0793 480.014V517.964M80.0793 480.014H118.029M80.0793 517.964V555.913M80.0793 517.964H118.029M80.0793 555.913V593.863M80.0793 555.913H118.029M80.0793 593.863V631.812M80.0793 593.863H118.029M80.0793 631.812V669.762M80.0793 631.812H118.029M80.0793 669.762V707.711M80.0793 669.762H118.029M80.0793 707.711H118.029M118.029 -51.2773V-13.3279M118.029 -51.2773H155.978M118.029 -13.3279V24.6215M118.029 -13.3279H155.978M118.029 24.6215V62.5709M118.029 24.6215H155.978M118.029 62.5709V100.52M118.029 62.5709H155.978M118.029 100.52V138.47M118.029 100.52H155.978M118.029 138.47V176.419M118.029 138.47H155.978M118.029 176.419V214.369M118.029 176.419H155.978M118.029 214.369V252.318M118.029 214.369H155.978M118.029 252.318V290.267M118.029 252.318H155.978M118.029 290.267V328.217M118.029 290.267H155.978M118.029 328.217V366.166M118.029 328.217H155.978M118.029 366.166V404.116M118.029 366.166H155.978M118.029 404.116V442.065M118.029 404.116H155.978M118.029 442.065V480.014M118.029 442.065H155.978M118.029 480.014V517.964M118.029 480.014H155.978M118.029 517.964V555.913M118.029 517.964H155.978M118.029 555.913V593.863M118.029 555.913H155.978M118.029 593.863V631.812M118.029 593.863H155.978M118.029 631.812V669.762M118.029 631.812H155.978M118.029 669.762V707.711M118.029 669.762H155.978M118.029 707.711H155.978M155.978 -51.2773V-13.3279M155.978 -51.2773H193.928M155.978 -13.3279V24.6215M155.978 -13.3279H193.928M155.978 24.6215V62.5709M155.978 24.6215H193.928M155.978 62.5709V100.52M155.978 62.5709H193.928M155.978 100.52V138.47M155.978 100.52H193.928M155.978 138.47V176.419M155.978 138.47H193.928M155.978 176.419V214.369M155.978 176.419H193.928M155.978 214.369V252.318M155.978 214.369H193.928M155.978 252.318V290.267M155.978 252.318H193.928M155.978 290.267V328.217M155.978 290.267H193.928M155.978 328.217V366.166M155.978 328.217H193.928M155.978 366.166V404.116M155.978 366.166H193.928M155.978 404.116V442.065M155.978 404.116H193.928M155.978 442.065V480.014M155.978 442.065H193.928M155.978 480.014V517.964M155.978 480.014H193.928M155.978 517.964V555.913M155.978 517.964H193.928M155.978 555.913V593.863M155.978 555.913H193.928M155.978 593.863V631.812M155.978 593.863H193.928M155.978 631.812V669.762M155.978 631.812H193.928M155.978 669.762V707.711M155.978 669.762H193.928M155.978 707.711H193.928M193.928 -51.2773V-13.3279M193.928 -51.2773H231.877M193.928 -13.3279V24.6215M193.928 -13.3279H231.877M193.928 24.6215V62.5709M193.928 24.6215H231.877M193.928 62.5709V100.52M193.928 62.5709H231.877M193.928 100.52V138.47M193.928 100.52H231.877M193.928 138.47V176.419M193.928 138.47H231.877M193.928 176.419V214.369M193.928 176.419H231.877M193.928 214.369V252.318M193.928 214.369H231.877M193.928 252.318V290.267M193.928 252.318H231.877M193.928 290.267V328.217M193.928 290.267H231.877M193.928 328.217V366.166M193.928 328.217H231.877M193.928 366.166V404.116M193.928 366.166H231.877M193.928 404.116V442.065M193.928 404.116H231.877M193.928 442.065V480.014M193.928 442.065H231.877M193.928 480.014V517.964M193.928 480.014H231.877M193.928 517.964V555.913M193.928 517.964H231.877M193.928 555.913V593.863M193.928 555.913H231.877M193.928 593.863V631.812M193.928 593.863H231.877M193.928 631.812V669.762M193.928 631.812H231.877M193.928 669.762V707.711M193.928 669.762H231.877M193.928 707.711H231.877M231.877 -51.2773V-13.3279M231.877 -51.2773H269.826M231.877 -13.3279V24.6215M231.877 -13.3279H269.826M231.877 24.6215V62.5709M231.877 24.6215H269.826M231.877 62.5709V100.52M231.877 62.5709H269.826M231.877 100.52V138.47M231.877 100.52H269.826M231.877 138.47V176.419M231.877 138.47H269.826M231.877 176.419V214.369M231.877 176.419H269.826M231.877 214.369V252.318M231.877 214.369H269.826M231.877 252.318V290.267M231.877 252.318H269.826M231.877 290.267V328.217M231.877 290.267H269.826M231.877 328.217V366.166M231.877 328.217H269.826M231.877 366.166V404.116M231.877 366.166H269.826M231.877 404.116V442.065M231.877 404.116H269.826M231.877 442.065V480.014M231.877 442.065H269.826M231.877 480.014V517.964M231.877 480.014H269.826M231.877 517.964V555.913M231.877 517.964H269.826M231.877 555.913V593.863M231.877 555.913H269.826M231.877 593.863V631.812M231.877 593.863H269.826M231.877 631.812V669.762M231.877 631.812H269.826M231.877 669.762V707.711M231.877 669.762H269.826M231.877 707.711H269.826M269.826 -51.2773V-13.3279M269.826 -51.2773H307.776M269.826 -13.3279V24.6215M269.826 -13.3279H307.776M269.826 24.6215V62.5709M269.826 24.6215H307.776M269.826 62.5709V100.52M269.826 62.5709H307.776M269.826 100.52V138.47M269.826 100.52H307.776M269.826 138.47V176.419M269.826 138.47H307.776M269.826 176.419V214.369M269.826 176.419H307.776M269.826 214.369V252.318M269.826 214.369H307.776M269.826 252.318V290.267M269.826 252.318H307.776M269.826 290.267V328.217M269.826 290.267H307.776M269.826 328.217V366.166M269.826 328.217H307.776M269.826 366.166V404.116M269.826 366.166H307.776M269.826 404.116V442.065M269.826 404.116H307.776M269.826 442.065V480.014M269.826 442.065H307.776M269.826 480.014V517.964M269.826 480.014H307.776M269.826 517.964V555.913M269.826 517.964H307.776M269.826 555.913V593.863M269.826 555.913H307.776M269.826 593.863V631.812M269.826 593.863H307.776M269.826 631.812V669.762M269.826 631.812H307.776M269.826 669.762V707.711M269.826 669.762H307.776M269.826 707.711H307.776M307.776 -51.2773V-13.3279M307.776 -51.2773H345.725M307.776 -13.3279V24.6215M307.776 -13.3279H345.725M307.776 24.6215V62.5709M307.776 24.6215H345.725M307.776 62.5709V100.52M307.776 62.5709H345.725M307.776 100.52V138.47M307.776 100.52H345.725M307.776 138.47V176.419M307.776 138.47H345.725M307.776 176.419V214.369M307.776 176.419H345.725M307.776 214.369V252.318M307.776 214.369H345.725M307.776 252.318V290.267M307.776 252.318H345.725M307.776 290.267V328.217M307.776 290.267H345.725M307.776 328.217V366.166M307.776 328.217H345.725M307.776 366.166V404.116M307.776 366.166H345.725M307.776 404.116V442.065M307.776 404.116H345.725M307.776 442.065V480.014M307.776 442.065H345.725M307.776 480.014V517.964M307.776 480.014H345.725M307.776 517.964V555.913M307.776 517.964H345.725M307.776 555.913V593.863M307.776 555.913H345.725M307.776 593.863V631.812M307.776 593.863H345.725M307.776 631.812V669.762M307.776 631.812H345.725M307.776 669.762V707.711M307.776 669.762H345.725M307.776 707.711H345.725M345.725 -51.2773V-13.3279M345.725 -51.2773H383.675M345.725 -13.3279V24.6215M345.725 -13.3279H383.675M345.725 24.6215V62.5709M345.725 24.6215H383.675M345.725 62.5709V100.52M345.725 62.5709H383.675M345.725 100.52V138.47M345.725 100.52H383.675M345.725 138.47V176.419M345.725 138.47H383.675M345.725 176.419V214.369M345.725 176.419H383.675M345.725 214.369V252.318M345.725 214.369H383.675M345.725 252.318V290.267M345.725 252.318H383.675M345.725 290.267V328.217M345.725 290.267H383.675M345.725 328.217V366.166M345.725 328.217H383.675M345.725 366.166V404.116M345.725 366.166H383.675M345.725 404.116V442.065M345.725 404.116H383.675M345.725 442.065V480.014M345.725 442.065H383.675M345.725 480.014V517.964M345.725 480.014H383.675M345.725 517.964V555.913M345.725 517.964H383.675M345.725 555.913V593.863M345.725 555.913H383.675M345.725 593.863V631.812M345.725 593.863H383.675M345.725 631.812V669.762M345.725 631.812H383.675M345.725 669.762V707.711M345.725 669.762H383.675M345.725 707.711H383.675M383.675 -51.2773V-13.3279M383.675 -51.2773H421.624M383.675 -13.3279V24.6215M383.675 -13.3279H421.624M383.675 24.6215V62.5709M383.675 24.6215H421.624M383.675 62.5709V100.52M383.675 62.5709H421.624M383.675 100.52V138.47M383.675 100.52H421.624M383.675 138.47V176.419M383.675 138.47H421.624M383.675 176.419V214.369M383.675 176.419H421.624M383.675 214.369V252.318M383.675 214.369H421.624M383.675 252.318V290.267M383.675 252.318H421.624M383.675 290.267V328.217M383.675 290.267H421.624M383.675 328.217V366.166M383.675 328.217H421.624M383.675 366.166V404.116M383.675 366.166H421.624M383.675 404.116V442.065M383.675 404.116H421.624M383.675 442.065V480.014M383.675 442.065H421.624M383.675 480.014V517.964M383.675 480.014H421.624M383.675 517.964V555.913M383.675 517.964H421.624M383.675 555.913V593.863M383.675 555.913H421.624M383.675 593.863V631.812M383.675 593.863H421.624M383.675 631.812V669.762M383.675 631.812H421.624M383.675 669.762V707.711M383.675 669.762H421.624M383.675 707.711H421.624M421.624 -51.2773V-13.3279M421.624 -51.2773H459.574M421.624 -13.3279V24.6215M421.624 -13.3279H459.574M421.624 24.6215V62.5709M421.624 24.6215H459.574M421.624 62.5709V100.52M421.624 62.5709H459.574M421.624 100.52V138.47M421.624 100.52H459.574M421.624 138.47V176.419M421.624 138.47H459.574M421.624 176.419V214.369M421.624 176.419H459.574M421.624 214.369V252.318M421.624 214.369H459.574M421.624 252.318V290.267M421.624 252.318H459.574M421.624 290.267V328.217M421.624 290.267H459.574M421.624 328.217V366.166M421.624 328.217H459.574M421.624 366.166V404.116M421.624 366.166H459.574M421.624 404.116V442.065M421.624 404.116H459.574M421.624 442.065V480.014M421.624 442.065H459.574M421.624 480.014V517.964M421.624 480.014H459.574M421.624 517.964V555.913M421.624 517.964H459.574M421.624 555.913V593.863M421.624 555.913H459.574M421.624 593.863V631.812M421.624 593.863H459.574M421.624 631.812V669.762M421.624 631.812H459.574M421.624 669.762V707.711M421.624 669.762H459.574M421.624 707.711H459.574M459.574 -51.2773V-13.3279M459.574 -51.2773H497.523M459.574 -13.3279V24.6215M459.574 -13.3279H497.523M459.574 24.6215V62.5709M459.574 24.6215H497.523M459.574 62.5709V100.52M459.574 62.5709H497.523M459.574 100.52V138.47M459.574 100.52H497.523M459.574 138.47V176.419M459.574 138.47H497.523M459.574 176.419V214.369M459.574 176.419H497.523M459.574 214.369V252.318M459.574 214.369H497.523M459.574 252.318V290.267M459.574 252.318H497.523M459.574 290.267V328.217M459.574 290.267H497.523M459.574 328.217V366.166M459.574 328.217H497.523M459.574 366.166V404.116M459.574 366.166H497.523M459.574 404.116V442.065M459.574 404.116H497.523M459.574 442.065V480.014M459.574 442.065H497.523M459.574 480.014V517.964M459.574 480.014H497.523M459.574 517.964V555.913M459.574 517.964H497.523M459.574 555.913V593.863M459.574 555.913H497.523M459.574 593.863V631.812M459.574 593.863H497.523M459.574 631.812V669.762M459.574 631.812H497.523M459.574 669.762V707.711M459.574 669.762H497.523M459.574 707.711H497.523M497.523 -51.2773V-13.3279M497.523 -51.2773H535.472M497.523 -13.3279V24.6215M497.523 -13.3279H535.472M497.523 24.6215V62.5709M497.523 24.6215H535.472M497.523 62.5709V100.52M497.523 62.5709H535.472M497.523 100.52V138.47M497.523 100.52H535.472M497.523 138.47V176.419M497.523 138.47H535.472M497.523 176.419V214.369M497.523 176.419H535.472M497.523 214.369V252.318M497.523 214.369H535.472M497.523 252.318V290.267M497.523 252.318H535.472M497.523 290.267V328.217M497.523 290.267H535.472M497.523 328.217V366.166M497.523 328.217H535.472M497.523 366.166V404.116M497.523 366.166H535.472M497.523 404.116V442.065M497.523 404.116H535.472M497.523 442.065V480.014M497.523 442.065H535.472M497.523 480.014V517.964M497.523 480.014H535.472M497.523 517.964V555.913M497.523 517.964H535.472M497.523 555.913V593.863M497.523 555.913H535.472M497.523 593.863V631.812M497.523 593.863H535.472M497.523 631.812V669.762M497.523 631.812H535.472M497.523 669.762V707.711M497.523 669.762H535.472M497.523 707.711H535.472M535.472 -51.2773V-13.3279M535.472 -51.2773H573.422M535.472 -13.3279V24.6215M535.472 -13.3279H573.422M535.472 24.6215V62.5709M535.472 24.6215H573.422M535.472 62.5709V100.52M535.472 62.5709H573.422M535.472 100.52V138.47M535.472 100.52H573.422M535.472 138.47V176.419M535.472 138.47H573.422M535.472 176.419V214.369M535.472 176.419H573.422M535.472 214.369V252.318M535.472 214.369H573.422M535.472 252.318V290.267M535.472 252.318H573.422M535.472 290.267V328.217M535.472 290.267H573.422M535.472 328.217V366.166M535.472 328.217H573.422M535.472 366.166V404.116M535.472 366.166H573.422M535.472 404.116V442.065M535.472 404.116H573.422M535.472 442.065V480.014M535.472 442.065H573.422M535.472 480.014V517.964M535.472 480.014H573.422M535.472 517.964V555.913M535.472 517.964H573.422M535.472 555.913V593.863M535.472 555.913H573.422M535.472 593.863V631.812M535.472 593.863H573.422M535.472 631.812V669.762M535.472 631.812H573.422M535.472 669.762V707.711M535.472 669.762H573.422M535.472 707.711H573.422M573.422 -51.2773V-13.3279M573.422 -51.2773H611.371M573.422 -13.3279V24.6215M573.422 -13.3279H611.371M573.422 24.6215V62.5709M573.422 24.6215H611.371M573.422 62.5709V100.52M573.422 62.5709H611.371M573.422 100.52V138.47M573.422 100.52H611.371M573.422 138.47V176.419M573.422 138.47H611.371M573.422 176.419V214.369M573.422 176.419H611.371M573.422 214.369V252.318M573.422 214.369H611.371M573.422 252.318V290.267M573.422 252.318H611.371M573.422 290.267V328.217M573.422 290.267H611.371M573.422 328.217V366.166M573.422 328.217H611.371M573.422 366.166V404.116M573.422 366.166H611.371M573.422 404.116V442.065M573.422 404.116H611.371M573.422 442.065V480.014M573.422 442.065H611.371M573.422 480.014V517.964M573.422 480.014H611.371M573.422 517.964V555.913M573.422 517.964H611.371M573.422 555.913V593.863M573.422 555.913H611.371M573.422 593.863V631.812M573.422 593.863H611.371M573.422 631.812V669.762M573.422 631.812H611.371M573.422 669.762V707.711M573.422 669.762H611.371M573.422 707.711H611.371M611.371 -51.2773V-13.3279M611.371 -51.2773H649.321M611.371 -13.3279V24.6215M611.371 -13.3279H649.321M611.371 24.6215V62.5709M611.371 24.6215H649.321M611.371 62.5709V100.52M611.371 62.5709H649.321M611.371 100.52V138.47M611.371 100.52H649.321M611.371 138.47V176.419M611.371 138.47H649.321M611.371 176.419V214.369M611.371 176.419H649.321M611.371 214.369V252.318M611.371 214.369H649.321M611.371 252.318V290.267M611.371 252.318H649.321M611.371 290.267V328.217M611.371 290.267H649.321M611.371 328.217V366.166M611.371 328.217H649.321M611.371 366.166V404.116M611.371 366.166H649.321M611.371 404.116V442.065M611.371 404.116H649.321M611.371 442.065V480.014M611.371 442.065H649.321M611.371 480.014V517.964M611.371 480.014H649.321M611.371 517.964V555.913M611.371 517.964H649.321M611.371 555.913V593.863M611.371 555.913H649.321M611.371 593.863V631.812M611.371 593.863H649.321M611.371 631.812V669.762M611.371 631.812H649.321M611.371 669.762V707.711M611.371 669.762H649.321M611.371 707.711H649.321M649.321 -51.2773V-13.3279M649.321 -51.2773H687.27M649.321 -13.3279V24.6215M649.321 -13.3279H687.27M649.321 24.6215V62.5709M649.321 24.6215H687.27M649.321 62.5709V100.52M649.321 62.5709H687.27M649.321 100.52V138.47M649.321 100.52H687.27M649.321 138.47V176.419M649.321 138.47H687.27M649.321 176.419V214.369M649.321 176.419H687.27M649.321 214.369V252.318M649.321 214.369H687.27M649.321 252.318V290.267M649.321 252.318H687.27M649.321 290.267V328.217M649.321 290.267H687.27M649.321 328.217V366.166M649.321 328.217H687.27M649.321 366.166V404.116M649.321 366.166H687.27M649.321 404.116V442.065M649.321 404.116H687.27M649.321 442.065V480.014M649.321 442.065H687.27M649.321 480.014V517.964M649.321 480.014H687.27M649.321 517.964V555.913M649.321 517.964H687.27M649.321 555.913V593.863M649.321 555.913H687.27M649.321 593.863V631.812M649.321 593.863H687.27M649.321 631.812V669.762M649.321 631.812H687.27M649.321 669.762V707.711M649.321 669.762H687.27M649.321 707.711H687.27M687.27 -51.2773V-13.3279M687.27 -51.2773H725.219M687.27 -13.3279V24.6215M687.27 -13.3279H725.219M687.27 24.6215V62.5709M687.27 24.6215H725.219M687.27 62.5709V100.52M687.27 62.5709H725.219M687.27 100.52V138.47M687.27 100.52H725.219M687.27 138.47V176.419M687.27 138.47H725.219M687.27 176.419V214.369M687.27 176.419H725.219M687.27 214.369V252.318M687.27 214.369H725.219M687.27 252.318V290.267M687.27 252.318H725.219M687.27 290.267V328.217M687.27 290.267H725.219M687.27 328.217V366.166M687.27 328.217H725.219M687.27 366.166V404.116M687.27 366.166H725.219M687.27 404.116V442.065M687.27 404.116H725.219M687.27 442.065V480.014M687.27 442.065H725.219M687.27 480.014V517.964M687.27 480.014H725.219M687.27 517.964V555.913M687.27 517.964H725.219M687.27 555.913V593.863M687.27 555.913H725.219M687.27 593.863V631.812M687.27 593.863H725.219M687.27 631.812V669.762M687.27 631.812H725.219M687.27 669.762V707.711M687.27 669.762H725.219M687.27 707.711H725.219M725.219 -51.2773V-13.3279M725.219 -51.2773H763.169M725.219 -13.3279V24.6215M725.219 -13.3279H763.169M725.219 24.6215V62.5709M725.219 24.6215H763.169M725.219 62.5709V100.52M725.219 62.5709H763.169M725.219 100.52V138.47M725.219 100.52H763.169M725.219 138.47V176.419M725.219 138.47H763.169M725.219 176.419V214.369M725.219 176.419H763.169M725.219 214.369V252.318M725.219 214.369H763.169M725.219 252.318V290.267M725.219 252.318H763.169M725.219 290.267V328.217M725.219 290.267H763.169M725.219 328.217V366.166M725.219 328.217H763.169M725.219 366.166V404.116M725.219 366.166H763.169M725.219 404.116V442.065M725.219 404.116H763.169M725.219 442.065V480.014M725.219 442.065H763.169M725.219 480.014V517.964M725.219 480.014H763.169M725.219 517.964V555.913M725.219 517.964H763.169M725.219 555.913V593.863M725.219 555.913H763.169M725.219 593.863V631.812M725.219 593.863H763.169M725.219 631.812V669.762M725.219 631.812H763.169M725.219 669.762V707.711M725.219 669.762H763.169M725.219 707.711H763.169M763.169 -51.2773V-13.3279M763.169 -51.2773H801.118M763.169 -13.3279V24.6215M763.169 -13.3279H801.118M763.169 24.6215V62.5709M763.169 24.6215H801.118M763.169 62.5709V100.52M763.169 62.5709H801.118M763.169 100.52V138.47M763.169 100.52H801.118M763.169 138.47V176.419M763.169 138.47H801.118M763.169 176.419V214.369M763.169 176.419H801.118M763.169 214.369V252.318M763.169 214.369H801.118M763.169 252.318V290.267M763.169 252.318H801.118M763.169 290.267V328.217M763.169 290.267H801.118M763.169 328.217V366.166M763.169 328.217H801.118M763.169 366.166V404.116M763.169 366.166H801.118M763.169 404.116V442.065M763.169 404.116H801.118M763.169 442.065V480.014M763.169 442.065H801.118M763.169 480.014V517.964M763.169 480.014H801.118M763.169 517.964V555.913M763.169 517.964H801.118M763.169 555.913V593.863M763.169 555.913H801.118M763.169 593.863V631.812M763.169 593.863H801.118M763.169 631.812V669.762M763.169 631.812H801.118M763.169 669.762V707.711M763.169 669.762H801.118M763.169 707.711H801.118M801.118 -51.2773V-13.3279M801.118 -51.2773H839.068M801.118 -13.3279V24.6215M801.118 -13.3279H839.068M801.118 24.6215V62.5709M801.118 24.6215H839.068M801.118 62.5709V100.52M801.118 62.5709H839.068M801.118 100.52V138.47M801.118 100.52H839.068M801.118 138.47V176.419M801.118 138.47H839.068M801.118 176.419V214.369M801.118 176.419H839.068M801.118 214.369V252.318M801.118 214.369H839.068M801.118 252.318V290.267M801.118 252.318H839.068M801.118 290.267V328.217M801.118 290.267H839.068M801.118 328.217V366.166M801.118 328.217H839.068M801.118 366.166V404.116M801.118 366.166H839.068M801.118 404.116V442.065M801.118 404.116H839.068M801.118 442.065V480.014M801.118 442.065H839.068M801.118 480.014V517.964M801.118 480.014H839.068M801.118 517.964V555.913M801.118 517.964H839.068M801.118 555.913V593.863M801.118 555.913H839.068M801.118 593.863V631.812M801.118 593.863H839.068M801.118 631.812V669.762M801.118 631.812H839.068M801.118 669.762V707.711M801.118 669.762H839.068M801.118 707.711H839.068M839.068 -51.2773V-13.3279M839.068 -51.2773H877.017M839.068 -13.3279V24.6215M839.068 -13.3279H877.017M839.068 24.6215V62.5709M839.068 24.6215H877.017M839.068 62.5709V100.52M839.068 62.5709H877.017M839.068 100.52V138.47M839.068 100.52H877.017M839.068 138.47V176.419M839.068 138.47H877.017M839.068 176.419V214.369M839.068 176.419H877.017M839.068 214.369V252.318M839.068 214.369H877.017M839.068 252.318V290.267M839.068 252.318H877.017M839.068 290.267V328.217M839.068 290.267H877.017M839.068 328.217V366.166M839.068 328.217H877.017M839.068 366.166V404.116M839.068 366.166H877.017M839.068 404.116V442.065M839.068 404.116H877.017M839.068 442.065V480.014M839.068 442.065H877.017M839.068 480.014V517.964M839.068 480.014H877.017M839.068 517.964V555.913M839.068 517.964H877.017M839.068 555.913V593.863M839.068 555.913H877.017M839.068 593.863V631.812M839.068 593.863H877.017M839.068 631.812V669.762M839.068 631.812H877.017M839.068 669.762V707.711M839.068 669.762H877.017M839.068 707.711H877.017M877.017 -51.2773V-13.3279M877.017 -51.2773H914.967M877.017 -13.3279V24.6215M877.017 -13.3279H914.967M877.017 24.6215V62.5709M877.017 24.6215H914.967M877.017 62.5709V100.52M877.017 62.5709H914.967M877.017 100.52V138.47M877.017 100.52H914.967M877.017 138.47V176.419M877.017 138.47H914.967M877.017 176.419V214.369M877.017 176.419H914.967M877.017 214.369V252.318M877.017 214.369H914.967M877.017 252.318V290.267M877.017 252.318H914.967M877.017 290.267V328.217M877.017 290.267H914.967M877.017 328.217V366.166M877.017 328.217H914.967M877.017 366.166V404.116M877.017 366.166H914.967M877.017 404.116V442.065M877.017 404.116H914.967M877.017 442.065V480.014M877.017 442.065H914.967M877.017 480.014V517.964M877.017 480.014H914.967M877.017 517.964V555.913M877.017 517.964H914.967M877.017 555.913V593.863M877.017 555.913H914.967M877.017 593.863V631.812M877.017 593.863H914.967M877.017 631.812V669.762M877.017 631.812H914.967M877.017 669.762V707.711M877.017 669.762H914.967M877.017 707.711H914.967M914.967 -51.2773V-13.3279M914.967 -51.2773H952.916M914.967 -13.3279V24.6215M914.967 -13.3279H952.916M914.967 24.6215V62.5709M914.967 24.6215H952.916M914.967 62.5709V100.52M914.967 62.5709H952.916M914.967 100.52V138.47M914.967 100.52H952.916M914.967 138.47V176.419M914.967 138.47H952.916M914.967 176.419V214.369M914.967 176.419H952.916M914.967 214.369V252.318M914.967 214.369H952.916M914.967 252.318V290.267M914.967 252.318H952.916M914.967 290.267V328.217M914.967 290.267H952.916M914.967 328.217V366.166M914.967 328.217H952.916M914.967 366.166V404.116M914.967 366.166H952.916M914.967 404.116V442.065M914.967 404.116H952.916M914.967 442.065V480.014M914.967 442.065H952.916M914.967 480.014V517.964M914.967 480.014H952.916M914.967 517.964V555.913M914.967 517.964H952.916M914.967 555.913V593.863M914.967 555.913H952.916M914.967 593.863V631.812M914.967 593.863H952.916M914.967 631.812V669.762M914.967 631.812H952.916M914.967 669.762V707.711M914.967 669.762H952.916M914.967 707.711H952.916M952.916 -51.2773V-13.3279M952.916 -51.2773H990.865M952.916 -13.3279V24.6215M952.916 -13.3279H990.865M952.916 24.6215V62.5709M952.916 24.6215H990.865M952.916 62.5709V100.52M952.916 62.5709H990.865M952.916 100.52V138.47M952.916 100.52H990.865M952.916 138.47V176.419M952.916 138.47H990.865M952.916 176.419V214.369M952.916 176.419H990.865M952.916 214.369V252.318M952.916 214.369H990.865M952.916 252.318V290.267M952.916 252.318H990.865M952.916 290.267V328.217M952.916 290.267H990.865M952.916 328.217V366.166M952.916 328.217H990.865M952.916 366.166V404.116M952.916 366.166H990.865M952.916 404.116V442.065M952.916 404.116H990.865M952.916 442.065V480.014M952.916 442.065H990.865M952.916 480.014V517.964M952.916 480.014H990.865M952.916 517.964V555.913M952.916 517.964H990.865M952.916 555.913V593.863M952.916 555.913H990.865M952.916 593.863V631.812M952.916 593.863H990.865M952.916 631.812V669.762M952.916 631.812H990.865M952.916 669.762V707.711M952.916 669.762H990.865M952.916 707.711H990.865M990.865 -51.2773V-13.3279M990.865 -51.2773H1028.81M990.865 -13.3279V24.6215M990.865 -13.3279H1028.81M990.865 24.6215V62.5709M990.865 24.6215H1028.81M990.865 62.5709V100.52M990.865 62.5709H1028.81M990.865 100.52V138.47M990.865 100.52H1028.81M990.865 138.47V176.419M990.865 138.47H1028.81M990.865 176.419V214.369M990.865 176.419H1028.81M990.865 214.369V252.318M990.865 214.369H1028.81M990.865 252.318V290.267M990.865 252.318H1028.81M990.865 290.267V328.217M990.865 290.267H1028.81M990.865 328.217V366.166M990.865 328.217H1028.81M990.865 366.166V404.116M990.865 366.166H1028.81M990.865 404.116V442.065M990.865 404.116H1028.81M990.865 442.065V480.014M990.865 442.065H1028.81M990.865 480.014V517.964M990.865 480.014H1028.81M990.865 517.964V555.913M990.865 517.964H1028.81M990.865 555.913V593.863M990.865 555.913H1028.81M990.865 593.863V631.812M990.865 593.863H1028.81M990.865 631.812V669.762M990.865 631.812H1028.81M990.865 669.762V707.711M990.865 669.762H1028.81M990.865 707.711H1028.81M1028.81 -51.2773V-13.3279M1028.81 -51.2773H1066.76M1028.81 -13.3279V24.6215M1028.81 -13.3279H1066.76M1028.81 24.6215V62.5709M1028.81 24.6215H1066.76M1028.81 62.5709V100.52M1028.81 62.5709H1066.76M1028.81 100.52V138.47M1028.81 100.52H1066.76M1028.81 138.47V176.419M1028.81 138.47H1066.76M1028.81 176.419V214.369M1028.81 176.419H1066.76M1028.81 214.369V252.318M1028.81 214.369H1066.76M1028.81 252.318V290.267M1028.81 252.318H1066.76M1028.81 290.267V328.217M1028.81 290.267H1066.76M1028.81 328.217V366.166M1028.81 328.217H1066.76M1028.81 366.166V404.116M1028.81 366.166H1066.76M1028.81 404.116V442.065M1028.81 404.116H1066.76M1028.81 442.065V480.014M1028.81 442.065H1066.76M1028.81 480.014V517.964M1028.81 480.014H1066.76M1028.81 517.964V555.913M1028.81 517.964H1066.76M1028.81 555.913V593.863M1028.81 555.913H1066.76M1028.81 593.863V631.812M1028.81 593.863H1066.76M1028.81 631.812V669.762M1028.81 631.812H1066.76M1028.81 669.762V707.711M1028.81 669.762H1066.76M1028.81 707.711H1066.76M1066.76 -51.2773V-13.3279M1066.76 -51.2773H1104.71M1066.76 -13.3279V24.6215M1066.76 -13.3279H1104.71M1066.76 24.6215V62.5709M1066.76 24.6215H1104.71M1066.76 62.5709V100.52M1066.76 62.5709H1104.71M1066.76 100.52V138.47M1066.76 100.52H1104.71M1066.76 138.47V176.419M1066.76 138.47H1104.71M1066.76 176.419V214.369M1066.76 176.419H1104.71M1066.76 214.369V252.318M1066.76 214.369H1104.71M1066.76 252.318V290.267M1066.76 252.318H1104.71M1066.76 290.267V328.217M1066.76 290.267H1104.71M1066.76 328.217V366.166M1066.76 328.217H1104.71M1066.76 366.166V404.116M1066.76 366.166H1104.71M1066.76 404.116V442.065M1066.76 404.116H1104.71M1066.76 442.065V480.014M1066.76 442.065H1104.71M1066.76 480.014V517.964M1066.76 480.014H1104.71M1066.76 517.964V555.913M1066.76 517.964H1104.71M1066.76 555.913V593.863M1066.76 555.913H1104.71M1066.76 593.863V631.812M1066.76 593.863H1104.71M1066.76 631.812V669.762M1066.76 631.812H1104.71M1066.76 669.762V707.711M1066.76 669.762H1104.71M1066.76 707.711H1104.71M1104.71 -51.2773V-13.3279M1104.71 -51.2773H1142.66M1104.71 -13.3279V24.6215M1104.71 -13.3279H1142.66M1104.71 24.6215V62.5709M1104.71 24.6215H1142.66M1104.71 62.5709V100.52M1104.71 62.5709H1142.66M1104.71 100.52V138.47M1104.71 100.52H1142.66M1104.71 138.47V176.419M1104.71 138.47H1142.66M1104.71 176.419V214.369M1104.71 176.419H1142.66M1104.71 214.369V252.318M1104.71 214.369H1142.66M1104.71 252.318V290.267M1104.71 252.318H1142.66M1104.71 290.267V328.217M1104.71 290.267H1142.66M1104.71 328.217V366.166M1104.71 328.217H1142.66M1104.71 366.166V404.116M1104.71 366.166H1142.66M1104.71 404.116V442.065M1104.71 404.116H1142.66M1104.71 442.065V480.014M1104.71 442.065H1142.66M1104.71 480.014V517.964M1104.71 480.014H1142.66M1104.71 517.964V555.913M1104.71 517.964H1142.66M1104.71 555.913V593.863M1104.71 555.913H1142.66M1104.71 593.863V631.812M1104.71 593.863H1142.66M1104.71 631.812V669.762M1104.71 631.812H1142.66M1104.71 669.762V707.711M1104.71 669.762H1142.66M1104.71 707.711H1142.66M1142.66 -51.2773V-13.3279M1142.66 -51.2773H1180.61M1142.66 -13.3279V24.6215M1142.66 -13.3279H1180.61M1142.66 24.6215V62.5709M1142.66 24.6215H1180.61M1142.66 62.5709V100.52M1142.66 62.5709H1180.61M1142.66 100.52V138.47M1142.66 100.52H1180.61M1142.66 138.47V176.419M1142.66 138.47H1180.61M1142.66 176.419V214.369M1142.66 176.419H1180.61M1142.66 214.369V252.318M1142.66 214.369H1180.61M1142.66 252.318V290.267M1142.66 252.318H1180.61M1142.66 290.267V328.217M1142.66 290.267H1180.61M1142.66 328.217V366.166M1142.66 328.217H1180.61M1142.66 366.166V404.116M1142.66 366.166H1180.61M1142.66 404.116V442.065M1142.66 404.116H1180.61M1142.66 442.065V480.014M1142.66 442.065H1180.61M1142.66 480.014V517.964M1142.66 480.014H1180.61M1142.66 517.964V555.913M1142.66 517.964H1180.61M1142.66 555.913V593.863M1142.66 555.913H1180.61M1142.66 593.863V631.812M1142.66 593.863H1180.61M1142.66 631.812V669.762M1142.66 631.812H1180.61M1142.66 669.762V707.711M1142.66 669.762H1180.61M1142.66 707.711H1180.61M1180.61 -51.2773V-13.3279M1180.61 -51.2773H1218.56M1180.61 -13.3279V24.6215M1180.61 -13.3279H1218.56M1180.61 24.6215V62.5709M1180.61 24.6215H1218.56M1180.61 62.5709V100.52M1180.61 62.5709H1218.56M1180.61 100.52V138.47M1180.61 100.52H1218.56M1180.61 138.47V176.419M1180.61 138.47H1218.56M1180.61 176.419V214.369M1180.61 176.419H1218.56M1180.61 214.369V252.318M1180.61 214.369H1218.56M1180.61 252.318V290.267M1180.61 252.318H1218.56M1180.61 290.267V328.217M1180.61 290.267H1218.56M1180.61 328.217V366.166M1180.61 328.217H1218.56M1180.61 366.166V404.116M1180.61 366.166H1218.56M1180.61 404.116V442.065M1180.61 404.116H1218.56M1180.61 442.065V480.014M1180.61 442.065H1218.56M1180.61 480.014V517.964M1180.61 480.014H1218.56M1180.61 517.964V555.913M1180.61 517.964H1218.56M1180.61 555.913V593.863M1180.61 555.913H1218.56M1180.61 593.863V631.812M1180.61 593.863H1218.56M1180.61 631.812V669.762M1180.61 631.812H1218.56M1180.61 669.762V707.711M1180.61 669.762H1218.56M1180.61 707.711H1218.56M1218.56 -51.2773V-13.3279M1218.56 -51.2773H1256.51M1218.56 -13.3279V24.6215M1218.56 -13.3279H1256.51M1218.56 24.6215V62.5709M1218.56 24.6215H1256.51M1218.56 62.5709V100.52M1218.56 62.5709H1256.51M1218.56 100.52V138.47M1218.56 100.52H1256.51M1218.56 138.47V176.419M1218.56 138.47H1256.51M1218.56 176.419V214.369M1218.56 176.419H1256.51M1218.56 214.369V252.318M1218.56 214.369H1256.51M1218.56 252.318V290.267M1218.56 252.318H1256.51M1218.56 290.267V328.217M1218.56 290.267H1256.51M1218.56 328.217V366.166M1218.56 328.217H1256.51M1218.56 366.166V404.116M1218.56 366.166H1256.51M1218.56 404.116V442.065M1218.56 404.116H1256.51M1218.56 442.065V480.014M1218.56 442.065H1256.51M1218.56 480.014V517.964M1218.56 480.014H1256.51M1218.56 517.964V555.913M1218.56 517.964H1256.51M1218.56 555.913V593.863M1218.56 555.913H1256.51M1218.56 593.863V631.812M1218.56 593.863H1256.51M1218.56 631.812V669.762M1218.56 631.812H1256.51M1218.56 669.762V707.711M1218.56 669.762H1256.51M1218.56 707.711H1256.51M1256.51 -51.2773V-13.3279M1256.51 -51.2773H1294.46M1256.51 -13.3279V24.6215M1256.51 -13.3279H1294.46M1256.51 24.6215V62.5709M1256.51 24.6215H1294.46M1256.51 62.5709V100.52M1256.51 62.5709H1294.46M1256.51 100.52V138.47M1256.51 100.52H1294.46M1256.51 138.47V176.419M1256.51 138.47H1294.46M1256.51 176.419V214.369M1256.51 176.419H1294.46M1256.51 214.369V252.318M1256.51 214.369H1294.46M1256.51 252.318V290.267M1256.51 252.318H1294.46M1256.51 290.267V328.217M1256.51 290.267H1294.46M1256.51 328.217V366.166M1256.51 328.217H1294.46M1256.51 366.166V404.116M1256.51 366.166H1294.46M1256.51 404.116V442.065M1256.51 404.116H1294.46M1256.51 442.065V480.014M1256.51 442.065H1294.46M1256.51 480.014V517.964M1256.51 480.014H1294.46M1256.51 517.964V555.913M1256.51 517.964H1294.46M1256.51 555.913V593.863M1256.51 555.913H1294.46M1256.51 593.863V631.812M1256.51 593.863H1294.46M1256.51 631.812V669.762M1256.51 631.812H1294.46M1256.51 669.762V707.711M1256.51 669.762H1294.46M1256.51 707.711H1294.46M1294.46 -51.2773V-13.3279M1294.46 -51.2773H1332.41M1294.46 -13.3279V24.6215M1294.46 -13.3279H1332.41M1294.46 24.6215V62.5709M1294.46 24.6215H1332.41M1294.46 62.5709V100.52M1294.46 62.5709H1332.41M1294.46 100.52V138.47M1294.46 100.52H1332.41M1294.46 138.47V176.419M1294.46 138.47H1332.41M1294.46 176.419V214.369M1294.46 176.419H1332.41M1294.46 214.369V252.318M1294.46 214.369H1332.41M1294.46 252.318V290.267M1294.46 252.318H1332.41M1294.46 290.267V328.217M1294.46 290.267H1332.41M1294.46 328.217V366.166M1294.46 328.217H1332.41M1294.46 366.166V404.116M1294.46 366.166H1332.41M1294.46 404.116V442.065M1294.46 404.116H1332.41M1294.46 442.065V480.014M1294.46 442.065H1332.41M1294.46 480.014V517.964M1294.46 480.014H1332.41M1294.46 517.964V555.913M1294.46 517.964H1332.41M1294.46 555.913V593.863M1294.46 555.913H1332.41M1294.46 593.863V631.812M1294.46 593.863H1332.41M1294.46 631.812V669.762M1294.46 631.812H1332.41M1294.46 669.762V707.711M1294.46 669.762H1332.41M1294.46 707.711H1332.41M1332.41 -51.2773V-13.3279M1332.41 -51.2773H1370.36M1332.41 -13.3279V24.6215M1332.41 -13.3279H1370.36M1332.41 24.6215V62.5709M1332.41 24.6215H1370.36M1332.41 62.5709V100.52M1332.41 62.5709H1370.36M1332.41 100.52V138.47M1332.41 100.52H1370.36M1332.41 138.47V176.419M1332.41 138.47H1370.36M1332.41 176.419V214.369M1332.41 176.419H1370.36M1332.41 214.369V252.318M1332.41 214.369H1370.36M1332.41 252.318V290.267M1332.41 252.318H1370.36M1332.41 290.267V328.217M1332.41 290.267H1370.36M1332.41 328.217V366.166M1332.41 328.217H1370.36M1332.41 366.166V404.116M1332.41 366.166H1370.36M1332.41 404.116V442.065M1332.41 404.116H1370.36M1332.41 442.065V480.014M1332.41 442.065H1370.36M1332.41 480.014V517.964M1332.41 480.014H1370.36M1332.41 517.964V555.913M1332.41 517.964H1370.36M1332.41 555.913V593.863M1332.41 555.913H1370.36M1332.41 593.863V631.812M1332.41 593.863H1370.36M1332.41 631.812V669.762M1332.41 631.812H1370.36M1332.41 669.762V707.711M1332.41 669.762H1370.36M1332.41 707.711H1370.36M1370.36 -51.2773V-13.3279M1370.36 -51.2773H1408.31M1370.36 -13.3279V24.6215M1370.36 -13.3279H1408.31M1370.36 24.6215V62.5709M1370.36 24.6215H1408.31M1370.36 62.5709V100.52M1370.36 62.5709H1408.31M1370.36 100.52V138.47M1370.36 100.52H1408.31M1370.36 138.47V176.419M1370.36 138.47H1408.31M1370.36 176.419V214.369M1370.36 176.419H1408.31M1370.36 214.369V252.318M1370.36 214.369H1408.31M1370.36 252.318V290.267M1370.36 252.318H1408.31M1370.36 290.267V328.217M1370.36 290.267H1408.31M1370.36 328.217V366.166M1370.36 328.217H1408.31M1370.36 366.166V404.116M1370.36 366.166H1408.31M1370.36 404.116V442.065M1370.36 404.116H1408.31M1370.36 442.065V480.014M1370.36 442.065H1408.31M1370.36 480.014V517.964M1370.36 480.014H1408.31M1370.36 517.964V555.913M1370.36 517.964H1408.31M1370.36 555.913V593.863M1370.36 555.913H1408.31M1370.36 593.863V631.812M1370.36 593.863H1408.31M1370.36 631.812V669.762M1370.36 631.812H1408.31M1370.36 669.762V707.711M1370.36 669.762H1408.31M1370.36 707.711H1408.31M1408.31 -51.2773V-13.3279M1408.31 -51.2773H1446.26M1408.31 -13.3279V24.6215M1408.31 -13.3279H1446.26M1408.31 24.6215V62.5709M1408.31 24.6215H1446.26M1408.31 62.5709V100.52M1408.31 62.5709H1446.26M1408.31 100.52V138.47M1408.31 100.52H1446.26M1408.31 138.47V176.419M1408.31 138.47H1446.26M1408.31 176.419V214.369M1408.31 176.419H1446.26M1408.31 214.369V252.318M1408.31 214.369H1446.26M1408.31 252.318V290.267M1408.31 252.318H1446.26M1408.31 290.267V328.217M1408.31 290.267H1446.26M1408.31 328.217V366.166M1408.31 328.217H1446.26M1408.31 366.166V404.116M1408.31 366.166H1446.26M1408.31 404.116V442.065M1408.31 404.116H1446.26M1408.31 442.065V480.014M1408.31 442.065H1446.26M1408.31 480.014V517.964M1408.31 480.014H1446.26M1408.31 517.964V555.913M1408.31 517.964H1446.26M1408.31 555.913V593.863M1408.31 555.913H1446.26M1408.31 593.863V631.812M1408.31 593.863H1446.26M1408.31 631.812V669.762M1408.31 631.812H1446.26M1408.31 669.762V707.711M1408.31 669.762H1446.26M1408.31 707.711H1446.26M1446.26 -51.2773V-13.3279M1446.26 -51.2773H1484.21M1446.26 -13.3279V24.6215M1446.26 -13.3279H1484.21M1446.26 24.6215V62.5709M1446.26 24.6215H1484.21M1446.26 62.5709V100.52M1446.26 62.5709H1484.21M1446.26 100.52V138.47M1446.26 100.52H1484.21M1446.26 138.47V176.419M1446.26 138.47H1484.21M1446.26 176.419V214.369M1446.26 176.419H1484.21M1446.26 214.369V252.318M1446.26 214.369H1484.21M1446.26 252.318V290.267M1446.26 252.318H1484.21M1446.26 290.267V328.217M1446.26 290.267H1484.21M1446.26 328.217V366.166M1446.26 328.217H1484.21M1446.26 366.166V404.116M1446.26 366.166H1484.21M1446.26 404.116V442.065M1446.26 404.116H1484.21M1446.26 442.065V480.014M1446.26 442.065H1484.21M1446.26 480.014V517.964M1446.26 480.014H1484.21M1446.26 517.964V555.913M1446.26 517.964H1484.21M1446.26 555.913V593.863M1446.26 555.913H1484.21M1446.26 593.863V631.812M1446.26 593.863H1484.21M1446.26 631.812V669.762M1446.26 631.812H1484.21M1446.26 669.762V707.711M1446.26 669.762H1484.21M1446.26 707.711H1484.21M1484.21 -51.2773V-13.3279M1484.21 -51.2773H1522.16V-13.3279M1484.21 -13.3279V24.6215M1484.21 -13.3279H1522.16M1484.21 24.6215V62.5709M1484.21 24.6215H1522.16M1484.21 62.5709V100.52M1484.21 62.5709H1522.16M1484.21 100.52V138.47M1484.21 100.52H1522.16M1484.21 138.47V176.419M1484.21 138.47H1522.16M1484.21 176.419V214.369M1484.21 176.419H1522.16M1484.21 214.369V252.318M1484.21 214.369H1522.16M1484.21 252.318V290.267M1484.21 252.318H1522.16M1484.21 290.267V328.217M1484.21 290.267H1522.16M1484.21 328.217V366.166M1484.21 328.217H1522.16M1484.21 366.166V404.116M1484.21 366.166H1522.16M1484.21 404.116V442.065M1484.21 404.116H1522.16M1484.21 442.065V480.014M1484.21 442.065H1522.16M1484.21 480.014V517.964M1484.21 480.014H1522.16M1484.21 517.964V555.913M1484.21 517.964H1522.16M1484.21 555.913V593.863M1484.21 555.913H1522.16M1484.21 593.863V631.812M1484.21 593.863H1522.16M1484.21 631.812V669.762M1484.21 631.812H1522.16M1484.21 669.762V707.711M1484.21 669.762H1522.16M1484.21 707.711H1522.16V669.762M1522.16 -13.3279V24.6215M1522.16 24.6215V62.5709M1522.16 62.5709V100.52M1522.16 100.52V138.47M1522.16 138.47V176.419M1522.16 176.419V214.369M1522.16 214.369V252.318M1522.16 252.318V290.267M1522.16 290.267V328.217M1522.16 328.217V366.166M1522.16 366.166V404.116M1522.16 404.116V442.065M1522.16 442.065V480.014M1522.16 480.014V517.964M1522.16 517.964V555.913M1522.16 555.913V593.863M1522.16 593.863V631.812M1522.16 631.812V669.762" stroke="url(#paint0_radial_305_2783)" stroke-width="0.805493"/>
</g>
<g style="mix-blend-mode:soft-light" opacity="0.8">
<path d="M4.18255 89.1374V100.522M4.18255 100.522V111.907M4.18255 100.522H-7.20229M4.18255 100.522H15.5674M4.18255 392.733V404.118M4.18255 404.118V415.502M4.18255 404.118H-7.20229M4.18255 404.118H15.5674M4.18255 696.328V707.713M4.18255 707.713V719.098M4.18255 707.713H-7.20229M4.18255 707.713H15.5674M307.778 89.1374V100.522M307.778 100.522V111.907M307.778 100.522H296.393M307.778 100.522H319.163M307.778 392.733V404.118M307.778 404.118V415.502M307.778 404.118H296.393M307.778 404.118H319.163M307.778 696.328V707.713M307.778 707.713V719.098M307.778 707.713H296.393M307.778 707.713H319.163M611.373 89.1374V100.522M611.373 100.522V111.907M611.373 100.522H599.989M611.373 100.522H622.758M611.373 392.733V404.118M611.373 404.118V415.502M611.373 404.118H599.989M611.373 404.118H622.758M611.373 696.328V707.713M611.373 707.713V719.098M611.373 707.713H599.989M611.373 707.713H622.758M914.969 89.1374V100.522M914.969 100.522V111.907M914.969 100.522H903.584M914.969 100.522H926.354M914.969 392.733V404.118M914.969 404.118V415.502M914.969 404.118H903.584M914.969 404.118H926.354M914.969 696.328V707.713M914.969 707.713V719.098M914.969 707.713H903.584M914.969 707.713H926.354M1218.56 89.1374V100.522M1218.56 100.522V111.907M1218.56 100.522H1207.18M1218.56 100.522H1229.95M1218.56 392.733V404.118M1218.56 404.118V415.502M1218.56 404.118H1207.18M1218.56 404.118H1229.95M1218.56 696.328V707.713M1218.56 707.713V719.098M1218.56 707.713H1207.18M1218.56 707.713H1229.95M1522.16 89.1374V100.522M1522.16 100.522V111.907M1522.16 100.522H1510.77M1522.16 100.522H1533.54M1522.16 392.733V404.118M1522.16 404.118V415.502M1522.16 404.118H1510.77M1522.16 404.118H1533.54M1522.16 696.328V707.713M1522.16 707.713V719.098M1522.16 707.713H1510.77M1522.16 707.713H1533.54M4.18255 -62.6602V-51.2753M4.18255 -51.2753V-39.8905M4.18255 -51.2753H-7.20229M4.18255 -51.2753H15.5674M4.18255 240.935V252.32M4.18255 252.32V263.705M4.18255 252.32H-7.20229M4.18255 252.32H15.5674M4.18255 544.53V555.915M4.18255 555.915V567.3M4.18255 555.915H-7.20229M4.18255 555.915H15.5674M307.778 -62.6602V-51.2753M307.778 -51.2753V-39.8905M307.778 -51.2753H296.393M307.778 -51.2753H319.163M307.778 240.935V252.32M307.778 252.32V263.705M307.778 252.32H296.393M307.778 252.32H319.163M307.778 544.53V555.915M307.778 555.915V567.3M307.778 555.915H296.393M307.778 555.915H319.163M611.373 -62.6602V-51.2753M611.373 -51.2753V-39.8905M611.373 -51.2753H599.989M611.373 -51.2753H622.758M611.373 240.935V252.32M611.373 252.32V263.705M611.373 252.32H599.989M611.373 252.32H622.758M611.373 544.53V555.915M611.373 555.915V567.3M611.373 555.915H599.989M611.373 555.915H622.758M914.969 -62.6602V-51.2753M914.969 -51.2753V-39.8905M914.969 -51.2753H903.584M914.969 -51.2753H926.354M914.969 240.935V252.32M914.969 252.32V263.705M914.969 252.32H903.584M914.969 252.32H926.354M914.969 544.53V555.915M914.969 555.915V567.3M914.969 555.915H903.584M914.969 555.915H926.354M1218.56 -62.6602V-51.2753M1218.56 -51.2753V-39.8905M1218.56 -51.2753H1207.18M1218.56 -51.2753H1229.95M1218.56 240.935V252.32M1218.56 252.32V263.705M1218.56 252.32H1207.18M1218.56 252.32H1229.95M1218.56 544.53V555.915M1218.56 555.915V567.3M1218.56 555.915H1207.18M1218.56 555.915H1229.95M1522.16 -62.6602V-51.2753M1522.16 -51.2753V-39.8905M1522.16 -51.2753H1510.77M1522.16 -51.2753H1533.54M1522.16 240.935V252.32M1522.16 252.32V263.705M1522.16 252.32H1510.77M1522.16 252.32H1533.54M1522.16 544.53V555.915M1522.16 555.915V567.3M1522.16 555.915H1510.77M1522.16 555.915H1533.54M-147.615 89.1374V100.522M-147.615 100.522V111.907M-147.615 100.522H-159M-147.615 100.522H-136.23M-147.615 392.733V404.118M-147.615 404.118V415.502M-147.615 404.118H-159M-147.615 404.118H-136.23M-147.615 696.328V707.713M-147.615 707.713V719.098M-147.615 707.713H-159M-147.615 707.713H-136.23M155.98 89.1374V100.522M155.98 100.522V111.907M155.98 100.522H144.595M155.98 100.522H167.365M155.98 392.733V404.118M155.98 404.118V415.502M155.98 404.118H144.595M155.98 404.118H167.365M155.98 696.328V707.713M155.98 707.713V719.098M155.98 707.713H144.595M155.98 707.713H167.365M459.576 89.1374V100.522M459.576 100.522V111.907M459.576 100.522H448.191M459.576 100.522H470.96M459.576 392.733V404.118M459.576 404.118V415.502M459.576 404.118H448.191M459.576 404.118H470.96M459.576 696.328V707.713M459.576 707.713V719.098M459.576 707.713H448.191M459.576 707.713H470.96M763.171 89.1374V100.522M763.171 100.522V111.907M763.171 100.522H751.786M763.171 100.522H774.556M763.171 392.733V404.118M763.171 404.118V415.502M763.171 404.118H751.786M763.171 404.118H774.556M763.171 696.328V707.713M763.171 707.713V719.098M763.171 707.713H751.786M763.171 707.713H774.556M1066.77 89.1374V100.522M1066.77 100.522V111.907M1066.77 100.522H1055.38M1066.77 100.522H1078.15M1066.77 392.733V404.118M1066.77 404.118V415.502M1066.77 404.118H1055.38M1066.77 404.118H1078.15M1066.77 696.328V707.713M1066.77 707.713V719.098M1066.77 707.713H1055.38M1066.77 707.713H1078.15M1370.36 89.1374V100.522M1370.36 100.522V111.907M1370.36 100.522H1358.98M1370.36 100.522H1381.75M1370.36 392.733V404.118M1370.36 404.118V415.502M1370.36 404.118H1358.98M1370.36 404.118H1381.75M1370.36 696.328V707.713M1370.36 707.713V719.098M1370.36 707.713H1358.98M1370.36 707.713H1381.75M-147.615 -62.6601V-51.2753M-147.615 -51.2753V-39.8904M-147.615 -51.2753H-159M-147.615 -51.2753H-136.23M-147.615 240.935V252.32M-147.615 252.32V263.705M-147.615 252.32H-159M-147.615 252.32H-136.23M-147.615 544.53V555.915M-147.615 555.915V567.3M-147.615 555.915H-159M-147.615 555.915H-136.23M155.98 -62.6602V-51.2753M155.98 -51.2753V-39.8905M155.98 -51.2753H144.595M155.98 -51.2753H167.365M155.98 240.935V252.32M155.98 252.32V263.705M155.98 252.32H144.595M155.98 252.32H167.365M155.98 544.53V555.915M155.98 555.915V567.3M155.98 555.915H144.595M155.98 555.915H167.365M459.576 -62.6602V-51.2753M459.576 -51.2753V-39.8905M459.576 -51.2753H448.191M459.576 -51.2753H470.96M459.576 240.935V252.32M459.576 252.32V263.705M459.576 252.32H448.191M459.576 252.32H470.96M459.576 544.53V555.915M459.576 555.915V567.3M459.576 555.915H448.191M459.576 555.915H470.96M763.171 -62.6602V-51.2753M763.171 -51.2753V-39.8905M763.171 -51.2753H751.786M763.171 -51.2753H774.556M763.171 240.935V252.32M763.171 252.32V263.705M763.171 252.32H751.786M763.171 252.32H774.556M763.171 544.53V555.915M763.171 555.915V567.3M763.171 555.915H751.786M763.171 555.915H774.556M1066.77 -62.6602V-51.2753M1066.77 -51.2753V-39.8905M1066.77 -51.2753H1055.38M1066.77 -51.2753H1078.15M1066.77 240.935V252.32M1066.77 252.32V263.705M1066.77 252.32H1055.38M1066.77 252.32H1078.15M1066.77 544.53V555.915M1066.77 555.915V567.3M1066.77 555.915H1055.38M1066.77 555.915H1078.15M1370.36 -62.6602V-51.2753M1370.36 -51.2753V-39.8905M1370.36 -51.2753H1358.98M1370.36 -51.2753H1381.75M1370.36 240.935V252.32M1370.36 252.32V263.705M1370.36 252.32H1358.98M1370.36 252.32H1381.75M1370.36 544.53V555.915M1370.36 555.915V567.3M1370.36 555.915H1358.98M1370.36 555.915H1381.75" stroke="url(#paint1_radial_305_2783)" stroke-width="1.61099"/>
</g>
</g>
<defs>
<radialGradient id="paint0_radial_305_2783" cx="0" cy="0" r="1" gradientUnits="userSpaceOnUse" gradientTransform="translate(687.27 328.217) rotate(90) scale(379.494 834.887)">
<stop stop-color="white"/>
<stop offset="1" stop-color="white" stop-opacity="0"/>
</radialGradient>
<radialGradient id="paint1_radial_305_2783" cx="0" cy="0" r="1" gradientUnits="userSpaceOnUse" gradientTransform="translate(687.272 328.219) rotate(90) scale(390.879 846.272)">
<stop stop-color="white"/>
<stop offset="1" stop-color="white" stop-opacity="0"/>
</radialGradient>
<clipPath id="clip0_305_2783">
<rect width="1440" height="756" fill="white"/>
</clipPath>
</defs>
</svg>
