<svg width="1112" height="1026" viewBox="0 0 1112 1026" fill="none" xmlns="http://www.w3.org/2000/svg">
<path d="M515.602 270.056C515.602 412.046 400.497 527.151 258.508 527.151C116.519 527.151 1.41362 412.046 1.41362 270.056C1.41362 128.066 116.519 12.9605 258.508 12.9605C400.497 12.9605 515.602 128.066 515.602 270.056ZM445.827 270.056C445.827 373.51 361.961 457.376 258.508 457.376C155.054 457.376 71.1887 373.51 71.1887 270.056C71.1887 166.602 155.054 82.736 258.508 82.736C361.961 82.736 445.827 166.602 445.827 270.056ZM258.508 459.523C363.147 459.523 447.974 374.696 447.974 270.056C447.974 165.416 363.147 80.5884 258.508 80.5884C153.868 80.5884 69.0412 165.416 69.0412 270.056C69.0412 374.696 153.868 459.523 258.508 459.523ZM376.052 270.056C376.052 334.974 323.425 387.6 258.508 387.6C193.59 387.6 140.964 334.974 140.964 270.056C140.964 205.138 193.59 152.511 258.508 152.511C323.425 152.511 376.052 205.138 376.052 270.056ZM258.508 389.748C324.612 389.748 378.199 336.16 378.199 270.056C378.199 203.952 324.612 150.364 258.508 150.364C192.404 150.364 138.816 203.952 138.816 270.056C138.816 336.16 192.404 389.748 258.508 389.748ZM306.277 270.056C306.277 296.438 284.89 317.825 258.508 317.825C232.126 317.825 210.739 296.438 210.739 270.056C210.739 243.674 232.126 222.287 258.508 222.287C284.89 222.287 306.277 243.674 306.277 270.056ZM258.508 319.973C286.076 319.973 308.424 297.624 308.424 270.056C308.424 242.488 286.076 220.139 258.508 220.139C230.94 220.139 208.591 242.488 208.591 270.056C208.591 297.624 230.94 319.973 258.508 319.973Z" stroke="url(#paint0_radial_302_2684)" stroke-width="2.14756"/>
<path opacity="0.5" d="M116.095 843.101C124.078 831.013 136.454 813.888 151.069 806.787C188.69 788.554 278.212 756.994 434.788 808.68C610.284 866.603 615.243 760.328 787.511 752.995C911.615 747.726 1046.25 770.351 1075.45 813.667C1102.9 854.323 1079.67 953.395 971.514 946.404C776.619 933.802 789.402 963.116 602.301 1013.74C410.837 1065.53 369.886 931.415 190.173 971.195C71.4062 997.466 79.7389 898.465 116.095 843.101Z" fill="#36BAEB"/>
<path d="M483.383 615.73V844.699H668.614V615.73H483.383ZM604.203 711.516C604.203 719.514 601.025 727.185 595.37 732.84C589.714 738.496 582.044 741.673 574.045 741.673C566.047 741.673 558.376 738.496 552.721 732.84C547.065 727.185 543.888 719.514 543.888 711.516V681.358H604.203V711.516Z" fill="#2B94BC"/>
<path d="M483.383 715.663H544.206C544.005 714.289 543.899 712.904 543.888 711.515V681.358H604.203V711.516C604.192 712.904 604.086 714.289 603.885 715.663H668.614V615.73H483.383V715.663Z" fill="#2B94BC"/>
<path d="M964.236 138.152H187.758C166.709 138.152 149.645 155.216 149.645 176.266V643.246C149.645 664.295 166.709 681.36 187.758 681.36H964.236C985.285 681.36 1002.35 664.295 1002.35 643.246V176.266C1002.35 155.216 985.285 138.152 964.236 138.152Z" fill="#72CDF1"/>
<path d="M948.119 173.941H203.858C194.649 173.941 187.184 181.407 187.184 190.616V628.889C187.184 638.098 194.649 645.563 203.858 645.563H948.119C957.329 645.563 964.794 638.098 964.794 628.889V190.616C964.794 181.407 957.329 173.941 948.119 173.941Z" fill="white"/>
<rect x="215.047" y="207.891" width="720.212" height="393.606" rx="27.9153" fill="#C4EFFF"/>
<path d="M679.988 345.887H535.73V351.351H679.988V345.887Z" fill="#456BA3"/>
<path d="M752.846 380.547H535.73V386.011H752.846V380.547Z" fill="#456BA3"/>
<path d="M716.417 415.215H535.73V420.679H716.417V415.215Z" fill="#456BA3"/>
<path d="M431.105 492.629H338.721C336.709 492.629 335.078 494.26 335.078 496.272V525.707C335.078 527.719 336.709 529.35 338.721 529.35H431.105C433.117 529.35 434.748 527.719 434.748 525.707V496.272C434.748 494.26 433.117 492.629 431.105 492.629Z" fill="#36BAEB"/>
<path d="M564.875 492.629H472.491C470.479 492.629 468.848 494.26 468.848 496.272V525.707C468.848 527.719 470.479 529.35 472.491 529.35H564.875C566.886 529.35 568.517 527.719 568.517 525.707V496.272C568.517 494.26 566.886 492.629 564.875 492.629Z" fill="#36BAEB"/>
<path d="M684.339 492.629H591.955C589.943 492.629 588.312 494.26 588.312 496.272V525.707C588.312 527.719 589.943 529.35 591.955 529.35H684.339C686.351 529.35 687.982 527.719 687.982 525.707V496.272C687.982 494.26 686.351 492.629 684.339 492.629Z" fill="#36BAEB"/>
<path d="M811.464 492.629H719.08C717.068 492.629 715.438 494.26 715.438 496.272V525.707C715.438 527.719 717.068 529.35 719.08 529.35H811.464C813.476 529.35 815.107 527.719 815.107 525.707V496.272C815.107 494.26 813.476 492.629 811.464 492.629Z" fill="#36BAEB"/>
<path d="M1005.05 844.363H167.594V865.802H1005.05V844.363Z" fill="#020164"/>
<path d="M668.614 787.062H483.383V826.281H668.614V787.062Z" fill="#2B94BC"/>
<path d="M711.487 845.887H440.5V818.579C440.5 815.42 441.755 812.39 443.988 810.157C446.222 807.923 449.252 806.668 452.41 806.668H699.577C702.736 806.668 705.765 807.923 707.999 810.157C710.232 812.39 711.487 815.42 711.487 818.579V845.887Z" fill="#72CDF1"/>
<path d="M486.517 334.184H352.166C350.154 334.184 348.523 335.815 348.523 337.827V426.932C348.523 428.944 350.154 430.575 352.166 430.575H486.517C488.528 430.575 490.159 428.944 490.159 426.932V337.827C490.159 335.815 488.528 334.184 486.517 334.184Z" fill="#36BAEB"/>
<path d="M860.608 255.348H286.884C284.116 255.348 281.462 256.447 279.505 258.404C277.549 260.361 276.449 263.015 276.449 265.782V283.253H871.043V265.782C871.043 263.015 869.944 260.361 867.987 258.404C866.03 256.447 863.376 255.348 860.608 255.348Z" fill="#36BAEB"/>
<g filter="url(#filter0_bd_302_2684)">
<rect x="854.145" y="34.0391" width="221.312" height="221.313" rx="110.656" fill="#36B9EB" fill-opacity="0.8" shape-rendering="crispEdges"/>
<rect x="854.91" y="34.8043" width="219.782" height="219.783" rx="109.891" stroke="white" stroke-opacity="0.5" stroke-width="1.53047" shape-rendering="crispEdges"/>
<path d="M959.911 161.392C957.112 165.124 952.393 166.881 947.835 165.888C943.276 164.894 939.716 161.334 938.723 156.776C937.73 152.217 939.487 147.498 943.219 144.699" stroke="white" stroke-width="4.76924" stroke-linecap="round" stroke-linejoin="round"/>
<path d="M943.216 109.523C920.327 113.176 903.886 133.515 905.111 156.661C906.337 179.807 924.834 198.296 947.981 199.511C971.127 200.725 991.458 184.275 995.1 161.384" stroke="white" stroke-width="4.76924" stroke-linecap="round" stroke-linejoin="round"/>
<path d="M943.221 126.516V126.516C929.717 130.012 920.702 142.736 921.881 156.635C923.059 170.535 934.088 181.559 947.988 182.732C961.888 183.904 974.608 174.884 978.099 161.379V161.379" stroke="white" stroke-width="4.76924" stroke-linecap="round" stroke-linejoin="round"/>
<path d="M1001.28 89.8516L968.883 121.481L961.505 114.866C960.804 114.237 959.798 114.079 958.938 114.464C958.079 114.848 957.526 115.703 957.527 116.645V144.698C957.527 146.015 958.595 147.082 959.912 147.082H987.755C988.706 147.081 989.565 146.514 989.941 145.641C990.317 144.767 990.138 143.754 989.486 143.062L981.984 135.121L1014.76 103.205" stroke="white" stroke-width="4.76924" stroke-linecap="round" stroke-linejoin="round"/>
</g>
<g filter="url(#filter1_bd_302_2684)">
<rect x="84.0312" y="534.973" width="300.426" height="300.427" rx="150.213" fill="#36B9EB" fill-opacity="0.8" shape-rendering="crispEdges"/>
<rect x="85.2138" y="536.155" width="298.06" height="298.062" rx="149.03" stroke="white" stroke-opacity="0.5" stroke-width="2.36513" shape-rendering="crispEdges"/>
<path d="M155.828 736.934L167.367 754.321" stroke="white" stroke-width="6.86318" stroke-linecap="round" stroke-linejoin="round"/>
<path d="M219.641 659.5L263.494 725.566" stroke="white" stroke-width="6.86318" stroke-linecap="round" stroke-linejoin="round"/>
<path fill-rule="evenodd" clip-rule="evenodd" d="M261.198 722.119L165.065 750.873L158.145 740.441L221.949 663.008L261.198 722.119V722.119Z" stroke="white" stroke-width="6.86318" stroke-linecap="round" stroke-linejoin="round"/>
<path d="M215.084 735.891C218.658 739.991 219.657 745.738 217.676 750.804C215.696 755.87 211.064 759.416 205.656 760.005C200.249 760.594 194.962 758.129 191.937 753.608L185.91 744.529" stroke="white" stroke-width="6.86318" stroke-linecap="round" stroke-linejoin="round"/>
<path d="M176.407 688.341L171.795 683.455C170.547 682.131 170.547 680.064 171.795 678.74L184.166 665.683L180.042 648.185C179.624 646.413 180.661 644.622 182.407 644.103L199.643 638.969L204.777 621.733C205.286 620.011 207.035 618.973 208.79 619.348L226.281 623.506L239.338 611.135C240.662 609.887 242.729 609.887 244.053 611.135L257.111 623.506L274.608 619.382C276.38 618.964 278.171 620.001 278.69 621.746L283.824 638.983L301.06 644.117C302.825 644.636 303.867 646.454 303.424 648.24L299.328 665.662L311.699 678.72C312.947 680.044 312.947 682.111 311.699 683.434L299.328 696.492L303.486 713.983C303.908 715.757 302.871 717.552 301.122 718.072L283.886 723.206L278.752 740.442C278.23 742.188 276.436 743.222 274.663 742.799L257.173 738.676L244.115 751.046C242.791 752.294 240.724 752.294 239.4 751.046L236.919 748.703" stroke="white" stroke-width="6.86318" stroke-linecap="round" stroke-linejoin="round"/>
</g>
<g filter="url(#filter2_b_302_2684)">
<rect x="26.7422" y="243.582" width="321.77" height="215.554" rx="19.4922" fill="white" fill-opacity="0.18"/>
<rect x="27.395" y="244.235" width="320.465" height="214.249" rx="18.8394" stroke="white" stroke-width="1.30565"/>
</g>
<rect width="234.719" height="113.781" transform="translate(63.4492 299.98)" fill="#00D1FF" fill-opacity="0.18"/>
<rect x="63.4492" y="299.98" width="179.107" height="19.4415" rx="3.24871" fill="#36BAEB"/>
<rect x="63.4492" y="342.164" width="234.719" height="9.37178" rx="3.24871" fill="white"/>
<rect x="63.4492" y="362.906" width="234.719" height="9.37178" rx="3.24871" fill="white"/>
<rect x="63.4492" y="383.648" width="234.719" height="9.37178" rx="3.24871" fill="white"/>
<rect x="63.4492" y="404.391" width="234.719" height="9.37178" rx="3.24871" fill="white"/>
<defs>
<filter id="filter0_bd_302_2684" x="817.613" y="0.154523" width="294.376" height="294.376" filterUnits="userSpaceOnUse" color-interpolation-filters="sRGB">
<feFlood flood-opacity="0" result="BackgroundImageFix"/>
<feGaussianBlur in="BackgroundImageFix" stdDeviation="9.79475"/>
<feComposite in2="SourceAlpha" operator="in" result="effect1_backgroundBlur_302_2684"/>
<feColorMatrix in="SourceAlpha" type="matrix" values="0 0 0 0 0 0 0 0 0 0 0 0 0 0 0 0 0 0 127 0" result="hardAlpha"/>
<feOffset dy="2.64723"/>
<feGaussianBlur stdDeviation="18.2659"/>
<feComposite in2="hardAlpha" operator="out"/>
<feColorMatrix type="matrix" values="0 0 0 0 0.660319 0 0 0 0 0.905748 0 0 0 0 1 0 0 0 1 0"/>
<feBlend mode="normal" in2="effect1_backgroundBlur_302_2684" result="effect2_dropShadow_302_2684"/>
<feBlend mode="normal" in="SourceGraphic" in2="effect2_dropShadow_302_2684" result="shape"/>
</filter>
<filter id="filter1_bd_302_2684" x="27.5767" y="482.609" width="413.335" height="413.335" filterUnits="userSpaceOnUse" color-interpolation-filters="sRGB">
<feFlood flood-opacity="0" result="BackgroundImageFix"/>
<feGaussianBlur in="BackgroundImageFix" stdDeviation="15.1364"/>
<feComposite in2="SourceAlpha" operator="in" result="effect1_backgroundBlur_302_2684"/>
<feColorMatrix in="SourceAlpha" type="matrix" values="0 0 0 0 0 0 0 0 0 0 0 0 0 0 0 0 0 0 127 0" result="hardAlpha"/>
<feOffset dy="4.09091"/>
<feGaussianBlur stdDeviation="28.2273"/>
<feComposite in2="hardAlpha" operator="out"/>
<feColorMatrix type="matrix" values="0 0 0 0 0.660319 0 0 0 0 0.905748 0 0 0 0 1 0 0 0 1 0"/>
<feBlend mode="normal" in2="effect1_backgroundBlur_302_2684" result="effect2_dropShadow_302_2684"/>
<feBlend mode="normal" in="SourceGraphic" in2="effect2_dropShadow_302_2684" result="shape"/>
</filter>
<filter id="filter2_b_302_2684" x="16.297" y="233.137" width="342.66" height="236.445" filterUnits="userSpaceOnUse" color-interpolation-filters="sRGB">
<feFlood flood-opacity="0" result="BackgroundImageFix"/>
<feGaussianBlur in="BackgroundImageFix" stdDeviation="5.2226"/>
<feComposite in2="SourceAlpha" operator="in" result="effect1_backgroundBlur_302_2684"/>
<feBlend mode="normal" in="SourceGraphic" in2="effect1_backgroundBlur_302_2684" result="shape"/>
</filter>
<radialGradient id="paint0_radial_302_2684" cx="0" cy="0" r="1" gradientUnits="userSpaceOnUse" gradientTransform="translate(258.508 270.056) rotate(90) scale(258.169 258.168)">
<stop stop-color="white" stop-opacity="0"/>
<stop offset="1" stop-color="#36B9EB" stop-opacity="0.47"/>
</radialGradient>
</defs>
</svg>
