<svg width="1087" height="875" viewBox="0 0 1087 875" fill="none" xmlns="http://www.w3.org/2000/svg">
<path d="M559.979 280.678C559.979 434.755 435.075 559.66 280.998 559.66C126.921 559.66 2.01675 434.755 2.01675 280.678C2.01675 126.601 126.921 1.69644 280.998 1.69644C435.075 1.69644 559.979 126.601 559.979 280.678ZM484.264 280.678C484.264 392.939 393.259 483.944 280.998 483.944C168.737 483.944 77.732 392.939 77.732 280.678C77.732 168.417 168.737 77.4118 280.998 77.4118C393.259 77.4118 484.264 168.417 484.264 280.678ZM280.998 486.275C394.546 486.275 486.594 394.226 486.594 280.678C486.594 167.13 394.546 75.0814 280.998 75.0814C167.45 75.0814 75.4016 167.13 75.4016 280.678C75.4016 394.226 167.45 486.275 280.998 486.275ZM408.549 280.678C408.549 351.123 351.442 408.229 280.998 408.229C210.554 408.229 153.447 351.123 153.447 280.678C153.447 210.234 210.554 153.127 280.998 153.127C351.442 153.127 408.549 210.234 408.549 280.678ZM280.998 410.559C352.729 410.559 410.879 352.41 410.879 280.678C410.879 208.947 352.729 150.797 280.998 150.797C209.267 150.797 151.117 208.947 151.117 280.678C151.117 352.41 209.267 410.559 280.998 410.559ZM332.833 280.678C332.833 309.306 309.626 332.514 280.998 332.514C252.37 332.514 229.163 309.306 229.163 280.678C229.163 252.05 252.37 228.843 280.998 228.843C309.626 228.843 332.833 252.05 332.833 280.678ZM280.998 334.844C310.913 334.844 335.164 310.593 335.164 280.678C335.164 250.763 310.913 226.512 280.998 226.512C251.083 226.512 226.832 250.763 226.832 280.678C226.832 310.593 251.083 334.844 280.998 334.844Z" stroke="url(#paint0_radial_302_2657)" stroke-width="2.33038"/>
<path opacity="0.5" d="M213.336 525.181C220.422 509.698 231.406 487.763 244.377 478.666C277.768 455.312 357.224 414.887 496.195 481.092C651.958 555.284 656.359 419.158 809.257 409.765C919.406 403.016 1038.9 431.996 1064.82 487.479C1089.19 539.555 1068.56 666.456 972.57 657.501C799.589 641.36 810.935 678.907 644.872 743.757C474.937 810.091 438.591 638.302 279.085 689.255C173.672 722.906 181.068 596.096 213.336 525.181Z" fill="#36BAEB"/>
<rect x="958.573" y="132.529" width="473.131" height="639.132" rx="14.6945" transform="rotate(90 958.573 132.529)" fill="white" stroke="#63EBFA" stroke-width="24.3155"/>
<path d="M1067.66 227.297H748.631C738.216 227.297 729.773 235.737 729.773 246.148V315.205C729.773 325.616 738.216 334.056 748.631 334.056H1067.66C1078.07 334.056 1086.51 325.616 1086.51 315.205V246.148C1086.51 235.737 1078.07 227.297 1067.66 227.297Z" fill="#C4EFFF"/>
<path d="M784.133 318.369C805.361 318.369 822.57 301.166 822.57 279.944C822.57 258.723 805.361 241.52 784.133 241.52C762.904 241.52 745.695 258.723 745.695 279.944C745.695 301.166 762.904 318.369 784.133 318.369Z" fill="#36BAEB"/>
<path d="M1049.72 244.887H850.657C846.152 244.887 842.5 248.538 842.5 253.041C842.5 257.545 846.152 261.196 850.657 261.196H1049.72C1054.23 261.196 1057.88 257.545 1057.88 253.041C1057.88 248.538 1054.23 244.887 1049.72 244.887Z" fill="#36BAEB"/>
<path d="M1004.03 271.98H850.657C846.152 271.98 842.5 275.631 842.5 280.135C842.5 284.639 846.152 288.29 850.657 288.29H1004.03C1008.54 288.29 1012.19 284.639 1012.19 280.135C1012.19 275.631 1008.54 271.98 1004.03 271.98Z" fill="#36BAEB"/>
<path d="M886.746 302.039H850.657C846.152 302.039 842.5 305.69 842.5 310.194C842.5 314.697 846.152 318.348 850.657 318.348H886.746C891.251 318.348 894.903 314.697 894.903 310.194C894.903 305.69 891.251 302.039 886.746 302.039Z" fill="#36BAEB"/>
<path d="M1067.66 435.141H748.631C738.216 435.141 729.773 443.581 729.773 453.992V523.048C729.773 533.46 738.216 541.9 748.631 541.9H1067.66C1078.07 541.9 1086.51 533.46 1086.51 523.048V453.992C1086.51 443.581 1078.07 435.141 1067.66 435.141Z" fill="#C4EFFF"/>
<path d="M784.133 526.213C805.361 526.213 822.57 509.01 822.57 487.788C822.57 466.567 805.361 449.363 784.133 449.363C762.904 449.363 745.695 466.567 745.695 487.788C745.695 509.01 762.904 526.213 784.133 526.213Z" fill="#36BAEB"/>
<path d="M1049.72 452.742H850.657C846.152 452.742 842.5 456.393 842.5 460.897C842.5 465.401 846.152 469.052 850.657 469.052H1049.72C1054.23 469.052 1057.88 465.401 1057.88 460.897C1057.88 456.393 1054.23 452.742 1049.72 452.742Z" fill="#36BAEB"/>
<path d="M1004.03 479.832H850.657C846.152 479.832 842.5 483.483 842.5 487.987C842.5 492.49 846.152 496.141 850.657 496.141H1004.03C1008.54 496.141 1012.19 492.49 1012.19 487.987C1012.19 483.483 1008.54 479.832 1004.03 479.832Z" fill="#36BAEB"/>
<path d="M886.746 509.895H850.657C846.152 509.895 842.5 513.545 842.5 518.049C842.5 522.553 846.152 526.204 850.657 526.204H886.746C891.251 526.204 894.903 522.553 894.903 518.049C894.903 513.545 891.251 509.895 886.746 509.895Z" fill="#36BAEB"/>
<path d="M595.882 352.117H276.857C266.443 352.117 258 360.557 258 370.968V440.025C258 450.436 266.443 458.876 276.857 458.876H595.882C606.297 458.876 614.74 450.436 614.74 440.025V370.968C614.74 360.557 606.297 352.117 595.882 352.117Z" fill="#C4EFFF"/>
<path d="M580.402 334.059H261.377C250.962 334.059 242.52 342.499 242.52 352.91V421.966C242.52 432.378 250.962 440.818 261.377 440.818H580.402C590.816 440.818 599.259 432.378 599.259 421.966V352.91C599.259 342.499 590.816 334.059 580.402 334.059Z" fill="#36BAEB"/>
<path d="M296.879 425.131C318.107 425.131 335.316 407.928 335.316 386.706C335.316 365.485 318.107 348.281 296.879 348.281C275.65 348.281 258.441 365.485 258.441 386.706C258.441 407.928 275.65 425.131 296.879 425.131Z" fill="white"/>
<path d="M562.47 351.648H363.403C358.898 351.648 355.246 355.299 355.246 359.803C355.246 364.307 358.898 367.958 363.403 367.958H562.47C566.975 367.958 570.627 364.307 570.627 359.803C570.627 355.299 566.975 351.648 562.47 351.648Z" fill="white"/>
<path d="M516.779 378.738H363.403C358.898 378.738 355.246 382.389 355.246 386.893C355.246 391.397 358.898 395.048 363.403 395.048H516.779C521.284 395.048 524.936 391.397 524.936 386.893C524.936 382.389 521.284 378.738 516.779 378.738Z" fill="white"/>
<path d="M399.492 408.801H363.403C358.898 408.801 355.246 412.452 355.246 416.955C355.246 421.459 358.898 425.11 363.403 425.11H399.492C403.997 425.11 407.649 421.459 407.649 416.955C407.649 412.452 403.997 408.801 399.492 408.801Z" fill="white"/>
<g filter="url(#filter0_bd_302_2657)">
<rect x="212.676" y="64.832" width="192.509" height="192.509" rx="96.2543" fill="#36B9EB" fill-opacity="0.8" shape-rendering="crispEdges"/>
<rect x="213.341" y="65.4977" width="191.177" height="191.178" rx="95.5886" stroke="white" stroke-opacity="0.5" stroke-width="1.33128" shape-rendering="crispEdges"/>
<path fill-rule="evenodd" clip-rule="evenodd" d="M310.862 120.803L288.474 109.609L266.086 120.803L288.474 131.997L310.862 120.803V120.803Z" stroke="white" stroke-width="4.47757" stroke-linecap="round" stroke-linejoin="round"/>
<path d="M266.086 141.244V120.812" stroke="white" stroke-width="4.47757" stroke-linecap="round" stroke-linejoin="round"/>
<path d="M310.868 120.812V145.999L288.48 157.193" stroke="white" stroke-width="4.47757" stroke-linecap="round" stroke-linejoin="round"/>
<path d="M288.48 131.988V157.175" stroke="white" stroke-width="4.47757" stroke-linecap="round" stroke-linejoin="round"/>
<path d="M340.383 137.122C346.153 133.139 353.144 131.32 360.124 131.986" stroke="white" stroke-width="4.47757" stroke-linecap="round" stroke-linejoin="round"/>
<path d="M346.698 212.592V203.637H342.637C337.461 203.637 333.265 199.441 333.265 194.266V185.727H321.176C322.291 182.391 323.325 178.984 324.391 175.621" stroke="white" stroke-width="4.47757" stroke-linecap="round" stroke-linejoin="round"/>
<path fill-rule="evenodd" clip-rule="evenodd" d="M360.115 161.37C360.119 163.741 358.273 165.705 355.906 165.847L323.049 167.831C321.567 163.476 321.567 158.753 323.049 154.398C323.768 151.041 325.268 147.901 327.428 145.232C328.613 143.899 330.484 143.41 332.17 143.992L357.209 153.306C358.961 153.958 360.123 155.631 360.124 157.501L360.115 161.37Z" stroke="white" stroke-width="4.47757" stroke-linecap="round" stroke-linejoin="round"/>
<path d="M297.435 185.727C297.435 178.308 291.42 172.294 284.002 172.294H279.524V154.384C279.524 151.911 277.52 149.906 275.047 149.906C272.574 149.906 270.569 151.911 270.569 154.384V179.396L264.78 173.606C263.023 171.909 260.23 171.933 258.503 173.661C256.776 175.388 256.751 178.18 258.448 179.937L264.238 185.727" stroke="white" stroke-width="4.47757" stroke-linecap="round" stroke-linejoin="round"/>
</g>
<g filter="url(#filter1_bd_302_2657)">
<rect x="360.125" y="560.828" width="261.325" height="261.326" rx="130.663" fill="#36B9EB" fill-opacity="0.8" shape-rendering="crispEdges"/>
<rect x="361.154" y="561.857" width="259.268" height="259.268" rx="129.634" stroke="white" stroke-opacity="0.5" stroke-width="2.0573" shape-rendering="crispEdges"/>
<path fill-rule="evenodd" clip-rule="evenodd" d="M490.792 771.732C535.105 771.732 571.029 735.809 571.029 691.495C571.029 647.181 535.105 611.258 490.792 611.258C446.478 611.258 410.555 647.181 410.555 691.495C410.555 735.809 446.478 771.732 490.792 771.732Z" stroke="white" stroke-width="6.96765" stroke-linecap="round" stroke-linejoin="round"/>
<path fill-rule="evenodd" clip-rule="evenodd" d="M490.776 733.352L455.102 696.129C448.677 689.702 447.084 679.887 451.146 671.758V671.758C454.181 665.689 459.949 661.449 466.648 660.362C473.346 659.276 480.158 661.475 484.957 666.274L490.776 672.107L496.602 666.281C501.399 661.482 508.21 659.283 514.908 660.369C521.605 661.456 527.372 665.696 530.406 671.765V671.765C534.468 679.894 532.874 689.709 526.45 696.136L490.776 733.352Z" stroke="white" stroke-width="6.96765" stroke-linecap="round" stroke-linejoin="round"/>
</g>
<defs>
<filter id="filter0_bd_302_2657" x="180.899" y="35.3576" width="256.062" height="256.062" filterUnits="userSpaceOnUse" color-interpolation-filters="sRGB">
<feFlood flood-opacity="0" result="BackgroundImageFix"/>
<feGaussianBlur in="BackgroundImageFix" stdDeviation="8.51996"/>
<feComposite in2="SourceAlpha" operator="in" result="effect1_backgroundBlur_302_2657"/>
<feColorMatrix in="SourceAlpha" type="matrix" values="0 0 0 0 0 0 0 0 0 0 0 0 0 0 0 0 0 0 127 0" result="hardAlpha"/>
<feOffset dy="2.30269"/>
<feGaussianBlur stdDeviation="15.8886"/>
<feComposite in2="hardAlpha" operator="out"/>
<feColorMatrix type="matrix" values="0 0 0 0 0.660319 0 0 0 0 0.905748 0 0 0 0 1 0 0 0 1 0"/>
<feBlend mode="normal" in2="effect1_backgroundBlur_302_2657" result="effect2_dropShadow_302_2657"/>
<feBlend mode="normal" in="SourceGraphic" in2="effect2_dropShadow_302_2657" result="shape"/>
</filter>
<filter id="filter1_bd_302_2657" x="311.018" y="515.28" width="359.538" height="359.538" filterUnits="userSpaceOnUse" color-interpolation-filters="sRGB">
<feFlood flood-opacity="0" result="BackgroundImageFix"/>
<feGaussianBlur in="BackgroundImageFix" stdDeviation="13.1664"/>
<feComposite in2="SourceAlpha" operator="in" result="effect1_backgroundBlur_302_2657"/>
<feColorMatrix in="SourceAlpha" type="matrix" values="0 0 0 0 0 0 0 0 0 0 0 0 0 0 0 0 0 0 127 0" result="hardAlpha"/>
<feOffset dy="3.55848"/>
<feGaussianBlur stdDeviation="24.5535"/>
<feComposite in2="hardAlpha" operator="out"/>
<feColorMatrix type="matrix" values="0 0 0 0 0.660319 0 0 0 0 0.905748 0 0 0 0 1 0 0 0 1 0"/>
<feBlend mode="normal" in2="effect1_backgroundBlur_302_2657" result="effect2_dropShadow_302_2657"/>
<feBlend mode="normal" in="SourceGraphic" in2="effect2_dropShadow_302_2657" result="shape"/>
</filter>
<radialGradient id="paint0_radial_302_2657" cx="0" cy="0" r="1" gradientUnits="userSpaceOnUse" gradientTransform="translate(280.998 280.678) rotate(90) scale(280.147 280.146)">
<stop stop-color="white" stop-opacity="0"/>
<stop offset="1" stop-color="#36B9EB" stop-opacity="0.47"/>
</radialGradient>
</defs>
</svg>
