<svg width="501" height="299" viewBox="0 0 501 299" fill="none" xmlns="http://www.w3.org/2000/svg">
<path opacity="0.07" d="M52.125 234.388C52.125 128.124 138.269 41.9805 244.533 41.9805C350.797 41.9805 436.941 128.124 436.941 234.388" fill="white"/>
<path d="M182.309 190.039H200.111V234.732H182.309V190.039Z" fill="white"/>
<path d="M222.426 150.801H240.229V234.729H222.426V150.801Z" fill="#63EBFA"/>
<path d="M262.543 159.484H280.345V234.734H262.543V159.484Z" fill="white"/>
<path d="M302.66 116.996H320.463V234.732H302.66V116.996Z" fill="#63EBFA"/>
<path d="M484.628 266.099H16.0829C7.39675 266.099 0.355469 259.058 0.355469 250.372C0.355469 241.686 7.39675 234.645 16.0829 234.645H484.628C493.314 234.645 500.355 241.686 500.355 250.372C500.355 259.058 493.314 266.099 484.628 266.099Z" fill="white"/>
<path d="M221.26 43.6823C221.169 42.1593 218.534 39.0578 218.936 38.6692C219.225 38.39 220.251 39.3487 220.804 39.909C220.836 39.9411 220.876 39.9634 220.92 39.9733C220.964 39.9832 221.01 39.9802 221.052 39.9648C221.094 39.9494 221.131 39.9222 221.158 39.8864C221.186 39.8506 221.202 39.8077 221.206 39.7629C221.326 38.2668 221.7 34.0794 222.118 34.0401C222.542 34.0001 222.753 36.6488 222.812 37.5381C222.813 37.5514 222.818 37.564 222.827 37.5738C222.836 37.5835 222.848 37.5899 222.861 37.5916C222.874 37.5933 222.888 37.5903 222.899 37.5832C222.91 37.576 222.918 37.5652 222.922 37.5525C223.248 36.6115 224.346 33.5741 224.818 33.9641C225.266 34.335 224.571 37.2439 224.282 38.3631C224.279 38.3765 224.28 38.3907 224.286 38.403C224.293 38.4154 224.303 38.4249 224.316 38.43C224.342 38.4405 224.373 38.43 224.387 38.4051C224.954 37.4024 226.449 34.8605 226.853 35.1849C227.264 35.5158 226.106 38.2714 225.677 39.2491C225.671 39.2615 225.67 39.2755 225.674 39.2885C225.678 39.3014 225.687 39.3126 225.698 39.3199C225.71 39.3272 225.723 39.3301 225.737 39.3282C225.75 39.3263 225.763 39.3196 225.772 39.3094C226.419 38.5781 228.114 36.7144 228.105 37.2622C228.093 37.9392 225.115 43.5695 224.14 44.5119C223.165 45.4562 221.26 43.6823 221.26 43.6823Z" fill="#FFCCA0"/>
<path d="M194.524 62.5271C196.542 66.9989 199.447 72.0782 202.959 75.5644C209.791 82.3272 218.561 80.5605 221.622 64.7447C222.154 62.3613 222.526 59.9885 222.839 57.6202C223.475 52.8889 223.721 48.172 223.939 43.4695C223.952 43.1457 223.843 42.8286 223.634 42.5814C223.424 42.3341 223.129 42.1747 222.808 42.1348C222.486 42.0949 222.161 42.1775 221.898 42.3661C221.634 42.5548 221.451 42.8357 221.385 43.153L221.38 43.1792C220.454 47.7447 219.523 52.3011 218.329 56.7336C217.715 58.9419 217.078 61.132 216.337 63.2427C215.694 65.2421 213.112 71.4537 211.103 72.0618C211.037 72.0507 210.972 72.1372 210.933 72.0998C210.896 72.0658 210.877 72.0625 210.854 72.0828C210.817 72.033 210.791 72.0114 210.759 72.0179C210.648 71.9288 210.519 71.9137 210.281 71.7204C209.843 71.4334 209.244 70.8672 208.675 70.1608C207.51 68.7794 206.424 66.9537 205.47 65.0586C203.813 61.8443 202.853 59.533 202.853 59.533C200.814 53.9413 192.356 56.6189 194.398 62.2178C194.435 62.3194 194.48 62.4295 194.524 62.5271Z" fill="#FFCCA0"/>
<path d="M208.08 68.5459C208.072 68.5348 208.064 68.5243 208.056 68.5132C207.021 66.9937 206.064 65.4234 205.186 63.8081C204.312 62.2295 203.42 60.4752 202.797 58.9824L202.766 58.9077C202.532 58.3444 202.186 57.8344 201.749 57.4086C201.312 56.9828 200.793 56.6502 200.224 56.4307C199.655 56.2113 199.047 56.1096 198.437 56.1319C197.828 56.1542 197.229 56.3 196.677 56.5604C196.126 56.8209 195.633 57.1906 195.228 57.6471C194.824 58.1037 194.516 58.6376 194.324 59.2165C194.131 59.7955 194.058 60.4074 194.11 61.0153C194.161 61.6232 194.335 62.2143 194.621 62.753C195.709 64.8192 196.762 66.5093 197.964 68.2878C198.784 69.4602 199.642 70.6054 200.536 71.7216C201.201 71.0125 206.493 69.1148 208.08 68.5459Z" fill="white"/>
<path d="M203.666 99.8522C199.744 104.352 177.106 106.23 177.106 106.23C175.436 104.291 177.878 95.478 178.467 86.5318C179.104 76.8588 179.471 66.1825 179.639 60.4139C179.672 59.2695 180.15 58.1832 180.972 57.386C181.794 56.5887 182.894 56.1434 184.039 56.1445H198.404C199.471 56.1426 200.5 56.5423 201.286 57.2643C202.071 57.9863 202.556 58.9776 202.644 60.041C203.021 64.6085 203.677 72.5468 204.324 80.3299C204.98 88.2264 207.056 95.9623 203.666 99.8522Z" fill="#FFDABB"/>
<path d="M190.609 175.054L190.642 183.958L189.868 188.294C189.836 188.47 189.842 188.651 189.886 188.825C189.93 188.998 190.011 189.161 190.123 189.3C190.236 189.439 190.377 189.553 190.537 189.633C190.698 189.713 190.873 189.757 191.052 189.762C194.697 189.874 204.031 190.12 204.28 189.716C205.454 187.817 200.149 187.087 196.269 185.585C192.388 184.083 195.065 169.348 195.065 169.348L190.609 175.054Z" fill="#FFCCA0"/>
<path d="M196.269 185.585C196.248 185.578 196.23 185.564 196.21 185.555C195.285 185.9 194.244 186.103 193.071 186.103C192.143 186.109 191.219 185.973 190.331 185.7L189.868 188.295C189.836 188.471 189.842 188.652 189.886 188.825C189.93 188.999 190.011 189.161 190.123 189.301C190.236 189.44 190.377 189.554 190.537 189.633C190.698 189.713 190.873 189.757 191.052 189.763C194.697 189.875 204.031 190.121 204.28 189.717C205.453 187.819 200.149 187.087 196.269 185.585Z" fill="#1B5D75"/>
<path d="M203.657 103.096C203.797 109.284 201.363 148.546 196.555 148.654C191.747 148.763 186.387 109.679 186.246 103.49C186.106 97.3013 189.889 92.1965 194.697 92.0877C199.505 91.9789 203.517 96.9068 203.657 103.096Z" fill="#2B94BC"/>
<path d="M189.914 140.498C189.437 143.905 189.36 165.73 190.127 176.818H194.504C196.854 166.063 199.366 145.218 199.832 141.888C199.838 141.845 199.841 141.804 199.846 141.761C202.462 130.19 203.76 107.658 203.656 103.096C203.516 96.9068 199.504 91.9789 194.697 92.0877C189.889 92.1971 186.106 97.302 186.246 103.49C186.334 107.375 190.14 138.885 189.914 140.498Z" fill="#1B5D75"/>
<path d="M180.101 175.054L180.134 183.958L179.36 188.294C179.328 188.47 179.334 188.651 179.378 188.825C179.422 188.998 179.503 189.161 179.615 189.3C179.728 189.439 179.869 189.553 180.029 189.633C180.19 189.713 180.366 189.757 180.545 189.762C184.189 189.874 193.523 190.12 193.773 189.716C194.946 187.817 189.642 187.087 185.761 185.585C181.88 184.083 184.558 169.348 184.558 169.348L180.101 175.054Z" fill="#FFCCA0"/>
<path d="M185.761 185.585C185.74 185.578 185.722 185.564 185.702 185.555C184.777 185.9 183.737 186.103 182.564 186.103C181.635 186.109 180.711 185.973 179.823 185.7L179.36 188.295C179.328 188.471 179.334 188.652 179.378 188.825C179.422 188.999 179.503 189.161 179.615 189.301C179.728 189.44 179.869 189.554 180.029 189.633C180.19 189.713 180.366 189.757 180.545 189.763C184.189 189.875 193.522 190.121 193.773 189.717C194.946 187.819 189.642 187.087 185.761 185.585Z" fill="#1B5D75"/>
<path d="M193.153 103.096C193.294 109.284 190.86 148.546 186.052 148.654C181.244 148.763 176.923 109.535 176.782 103.346C176.642 97.1572 179.386 92.1965 184.193 92.0877C189.001 91.9789 193.012 96.9068 193.153 103.096Z" fill="#2B94BC"/>
<path d="M179.411 140.499C178.934 143.905 178.857 165.73 179.623 176.818H184C186.351 166.063 188.862 145.218 189.329 141.888C189.335 141.845 189.338 141.804 189.343 141.761C191.958 130.19 194.296 107.514 194.193 102.951C194.052 96.7627 189.001 91.979 184.193 92.0878C179.385 92.1972 176.642 97.1579 176.783 103.346C176.871 107.231 179.637 138.885 179.411 140.499Z" fill="#1B5D75"/>
<path d="M198.541 56.1445H196.206C195.394 58.0259 193.674 59.4801 191.006 59.4801C188.333 59.4801 186.614 58.0266 185.803 56.1445H183.672C182.626 56.1422 181.62 56.5484 180.869 57.2767C180.117 58.0049 179.68 58.9977 179.649 60.0436C179.487 65.716 179.118 76.6478 178.467 86.5311C177.878 95.4774 175.436 103.791 177.106 106.23C177.106 106.23 199.744 104.351 203.666 99.8515C207.056 95.9616 204.98 88.2257 204.323 80.3293C203.67 72.4709 203.007 64.4532 202.632 59.908C202.548 58.8813 202.08 57.9241 201.322 57.2268C200.564 56.5294 199.571 56.143 198.541 56.1445Z" fill="white"/>
<path d="M190.388 50.9192C189.332 51.1539 188.226 50.9594 187.313 50.3785C186.4 49.7976 185.755 48.8779 185.52 47.8216L184.359 42.6041L188.342 41.7188L190.388 50.9192Z" fill="#1B5D75"/>
<path d="M193.945 56.1451H186.434L188.599 48.6562L193.719 49.2899L193.945 56.1451Z" fill="#FFDABB"/>
<path d="M193.719 49.2899L188.599 48.6562L187.59 52.1464C188.736 53.4387 190.436 55.4446 192.299 55.4446C192.89 55.4446 193.429 55.2781 193.913 54.9708L193.719 49.2899Z" fill="#FFCCA0"/>
<path d="M194.492 53.27C191.12 54.0197 187.778 51.8939 187.028 48.5217L185.516 41.7196L195.989 39.3906C195.989 39.3906 197.17 44.7006 197.204 48.4542C197.229 51.27 196.211 52.8873 194.492 53.27Z" fill="#FFDABB"/>
<path d="M185.559 44.4573L187.527 44.0195L187.725 44.9121L185.757 45.3498L185.559 44.4573Z" fill="#353485"/>
<path d="M188.517 46.8431C188.812 48.1701 188.416 49.3876 187.632 49.562C186.848 49.7363 185.597 48.1884 185.302 46.8614C185.008 45.5344 185.78 44.9296 186.563 44.7553C187.347 44.581 188.221 45.5154 188.517 46.8431Z" fill="#FFDABB"/>
<path d="M197.336 42.0256C197.392 41.124 197.245 40.2213 196.906 39.3841C196.064 37.3068 193.737 36.4129 191.621 37.1495C191.405 37.2249 191.175 37.2904 190.933 37.3441L187.398 38.1285C186.893 38.2406 186.415 38.4511 185.991 38.748C185.567 39.0449 185.206 39.4224 184.928 39.8589C184.65 40.2954 184.461 40.7824 184.372 41.2921C184.282 41.8017 184.294 42.324 184.407 42.829L184.59 43.6528L186.686 44.8684L187.54 46.3559L187.678 46.3251C188.001 46.2533 188.284 46.0613 188.471 45.788C188.657 45.5148 188.733 45.1808 188.682 44.854C188.508 43.7432 189.06 42.6587 190.158 42.4142L193.294 41.7163C195.204 41.2917 196.425 42.0964 196.743 43.5243L196.914 44.7543L197.336 42.0256Z" fill="#1B5D75"/>
<path d="M186.76 39.5437C186.52 41.4841 193.494 43.9428 195.333 44.1702C197.173 44.3976 198.858 43.0083 199.097 41.0679C199.337 39.1276 198.04 37.3701 196.201 37.1433C194.362 36.9159 187 37.6033 186.76 39.5437Z" fill="#1B5D75"/>
<path d="M178.793 63.4656C181.106 66.6189 185.072 70.7657 189.82 74.3463C204.341 84.9367 219.883 86.0075 232.556 74.02C232.785 73.8021 232.926 73.5081 232.953 73.1934C232.979 72.8787 232.89 72.5651 232.701 72.3118C232.513 72.0585 232.238 71.8829 231.929 71.8183C231.62 71.7537 231.298 71.8044 231.023 71.961L230.965 71.995C222.7 76.7657 215.299 78.7237 205.982 74.8096C193.767 69.5462 185.101 56.883 186.014 58.0908C185.301 57.1332 184.237 56.498 183.056 56.3249C181.875 56.1518 180.673 56.455 179.716 57.1677C178.758 57.8805 178.123 58.9444 177.95 60.1255C177.777 61.3066 178.08 62.508 178.793 63.4656Z" fill="#FFDABB"/>
<path d="M192.678 65.364C189.653 62.6498 185.807 57.3018 185.807 57.3018C185.807 57.3018 183.984 55.1471 180.233 56.7186C177.237 57.9735 177.843 61.5135 177.843 61.5135C177.916 62.0062 178.917 67.8457 185.806 73.0102C185.806 73.0102 193.185 65.8195 192.678 65.364ZM242.374 0.925781C226.711 0.94413 213.995 13.6433 213.995 29.3091C213.995 36.8379 217.826 43.3385 221.706 49.1662C230.279 62.0436 225.408 69.02 230.356 69.02H254.422C259.375 69.02 254.49 62.0429 263.066 49.1662C266.944 43.3398 270.765 37.0417 270.765 29.5155C270.767 13.8465 258.038 0.94413 242.374 0.925781Z" fill="white"/>
<path d="M228.537 39.9649C228.391 39.782 228.179 39.6643 227.946 39.6375C227.714 39.6108 227.481 39.6771 227.297 39.822C227.114 39.9682 226.997 40.181 226.97 40.4136C226.944 40.6463 227.011 40.8798 227.157 41.0632C227.313 41.2578 227.49 41.4465 227.682 41.6313L237.095 70.3495C237.169 70.5715 237.327 70.7554 237.536 70.861C237.745 70.9666 237.987 70.9853 238.209 70.913C238.319 70.877 238.421 70.8195 238.509 70.744C238.597 70.6684 238.669 70.5762 238.721 70.4727C238.773 70.3691 238.805 70.2563 238.813 70.1407C238.821 70.0251 238.807 69.909 238.77 69.799L230.077 43.2663C232.187 44.2951 234.827 44.7663 236.98 44.0815C237.427 43.9407 237.855 43.7436 238.252 43.495C239.355 44.2136 240.643 44.5959 241.959 44.5953C243.575 44.5953 245.102 44.0776 246.26 43.1536C246.906 43.4989 247.656 43.7846 248.491 43.9943C250.96 44.6202 253.142 44.4688 254.96 43.5808L246.363 69.8003C246.291 70.0223 246.309 70.2638 246.414 70.4722C246.52 70.6806 246.703 70.8391 246.924 70.913C247.034 70.9498 247.151 70.9645 247.267 70.9561C247.383 70.9477 247.496 70.9165 247.6 70.8643C247.704 70.812 247.797 70.7398 247.873 70.6517C247.949 70.5635 248.006 70.4613 248.043 70.3508L257.469 41.5861C257.547 41.4924 257.638 41.4144 257.714 41.3161C257.858 41.1318 257.924 40.898 257.895 40.6658C257.867 40.4337 257.748 40.2221 257.564 40.0776C257.473 40.0059 257.369 39.9529 257.258 39.9216C257.146 39.8904 257.03 39.8814 256.915 39.8954C256.8 39.9093 256.689 39.9459 256.588 40.0029C256.487 40.0599 256.399 40.1363 256.328 40.2276C254.622 42.4059 252.129 43.0985 248.924 42.2866C248.434 42.1627 247.956 41.9967 247.495 41.7906C248.028 40.9557 248.291 40.0061 248.247 39.0442C248.17 37.1267 247.519 35.7204 246.461 35.1824C245.843 34.8692 245.157 34.9085 244.585 35.2886C243.657 35.9078 243.203 37.3168 243.345 39.151C243.431 40.265 243.916 41.2545 244.749 42.0664C243.304 42.9681 241.134 43.0651 239.583 42.2329C240.172 41.4013 240.515 40.3528 240.583 39.13C240.678 37.417 240.15 36.0297 239.17 35.4223C238.544 35.033 237.794 35.014 237.16 35.3771C236.159 35.9419 235.606 37.2971 235.634 39.0946C235.653 40.2565 236.104 41.3476 236.848 42.2473C236.716 42.3066 236.581 42.3578 236.442 42.4006C233.808 43.2388 229.961 41.7545 228.537 39.9649ZM245.568 36.7539C245.585 36.7427 245.593 36.7355 245.608 36.7355C245.621 36.7355 245.638 36.7414 245.663 36.7539C245.921 36.8849 246.422 37.5474 246.486 39.1162C246.513 39.7106 246.346 40.2984 246.015 40.8299C245.526 40.3626 245.164 39.765 245.106 39.0127C245.002 37.6516 245.324 36.9157 245.568 36.7539ZM238.031 36.9111C238.059 36.8921 238.093 36.8816 238.127 36.881C238.159 36.881 238.195 36.8934 238.245 36.9216C238.492 37.0769 238.897 37.6968 238.823 39.0324C238.777 39.8718 238.57 40.5684 238.21 41.1175C237.714 40.5193 237.414 39.8095 237.402 39.0677C237.379 37.6588 237.787 37.0487 238.031 36.9111Z" fill="#1B5D75"/>
<path d="M252.366 69.0195H232.369C231.208 69.0195 230.268 71.1571 230.268 72.3197C230.268 73.4815 231.209 75.6198 232.369 75.6198H239.071L231.731 76.9881C230.629 77.3445 230.024 78.0241 230.381 79.1283C230.667 80.0176 231.493 80.3314 232.381 80.3314C232.594 80.3314 232.813 80.1683 233.029 80.1021L253.019 73.5543C254 73.2351 254.607 72.0313 254.446 71.0104C254.28 69.9881 253.4 69.0195 252.366 69.0195ZM252.342 83.8701H245.659L252.991 80.5555C254.093 80.1997 254.699 78.5464 254.34 77.4409C253.982 76.3393 252.798 75.4972 251.693 75.855L231.719 82.2207C230.734 82.5424 230.13 83.9546 230.292 84.9756C230.451 85.9979 231.334 87.1702 232.369 87.1702H234.185L237.362 92.1211H247.273L250.5 87.1702H252.342C253.504 87.1702 254.442 86.6807 254.442 85.5202C254.442 84.359 253.504 83.8701 252.342 83.8701Z" fill="#1B5D75"/>
<path d="M183.863 167.542L173.758 155.469L222.988 114.087L265.797 121.222L314.366 83.707L316.325 85.4665L270.015 137.021L228.013 127.897L183.863 167.542Z" fill="url(#paint0_linear_302_2511)"/>
<path d="M317.022 108.61L288.855 81.6004L325.218 71.8711L317.022 108.61Z" fill="url(#paint1_linear_302_2511)"/>
<path d="M230.102 72.5418C231.094 71.3839 231.356 67.3223 231.914 67.3223C232.316 67.3223 232.387 68.7247 232.396 69.5123C232.396 69.5573 232.41 69.6012 232.435 69.6388C232.459 69.6763 232.494 69.706 232.535 69.7243C232.577 69.7426 232.622 69.7487 232.667 69.7419C232.711 69.7351 232.753 69.7157 232.786 69.686C233.913 68.6939 237.092 65.9429 237.419 66.205C237.752 66.4704 236.063 68.5222 235.488 69.2031C235.479 69.2131 235.474 69.2257 235.474 69.2388C235.474 69.252 235.478 69.2648 235.486 69.2751C235.503 69.2961 235.532 69.3027 235.556 69.2909C236.445 68.8407 239.345 67.42 239.413 68.0281C239.477 68.6061 236.955 70.2148 235.971 70.819C235.959 70.8262 235.95 70.8374 235.946 70.8505C235.942 70.8637 235.943 70.8779 235.948 70.8905C235.96 70.9167 235.989 70.9298 236.016 70.9219C237.121 70.5949 239.963 69.8059 240.027 70.3203C240.092 70.8439 237.345 72.0202 236.357 72.4252C236.345 72.4303 236.334 72.4397 236.328 72.4517C236.322 72.4637 236.32 72.4775 236.323 72.4907C236.33 72.5182 236.355 72.5366 236.383 72.534C237.356 72.4579 239.87 72.2961 239.483 72.6834C239.004 73.1624 232.95 75.1414 231.594 75.1414C230.239 75.1414 230.102 72.5418 230.102 72.5418Z" fill="#FFDABB"/>
<path d="M331.353 189.173C337.346 195.165 347.052 195.157 353.045 189.173C359.037 183.181 359.037 173.475 353.045 167.482C347.053 161.49 337.346 161.481 331.353 167.482C325.361 173.466 325.361 183.18 331.353 189.173ZM333.775 169.904C338.431 165.248 345.967 165.248 350.622 169.904C355.278 174.551 355.278 182.095 350.622 186.751C345.975 191.407 338.431 191.407 333.775 186.751C329.12 182.095 329.12 174.551 333.775 169.904Z" fill="#1B5D75"/>
<path opacity="0.25" d="M332.735 182.217C332.665 180.785 332.896 179.355 333.414 178.018C333.931 176.681 334.724 175.468 335.74 174.457C339.759 170.429 346.263 170.429 350.282 174.457C351.308 175.48 352.106 176.709 352.623 178.063C352.497 175.605 351.502 173.174 349.618 171.299C345.599 167.28 339.096 167.28 335.077 171.299C333.674 172.699 332.706 174.474 332.291 176.412C331.875 178.349 332.029 180.365 332.735 182.217Z" fill="white"/>
<path d="M368.522 204.553C368.894 204.181 369.104 203.676 369.104 203.149C369.104 202.622 368.894 202.117 368.522 201.745L353.914 187.137L351.105 189.945L365.714 204.553C366.086 204.926 366.591 205.135 367.118 205.135C367.645 205.135 368.15 204.926 368.522 204.553Z" fill="#1B5D75"/>
<path d="M370.975 207.002C371.232 206.746 371.435 206.442 371.574 206.107C371.713 205.772 371.784 205.413 371.784 205.051C371.784 204.688 371.713 204.329 371.574 203.994C371.435 203.66 371.232 203.355 370.975 203.099L357.462 189.586C357.317 189.441 357.12 189.359 356.915 189.359C356.71 189.359 356.513 189.441 356.367 189.586L353.559 192.395C353.414 192.54 353.332 192.737 353.332 192.942C353.332 193.148 353.414 193.344 353.559 193.49L367.072 207.003C367.59 207.52 368.292 207.811 369.024 207.811C369.756 207.811 370.458 207.52 370.975 207.002Z" fill="white"/>
<path d="M148.716 208.713C156.96 208.191 163.22 201.085 162.698 192.841C162.175 184.597 155.069 178.337 146.825 178.859C138.581 179.381 132.322 186.488 132.844 194.732C133.366 202.975 140.472 209.235 148.716 208.713Z" fill="white"/>
<path d="M154.153 186.819L151.582 185.861C151.376 185.784 151.147 185.792 150.947 185.884C150.747 185.975 150.591 186.142 150.514 186.348L147.021 195.715C146.945 195.917 146.794 196.082 146.599 196.174C146.404 196.267 146.181 196.28 145.977 196.211L141.965 194.852C141.757 194.781 141.529 194.796 141.331 194.894C141.134 194.991 140.983 195.163 140.913 195.371L140.032 197.97C139.962 198.179 139.977 198.407 140.074 198.604C140.172 198.801 140.343 198.952 140.552 199.023L148.609 201.753C148.814 201.822 149.037 201.809 149.232 201.716C149.427 201.623 149.578 201.459 149.653 201.257L154.639 187.888C154.716 187.681 154.708 187.453 154.617 187.253C154.526 187.052 154.359 186.897 154.153 186.819Z" fill="white"/>
<path d="M66.5444 283.793C91.5166 283.793 111.761 283.206 111.761 282.482C111.761 281.759 91.5166 281.172 66.5444 281.172C41.5721 281.172 21.3281 281.759 21.3281 282.482C21.3281 283.206 41.5721 283.793 66.5444 283.793Z" fill="white"/>
<path d="M133.384 298.211C158.356 298.211 178.6 297.624 178.6 296.9C178.6 296.177 158.356 295.59 133.384 295.59C108.412 295.59 88.168 296.177 88.168 296.9C88.168 297.624 108.412 298.211 133.384 298.211Z" fill="white"/>
<path d="M215.955 283.793C240.927 283.793 261.171 283.206 261.171 282.482C261.171 281.759 240.927 281.172 215.955 281.172C190.982 281.172 170.738 281.759 170.738 282.482C170.738 283.206 190.982 283.793 215.955 283.793Z" fill="white"/>
<path d="M282.794 298.211C307.767 298.211 328.011 297.624 328.011 296.9C328.011 296.177 307.767 295.59 282.794 295.59C257.822 295.59 237.578 296.177 237.578 296.9C237.578 297.624 257.822 298.211 282.794 298.211Z" fill="white"/>
<path d="M361.431 283.793C386.403 283.793 406.647 283.206 406.647 282.482C406.647 281.759 386.403 281.172 361.431 281.172C336.459 281.172 316.215 281.759 316.215 282.482C316.215 283.206 336.459 283.793 361.431 283.793Z" fill="white"/>
<path d="M428.271 298.211C453.243 298.211 473.487 297.624 473.487 296.9C473.487 296.177 453.243 295.59 428.271 295.59C403.299 295.59 383.055 296.177 383.055 296.9C383.055 297.624 403.299 298.211 428.271 298.211Z" fill="white"/>
<path opacity="0.4" d="M402.975 89.068C406.294 96.642 402.845 105.472 395.272 108.791C387.697 112.11 378.867 108.662 375.548 101.088C372.229 93.5142 375.678 84.684 383.252 81.3648C390.825 78.045 399.656 81.4939 402.975 89.068Z" fill="#63EBFA"/>
<path d="M380.018 89.8041L391.651 84.7058C392.184 84.4741 392.787 84.4628 393.328 84.6742C393.87 84.8856 394.305 85.3027 394.54 85.8343L399.638 97.4673C399.87 98.0002 399.881 98.6031 399.67 99.1443C399.459 99.6856 399.042 100.121 398.51 100.356L386.877 105.454C386.344 105.686 385.741 105.698 385.2 105.486C384.658 105.275 384.223 104.858 383.988 104.326L378.889 92.6933C378.658 92.1604 378.646 91.5574 378.858 91.016C379.069 90.4747 379.486 90.039 380.018 89.8041ZM390.172 87.426C389.784 87.5964 389.606 88.0525 389.776 88.4404L390.515 90.1265C390.684 90.5145 391.14 90.6927 391.528 90.523L393.297 89.7477C393.684 89.578 393.863 89.1219 393.693 88.734L392.954 87.0479C392.872 86.8613 392.719 86.7148 392.529 86.6406C392.339 86.5663 392.128 86.5702 391.941 86.6514L390.172 87.426ZM394.79 91.2189L393.414 91.8225C393.738 92.1993 394.005 92.6225 394.204 93.078C395.344 95.6802 394.091 98.7458 391.404 99.9234C388.718 101.1 385.614 99.945 384.473 97.3427C384.273 96.8871 384.143 96.4043 384.085 95.9102L382.648 96.54L385.546 103.151C385.696 103.494 386.098 103.649 386.441 103.499L397.339 98.7228C397.682 98.5728 397.838 98.1724 397.688 97.8297L394.79 91.2189ZM387.929 91.9941C386.193 92.755 385.384 94.7346 386.121 96.4175C386.858 98.0983 388.863 98.846 390.599 98.0852C392.335 97.3244 393.144 95.3434 392.408 93.6626C391.669 91.9797 389.665 91.2333 387.929 91.9941Z" fill="white"/>
<path opacity="0.4" d="M91.3128 135.922C99.8432 135.922 106.758 129.007 106.758 120.477C106.758 111.946 99.8432 105.031 91.3128 105.031C82.7824 105.031 75.8672 111.946 75.8672 120.477C75.8672 129.007 82.7824 135.922 91.3128 135.922Z" fill="#63EBFA"/>
<path d="M86.8555 112.758L98.2932 120.481L86.8555 128.204V112.758Z" fill="white"/>
<path opacity="0.4" d="M63.5166 179.513V167.867C62.3318 167.893 61.3095 168.07 60.1542 168.445C58.6695 168.923 57.2944 169.691 56.1085 170.703C54.9225 171.716 53.9494 172.955 53.2453 174.346C51.8558 177.055 51.5677 180.196 52.4412 183.112L63.5166 179.513Z" fill="#63EBFA"/>
<path d="M69.087 181.766L63.8183 180.055L52.625 183.692C53.8871 187.301 56.4841 189.833 60.1492 191.024C61.3346 191.41 62.5735 191.608 63.8203 191.608C66.2762 191.612 68.6726 190.853 70.6775 189.434C72.6824 188.016 74.1966 186.009 75.0103 183.692L69.087 181.766Z" fill="#63EBFA"/>
<path opacity="0.1" d="M71.0451 170.312L64.3164 179.573L75.203 183.111C76.6349 178.315 75.0222 173.351 71.0451 170.312Z" fill="#63EBFA"/>
<path opacity="0.62" d="M64.1289 178.794L70.5516 169.954C68.5817 168.587 66.526 167.92 64.1289 167.867V178.794Z" fill="#63EBFA"/>
<path opacity="0.62" d="M124.62 73.9551C134.429 73.9551 142.381 66.0034 142.381 56.1944C142.381 46.3854 134.429 38.4336 124.62 38.4336C114.811 38.4336 106.859 46.3854 106.859 56.1944C106.859 66.0034 114.811 73.9551 124.62 73.9551Z" fill="#63EBFA"/>
<path d="M129.189 54.1816L127.234 50.5257L123.918 52.8894L122.394 50.7511C121.703 49.7819 121.503 48.928 122.893 47.9379L124.664 46.6744L122.53 43.6797C122.195 43.8573 121.078 44.5152 119.853 45.3887C117.296 47.2111 116.66 50.0185 118.702 52.8835L120.462 55.3527L117.571 57.4136L119.958 60.7622L122.849 58.7013L128.972 67.2917L132.429 64.8277L126.306 56.2373L129.189 54.1816Z" fill="white"/>
<path opacity="0.62" d="M351.917 37.3473C351.917 46.6016 344.414 54.1042 335.16 54.1042C325.905 54.1042 318.402 46.6022 318.402 37.3473C318.402 28.0924 325.905 20.5898 335.16 20.5898C344.415 20.5898 351.917 28.0924 351.917 37.3473Z" fill="#63EBFA"/>
<path d="M339.586 45.7739C339.371 46.068 339.085 46.3024 338.754 46.4547L337.889 38.3139L345.026 37.631C345.004 38.0374 344.867 38.429 344.63 38.7601L339.586 45.7739ZM335.038 37.6395L345.2 36.6677C345.044 36.3337 344.806 36.0446 344.508 35.8276L333.744 28.0878C333.443 27.874 333.093 27.7403 332.727 27.6992L335.038 37.6395Z" fill="white"/>
<path d="M337.014 38.5613L334.662 38.7874C334.529 38.7995 334.396 38.7633 334.287 38.6853C334.179 38.6073 334.102 38.4928 334.071 38.3628L333.537 36.0607L325.257 37.8968C325.41 38.2796 325.669 38.6109 326.004 38.8523L336.767 46.5921C337.103 46.8321 337.499 46.9723 337.911 46.9964L337.014 38.5613ZM331.624 27.8398C331.237 27.9945 330.903 28.2555 330.659 28.5928L325.5 35.7677C325.284 36.0711 325.149 36.425 325.109 36.7953L333.285 34.9833L331.624 27.8398Z" fill="white"/>
<path d="M409.375 185.968C409.375 185.968 412.71 189.52 415.709 192.464C418.707 195.408 422.728 197.959 422.728 197.959C422.728 197.959 424.165 197.435 426.581 196.059C428.999 194.684 429.204 194.103 429.204 194.103C429.204 194.103 428.206 191.132 426.284 191.194C425.891 190.025 425.176 188.571 423.668 188.652C423.424 187.335 422.183 184.741 420.218 184.493C420.182 183.001 419.303 181.812 419.303 181.812L409.375 185.968Z" fill="#63EBFA"/>
<path d="M422.461 181.03L424.523 184.767C424.523 184.767 424.122 185.297 423.455 185.515C422.789 185.733 421.143 184.112 420.66 183.282C420.177 182.452 419.706 181.347 419.706 181.347L422.461 181.03ZM398.65 178.444C398.65 178.444 398.62 179.03 398.898 180.136C398.382 180.665 398.043 181.342 397.927 182.072C397.811 182.802 397.925 183.55 398.251 184.213C398.578 184.877 399.102 185.422 399.752 185.775C400.401 186.129 401.144 186.272 401.878 186.186C402.586 187.079 403.069 187.412 403.069 187.412L406.348 186.695L403.781 181.488L401.215 176.281L398.65 178.444Z" fill="#63EBFA"/>
<path d="M419.6 160.577C416.489 166.823 409.451 170.859 406.183 172.639C402.916 174.42 401.913 174.573 401.27 175.572C400.626 176.57 403.239 181.755 403.239 181.755C403.239 181.755 405.759 186.985 406.943 187.083C408.127 187.181 408.86 186.479 412.262 184.973C415.664 183.467 423.153 180.344 430.001 181.682C436.849 183.02 440.374 183.952 440.374 183.952L432.246 167.46L424.12 150.969C424.12 150.969 422.711 154.331 419.6 160.577Z" fill="#36BAEB"/>
<path d="M443.122 179.545C443.667 181.487 443.248 182.96 441.703 183.721C440.159 184.482 438.716 183.973 437.527 182.302C437.527 182.302 435.944 180.947 429.874 168.628C423.803 156.31 423.693 154.229 423.693 154.229C423.438 152.211 423.567 150.814 425.111 150.054C426.657 149.292 427.866 149.794 429.288 151.472C429.288 151.472 431.355 153.812 436.94 165.146C442.527 176.48 443.122 179.545 443.122 179.545Z" fill="#63EBFA"/>
<path d="M436.403 165.412C440.51 173.747 442.343 181.241 442.343 181.241C442.343 181.241 437.516 175.222 433.409 166.888C429.302 158.553 427.469 151.059 427.469 151.059C427.469 151.059 432.296 157.077 436.403 165.412Z" fill="white"/>
<path d="M439.539 149.571C439.373 149.571 439.21 149.524 439.069 149.437C438.928 149.349 438.814 149.223 438.741 149.075C438.667 148.926 438.637 148.759 438.653 148.594C438.669 148.428 438.731 148.271 438.832 148.139L449.582 134.077C449.653 133.984 449.742 133.905 449.843 133.847C449.944 133.788 450.056 133.75 450.172 133.734C450.288 133.719 450.406 133.726 450.519 133.757C450.632 133.787 450.738 133.839 450.831 133.91C450.924 133.981 451.002 134.07 451.061 134.171C451.12 134.272 451.158 134.384 451.173 134.5C451.189 134.616 451.181 134.734 451.151 134.847C451.121 134.96 451.069 135.066 450.998 135.159L440.248 149.221C440.165 149.33 440.057 149.419 439.934 149.479C439.811 149.54 439.676 149.572 439.539 149.571ZM443.595 154.5C443.407 154.5 443.224 154.44 443.072 154.33C442.92 154.219 442.806 154.063 442.748 153.885C442.69 153.706 442.689 153.514 442.747 153.335C442.805 153.156 442.917 153 443.069 152.888L454.672 144.417C454.766 144.348 454.874 144.299 454.987 144.271C455.101 144.243 455.219 144.239 455.335 144.257C455.451 144.275 455.562 144.315 455.662 144.376C455.762 144.437 455.848 144.517 455.918 144.612C455.987 144.706 456.036 144.814 456.064 144.927C456.091 145.041 456.096 145.159 456.078 145.275C456.06 145.391 456.019 145.502 455.958 145.602C455.897 145.702 455.817 145.789 455.723 145.858L444.12 154.329C443.968 154.44 443.784 154.5 443.595 154.5ZM446.555 161.476C446.343 161.477 446.137 161.401 445.976 161.264C445.814 161.126 445.706 160.936 445.673 160.726C445.639 160.516 445.682 160.302 445.792 160.12C445.903 159.939 446.075 159.803 446.277 159.738L466.17 153.194C466.282 153.157 466.399 153.143 466.516 153.152C466.632 153.16 466.746 153.192 466.851 153.245C466.955 153.298 467.048 153.37 467.125 153.459C467.201 153.548 467.259 153.651 467.296 153.762C467.332 153.873 467.346 153.99 467.338 154.107C467.329 154.224 467.297 154.338 467.245 154.442C467.192 154.547 467.119 154.64 467.03 154.716C466.942 154.792 466.839 154.851 466.727 154.887L446.834 161.431C446.744 161.461 446.65 161.476 446.555 161.476ZM449.876 170.198C449.649 170.196 449.432 170.108 449.268 169.951C449.104 169.794 449.006 169.58 448.994 169.353C448.982 169.127 449.057 168.904 449.203 168.731C449.35 168.557 449.557 168.446 449.783 168.42L464.929 166.805C465.163 166.782 465.397 166.852 465.581 167C465.764 167.148 465.882 167.362 465.91 167.596C465.922 167.713 465.911 167.83 465.878 167.943C465.845 168.055 465.791 168.159 465.717 168.251C465.644 168.342 465.553 168.417 465.45 168.473C465.347 168.529 465.234 168.565 465.118 168.577L449.972 170.193C449.94 170.197 449.908 170.199 449.876 170.198Z" fill="#63EBFA"/>
<defs>
<linearGradient id="paint0_linear_302_2511" x1="104.365" y1="38.4233" x2="329.238" y2="134.929" gradientUnits="userSpaceOnUse">
<stop stop-color="#B721FF"/>
<stop offset="1" stop-color="#21D4FD"/>
</linearGradient>
<linearGradient id="paint1_linear_302_2511" x1="271.156" y1="52.0263" x2="335.086" y2="67.994" gradientUnits="userSpaceOnUse">
<stop stop-color="#B721FF"/>
<stop offset="1" stop-color="#21D4FD"/>
</linearGradient>
</defs>
</svg>
