<svg width="1087" height="1290" viewBox="0 0 1087 1290" fill="none" xmlns="http://www.w3.org/2000/svg">
<path d="M1084.88 661.134C1084.88 846.249 934.816 996.313 749.701 996.313C564.586 996.313 414.521 846.249 414.521 661.134C414.521 476.02 564.586 325.955 749.701 325.955C934.816 325.955 1084.88 476.02 1084.88 661.134ZM993.914 661.134C993.914 796.009 884.576 905.346 749.701 905.346C614.826 905.346 505.489 796.009 505.489 661.134C505.489 526.259 614.826 416.922 749.701 416.922C884.576 416.922 993.914 526.259 993.914 661.134ZM749.701 908.146C886.122 908.146 996.713 797.555 996.713 661.134C996.713 524.713 886.122 414.122 749.701 414.122C613.28 414.122 502.689 524.713 502.689 661.134C502.689 797.555 613.28 908.146 749.701 908.146ZM902.946 661.134C902.946 745.769 834.336 814.379 749.701 814.379C665.066 814.379 596.456 745.769 596.456 661.134C596.456 576.499 665.066 507.889 749.701 507.889C834.336 507.889 902.946 576.499 902.946 661.134ZM749.701 817.178C835.882 817.178 905.746 747.315 905.746 661.134C905.746 574.953 835.882 505.09 749.701 505.09C663.52 505.09 593.656 574.953 593.656 661.134C593.656 747.315 663.52 817.178 749.701 817.178ZM811.978 661.134C811.978 695.529 784.096 723.411 749.701 723.411C715.306 723.411 687.424 695.529 687.424 661.134C687.424 626.739 715.306 598.857 749.701 598.857C784.096 598.857 811.978 626.739 811.978 661.134ZM749.701 726.211C785.642 726.211 814.778 697.075 814.778 661.134C814.778 625.193 785.642 596.057 749.701 596.057C713.76 596.057 684.624 625.193 684.624 661.134C684.624 697.075 713.76 726.211 749.701 726.211Z" stroke="url(#paint0_radial_302_2583)" stroke-width="2.79982"/>
<path opacity="0.5" d="M26.0811 1008.71C34.5945 990.108 47.7911 963.755 63.3758 952.826C103.493 924.767 198.955 876.199 365.92 955.74C553.061 1044.88 558.349 881.33 742.046 870.045C874.384 861.937 1017.95 896.755 1049.09 963.414C1078.37 1025.98 1053.59 1178.44 938.258 1167.69C730.432 1148.29 744.062 1193.4 544.547 1271.32C340.38 1351.01 296.712 1144.62 105.075 1205.84C-21.5724 1246.27 -12.6868 1093.91 26.0811 1008.71Z" fill="#36BAEB"/>
<path d="M741.345 77.8281H347.944C302.176 77.8281 265.074 114.918 265.074 160.671V958.471C265.074 1004.22 302.176 1041.31 347.944 1041.31H741.345C787.113 1041.31 824.216 1004.22 824.216 958.471V160.671C824.216 114.918 787.113 77.8281 741.345 77.8281Z" fill="#63EBFA"/>
<path d="M743.352 115.457H344.462C314.135 115.457 289.551 140.033 289.551 170.35V958.616C289.551 988.932 314.135 1013.51 344.462 1013.51H743.352C773.679 1013.51 798.263 988.932 798.263 958.616V170.35C798.263 140.033 773.679 115.457 743.352 115.457Z" fill="white"/>
<path d="M656.245 94.8672H422.335C409.788 94.8672 399.617 105.035 399.617 117.578V117.593C399.617 130.136 409.788 140.304 422.335 140.304H656.245C668.792 140.304 678.963 130.136 678.963 117.593V117.578C678.963 105.035 668.792 94.8672 656.245 94.8672Z" fill="#63EBFA"/>
<path d="M594.169 98.7852H487.759C482.997 98.7852 479.137 102.644 479.137 107.404V107.42C479.137 112.18 482.997 116.039 487.759 116.039H594.169C598.931 116.039 602.791 112.18 602.791 107.42V107.404C602.791 102.644 598.931 98.7852 594.169 98.7852Z" fill="white"/>
<path d="M740.103 230.609H356.812C344.3 230.609 334.156 240.749 334.156 253.258V336.225C334.156 348.734 344.3 358.874 356.812 358.874H740.103C752.615 358.874 762.759 348.734 762.759 336.225V253.258C762.759 240.749 752.615 230.609 740.103 230.609Z" fill="#C4EFFF"/>
<path d="M399.469 340.022C424.974 340.022 445.65 319.353 445.65 293.857C445.65 268.36 424.974 247.691 399.469 247.691C373.965 247.691 353.289 268.36 353.289 293.857C353.289 319.353 373.965 340.022 399.469 340.022Z" fill="#36BAEB"/>
<path d="M718.561 251.738H479.394C473.982 251.738 469.594 256.125 469.594 261.536C469.594 266.947 473.982 271.333 479.394 271.333H718.561C723.974 271.333 728.362 266.947 728.362 261.536C728.362 256.125 723.974 251.738 718.561 251.738Z" fill="#36BAEB"/>
<path d="M663.666 284.289H479.394C473.982 284.289 469.594 288.675 469.594 294.086C469.594 299.497 473.982 303.884 479.394 303.884H663.666C669.078 303.884 673.466 299.497 673.466 294.086C673.466 288.675 669.078 284.289 663.666 284.289Z" fill="#36BAEB"/>
<path d="M522.752 320.414H479.394C473.982 320.414 469.594 324.8 469.594 330.211C469.594 335.622 473.982 340.009 479.394 340.009H522.752C528.165 340.009 532.553 335.622 532.553 330.211C532.553 324.8 528.165 320.414 522.752 320.414Z" fill="#36BAEB"/>
<path d="M740.103 561.52H356.812C344.3 561.52 334.156 571.66 334.156 584.168V667.135C334.156 679.644 344.3 689.784 356.812 689.784H740.103C752.615 689.784 762.759 679.644 762.759 667.135V584.168C762.759 571.66 752.615 561.52 740.103 561.52Z" fill="#C4EFFF"/>
<path d="M399.469 670.932C424.974 670.932 445.65 650.263 445.65 624.767C445.65 599.27 424.974 578.602 399.469 578.602C373.965 578.602 353.289 599.27 353.289 624.767C353.289 650.263 373.965 670.932 399.469 670.932Z" fill="#36BAEB"/>
<path d="M718.561 582.664H479.394C473.982 582.664 469.594 587.05 469.594 592.461C469.594 597.872 473.982 602.259 479.394 602.259H718.561C723.974 602.259 728.362 597.872 728.362 592.461C728.362 587.05 723.974 582.664 718.561 582.664Z" fill="#36BAEB"/>
<path d="M663.666 615.215H479.394C473.982 615.215 469.594 619.601 469.594 625.012C469.594 630.423 473.982 634.81 479.394 634.81H663.666C669.078 634.81 673.466 630.423 673.466 625.012C673.466 619.601 669.078 615.215 663.666 615.215Z" fill="#36BAEB"/>
<path d="M522.752 651.34H479.394C473.982 651.34 469.594 655.726 469.594 661.137C469.594 666.548 473.982 670.934 479.394 670.934H522.752C528.165 670.934 532.553 666.548 532.553 661.137C532.553 655.726 528.165 651.34 522.752 651.34Z" fill="#36BAEB"/>
<path d="M740.103 718.449H356.812C344.3 718.449 334.156 728.589 334.156 741.098V824.065C334.156 836.573 344.3 846.714 356.812 846.714H740.103C752.615 846.714 762.759 836.573 762.759 824.065V741.098C762.759 728.589 752.615 718.449 740.103 718.449Z" fill="#C4EFFF"/>
<path d="M399.469 827.85C424.974 827.85 445.65 807.181 445.65 781.685C445.65 756.188 424.974 735.52 399.469 735.52C373.965 735.52 353.289 756.188 353.289 781.685C353.289 807.181 373.965 827.85 399.469 827.85Z" fill="#36BAEB"/>
<path d="M718.561 739.574H479.394C473.982 739.574 469.594 743.961 469.594 749.372C469.594 754.782 473.982 759.169 479.394 759.169H718.561C723.974 759.169 728.362 754.782 728.362 749.372C728.362 743.961 723.974 739.574 718.561 739.574Z" fill="#36BAEB"/>
<path d="M663.666 772.129H479.394C473.982 772.129 469.594 776.515 469.594 781.926C469.594 787.337 473.982 791.724 479.394 791.724H663.666C669.078 791.724 673.466 787.337 673.466 781.926C673.466 776.515 669.078 772.129 663.666 772.129Z" fill="#36BAEB"/>
<path d="M522.752 808.254H479.394C473.982 808.254 469.594 812.64 469.594 818.051C469.594 823.462 473.982 827.849 479.394 827.849H522.752C528.165 827.849 532.553 823.462 532.553 818.051C532.553 812.64 528.165 808.254 522.752 808.254Z" fill="#36BAEB"/>
<path d="M639.735 408.246H256.445C243.932 408.246 233.789 418.386 233.789 430.895V513.862C233.789 526.37 243.932 536.51 256.445 536.51H639.735C652.248 536.51 662.391 526.37 662.391 513.862V430.895C662.391 418.386 652.248 408.246 639.735 408.246Z" fill="#C4EFFF"/>
<path d="M621.122 386.539H237.832C225.319 386.539 215.176 396.679 215.176 409.188V492.155C215.176 504.663 225.319 514.803 237.832 514.803H621.122C633.635 514.803 643.778 504.663 643.778 492.155V409.188C643.778 396.679 633.635 386.539 621.122 386.539Z" fill="#36BAEB"/>
<path d="M280.489 495.952C305.994 495.952 326.669 475.283 326.669 449.786C326.669 424.29 305.994 403.621 280.489 403.621C254.984 403.621 234.309 424.29 234.309 449.786C234.309 475.283 254.984 495.952 280.489 495.952Z" fill="white"/>
<path d="M599.596 407.668H360.429C355.017 407.668 350.629 412.054 350.629 417.465C350.629 422.876 355.017 427.263 360.429 427.263H599.596C605.009 427.263 609.397 422.876 609.397 417.465C609.397 412.054 605.009 407.668 599.596 407.668Z" fill="white"/>
<path d="M544.701 440.219H360.429C355.017 440.219 350.629 444.605 350.629 450.016C350.629 455.427 355.017 459.813 360.429 459.813H544.701C550.114 459.813 554.501 455.427 554.501 450.016C554.501 444.605 550.114 440.219 544.701 440.219Z" fill="white"/>
<path d="M403.787 476.344H360.429C355.017 476.344 350.629 480.73 350.629 486.141C350.629 491.552 355.017 495.938 360.429 495.938H403.787C409.2 495.938 413.588 491.552 413.588 486.141C413.588 480.73 409.2 476.344 403.787 476.344Z" fill="white"/>
<path d="M509.083 1206.65C505.553 1206.76 502.08 1205.73 499.181 1203.72C496.281 1201.7 494.109 1198.8 492.987 1195.46C491.032 1189.24 491.119 1182.55 493.235 1176.39C497.67 1162.78 510.06 1131.79 517.829 1111.91C519.24 1108.52 521.627 1105.61 524.688 1103.57C527.749 1101.53 531.347 1100.44 535.027 1100.44L957.224 1095.79C957.224 1095.79 981.152 1093.34 982.191 1116.72C983.23 1140.1 982.889 1181.83 982.889 1181.83C982.889 1181.83 986.083 1197.8 963.691 1198.17C948.913 1198.39 574.198 1205.42 509.083 1206.65Z" fill="#36BAEB"/>
<path d="M511.765 1189.57C507.852 1189.68 503.97 1188.85 500.445 1187.15C495.126 1184.49 489.59 1179.12 493.063 1168.64C497.467 1155.03 513.006 1114.73 520.728 1094.85C522.11 1091.46 524.47 1088.56 527.508 1086.51C530.545 1084.47 534.123 1083.37 537.786 1083.37L957.301 1078.81C957.301 1078.81 981.074 1076.36 982.113 1099.74C983.151 1123.11 982.826 1164.84 982.826 1164.84C982.826 1164.84 985.927 1180.81 963.736 1181.18C948.477 1181.35 552.89 1188.8 511.765 1189.57Z" fill="#C4EFFF"/>
<path d="M579.749 1175.98C611.41 1175.64 636.878 1157.08 636.634 1134.54C636.39 1112 610.526 1094.01 578.866 1094.35C547.205 1094.69 521.737 1113.24 521.981 1135.78C522.225 1158.32 548.089 1176.32 579.749 1175.98Z" fill="white"/>
<path d="M941.688 1095.61L667.63 1098.57C663.22 1098.62 659.683 1102.23 659.731 1106.64C659.779 1111.05 663.393 1114.59 667.803 1114.54L941.861 1111.58C946.271 1111.53 949.808 1107.91 949.76 1103.51C949.712 1099.1 946.098 1095.56 941.688 1095.61Z" fill="white"/>
<path d="M869.681 1124.19L661.881 1126.43C658.122 1126.47 655.107 1129.55 655.148 1133.31C655.189 1137.07 658.269 1140.08 662.029 1140.04L869.828 1137.8C873.588 1137.76 876.602 1134.68 876.562 1130.92C876.521 1127.16 873.44 1124.15 869.681 1124.19Z" fill="white"/>
<path d="M732.762 1159.08L656.813 1159.9C653.738 1159.93 651.273 1162.45 651.306 1165.53C651.34 1168.6 653.859 1171.06 656.933 1171.03L732.883 1170.21C735.957 1170.18 738.423 1167.66 738.389 1164.58C738.356 1161.51 735.837 1159.05 732.762 1159.08Z" fill="white"/>
<path d="M488.919 1163.25C485.389 1163.37 481.916 1162.34 479.016 1160.32C476.117 1158.31 473.945 1155.41 472.823 1152.06C470.868 1145.84 470.955 1139.16 473.071 1132.99C477.506 1119.38 489.896 1088.39 497.665 1068.52C499.076 1065.12 501.462 1062.22 504.524 1060.18C507.585 1058.13 511.183 1057.05 514.862 1057.05L937.06 1052.4C937.06 1052.4 960.988 1049.95 962.027 1073.33C963.066 1096.7 962.725 1138.43 962.725 1138.43C962.725 1138.43 965.919 1154.4 943.527 1154.77C928.749 1154.99 554.034 1162.03 488.919 1163.25Z" fill="#36BAEB"/>
<path d="M491.601 1146.16C487.688 1146.27 483.806 1145.44 480.281 1143.74C474.962 1141.08 469.426 1135.71 472.899 1125.23C477.303 1111.62 492.841 1071.32 500.564 1051.44C501.946 1048.05 504.306 1045.15 507.344 1043.1C510.381 1041.06 513.959 1039.96 517.622 1039.96L937.137 1035.4C937.137 1035.4 960.909 1032.95 961.948 1056.33C962.987 1079.7 962.662 1121.43 962.662 1121.43C962.662 1121.43 965.763 1137.4 943.572 1137.77C928.313 1137.94 532.726 1145.39 491.601 1146.16Z" fill="#C4EFFF"/>
<path d="M559.609 1132.57C591.269 1132.23 616.737 1113.68 616.493 1091.14C616.249 1068.6 590.386 1050.6 558.725 1050.94C527.064 1051.28 501.596 1069.84 501.84 1092.38C502.084 1114.92 527.948 1132.91 559.609 1132.57Z" fill="white"/>
<path d="M921.539 1052.21L647.482 1055.18C643.071 1055.23 639.535 1058.84 639.583 1063.25C639.63 1067.66 643.244 1071.19 647.655 1071.15L921.712 1068.18C926.122 1068.13 929.659 1064.52 929.611 1060.11C929.564 1055.7 925.95 1052.17 921.539 1052.21Z" fill="white"/>
<path d="M849.54 1080.79L641.741 1083.04C637.981 1083.08 634.967 1086.16 635.007 1089.92C635.048 1093.68 638.129 1096.69 641.888 1096.65L849.687 1094.4C853.447 1094.36 856.462 1091.28 856.421 1087.52C856.38 1083.76 853.3 1080.75 849.54 1080.79Z" fill="white"/>
<path d="M712.598 1115.67L636.649 1116.49C633.574 1116.53 631.109 1119.05 631.142 1122.12C631.176 1125.19 633.695 1127.66 636.769 1127.62L712.719 1126.8C715.793 1126.77 718.259 1124.25 718.225 1121.18C718.192 1118.1 715.673 1115.64 712.598 1115.67Z" fill="white"/>
<path d="M530.162 1125.79C526.734 1125.86 523.379 1124.8 520.61 1122.78C517.841 1120.76 515.809 1117.89 514.825 1114.6C512.966 1108.37 513.048 1101.73 515.058 1095.55C519.276 1081.94 531.061 1050.95 538.443 1031.08C539.699 1027.74 541.937 1024.85 544.862 1022.81C547.787 1020.76 551.263 1019.64 554.834 1019.61L956.919 1015.23C956.919 1015.23 979.699 1012.78 980.691 1036.18C981.684 1059.57 981.404 1101.29 981.404 1101.29C981.404 1101.29 984.506 1117.27 963.122 1117.61C949.072 1117.76 592.159 1124.6 530.162 1125.79Z" fill="#36BAEB"/>
<path d="M532.704 1108.65C528.937 1108.78 525.199 1107.94 521.849 1106.22C516.793 1103.55 511.583 1098.2 514.808 1087.72C518.995 1074.11 533.774 1033.81 541.171 1013.93C542.403 1010.6 544.62 1007.72 547.528 1005.67C550.436 1003.62 553.897 1002.51 557.453 1002.48L956.948 998.12C956.948 998.12 979.589 995.671 980.581 1019.06C981.574 1042.46 981.295 1084.17 981.295 1084.17C981.295 1084.17 984.396 1100.16 963.136 1100.5C948.59 1100.71 571.875 1107.95 532.704 1108.65Z" fill="#C4EFFF"/>
<path d="M597.458 1095.15C627.611 1094.83 651.857 1076.29 651.613 1053.75C651.369 1031.21 626.727 1013.2 596.574 1013.52C566.421 1013.85 542.174 1032.39 542.418 1054.93C542.662 1077.47 567.304 1095.48 597.458 1095.15Z" fill="white"/>
<path d="M941.715 1014.99L681.49 1017.8C677.079 1017.85 673.543 1021.46 673.59 1025.87C673.638 1030.28 677.252 1033.82 681.662 1033.77L941.888 1030.96C946.299 1030.91 949.835 1027.29 949.788 1022.89C949.74 1018.48 946.126 1014.94 941.715 1014.99Z" fill="white"/>
<path d="M859.531 1063.27H662.28C658.521 1063.27 655.473 1066.32 655.473 1070.07C655.473 1073.83 658.521 1076.88 662.28 1076.88H859.531C863.291 1076.88 866.339 1073.83 866.339 1070.07C866.339 1066.32 863.291 1063.27 859.531 1063.27Z" fill="white"/>
<path d="M742.892 1078.33L671.082 1079.1C668.008 1079.14 665.543 1081.66 665.576 1084.73C665.609 1087.8 668.128 1090.27 671.203 1090.23L743.012 1089.46C746.087 1089.42 748.552 1086.91 748.519 1083.83C748.485 1080.76 745.966 1078.29 742.892 1078.33Z" fill="white"/>
<path d="M475.204 1084.67C471.776 1084.7 468.434 1083.6 465.687 1081.55C462.94 1079.5 460.939 1076.61 459.991 1073.32C458.204 1067.07 458.356 1060.42 460.426 1054.25C464.799 1040.7 476.91 1009.84 484.524 990.058C485.81 986.726 488.077 983.862 491.026 981.844C493.974 979.826 497.466 978.75 501.039 978.757H903.139C903.139 978.757 925.95 976.572 926.679 999.964C927.408 1023.36 926.679 1065.07 926.679 1065.07C926.679 1065.07 929.564 1081.07 908.226 1081.2C894.13 1081.21 537.217 1084.16 475.204 1084.67Z" fill="#36BAEB"/>
<path d="M477.934 1067.61C474.189 1067.69 470.486 1066.82 467.172 1065.07C462.132 1062.34 456.984 1056.93 460.318 1046.47C464.66 1032.92 479.888 992.769 487.44 972.988C488.709 969.665 490.956 966.806 493.886 964.788C496.816 962.77 500.289 961.689 503.847 961.687H903.373C903.373 961.687 926.045 959.501 926.773 982.894C927.502 1006.29 926.773 1048 926.773 1048C926.773 1048 929.627 1064 908.444 1064.12C893.883 1064.16 517.105 1067.29 477.934 1067.61Z" fill="#C4EFFF"/>
<path d="M542.913 1054.66C573.068 1054.66 597.514 1036.38 597.514 1013.84C597.514 991.298 573.068 973.023 542.913 973.023C512.758 973.023 488.312 991.298 488.312 1013.84C488.312 1036.38 512.758 1054.66 542.913 1054.66Z" fill="white"/>
<path d="M888.044 978.203H627.803C623.392 978.203 619.816 981.778 619.816 986.187C619.816 990.596 623.392 994.17 627.803 994.17H888.044C892.454 994.17 896.03 990.596 896.03 986.187C896.03 981.778 892.454 978.203 888.044 978.203Z" fill="white"/>
<path d="M819.211 1006H621.96C618.2 1006 615.152 1009.05 615.152 1012.81C615.152 1016.57 618.2 1019.61 621.96 1019.61H819.211C822.971 1019.61 826.019 1016.57 826.019 1012.81C826.019 1009.05 822.971 1006 819.211 1006Z" fill="white"/>
<path d="M688.529 1039.41H616.716C613.641 1039.41 611.148 1041.91 611.148 1044.98C611.148 1048.05 613.641 1050.54 616.716 1050.54H688.529C691.604 1050.54 694.096 1048.05 694.096 1044.98C694.096 1041.91 691.604 1039.41 688.529 1039.41Z" fill="white"/>
<g filter="url(#filter0_bd_302_2583)">
<rect x="60.1562" y="820.523" width="310.044" height="310.043" rx="155.022" fill="#36B9EB" fill-opacity="0.8" shape-rendering="crispEdges"/>
<rect x="61.3767" y="821.744" width="307.603" height="307.602" rx="153.801" stroke="white" stroke-opacity="0.5" stroke-width="2.44084" shape-rendering="crispEdges"/>
<path d="M239.133 922.406H255.08V938.353" stroke="white" stroke-width="5.31562" stroke-linecap="round" stroke-linejoin="round"/>
<path d="M156.703 959.616L179.651 943.568C181.763 942.09 184.631 942.341 186.455 944.163L188.092 945.8C189.929 947.637 192.824 947.878 194.938 946.369L206.633 938.034C208.566 936.653 211.181 936.722 213.038 938.204L219.948 943.754C221.842 945.269 224.521 945.31 226.46 943.855L255.042 922.406" stroke="white" stroke-width="5.31562" stroke-linecap="round" stroke-linejoin="round"/>
<path fill-rule="evenodd" clip-rule="evenodd" d="M175.318 1010.11C175.318 1008.65 174.128 1007.46 172.66 1007.46H162.029C160.561 1007.46 159.371 1008.65 159.371 1010.11V1028.72H175.318V1010.11Z" stroke="white" stroke-width="5.31562" stroke-linecap="round" stroke-linejoin="round"/>
<path fill-rule="evenodd" clip-rule="evenodd" d="M207.209 983.529C207.209 982.061 206.019 980.871 204.551 980.871H193.92C192.452 980.871 191.262 982.061 191.262 983.529V1028.71H207.209V983.529Z" stroke="white" stroke-width="5.31562" stroke-linecap="round" stroke-linejoin="round"/>
<path fill-rule="evenodd" clip-rule="evenodd" d="M239.107 999.49C239.107 998.022 237.917 996.832 236.449 996.832H225.818C224.35 996.832 223.16 998.022 223.16 999.49V1028.73H239.107V999.49Z" stroke="white" stroke-width="5.31562" stroke-linecap="round" stroke-linejoin="round"/>
<path fill-rule="evenodd" clip-rule="evenodd" d="M270.994 956.955C270.994 955.487 269.804 954.297 268.336 954.297H257.705C256.237 954.297 255.047 955.487 255.047 956.955V1028.72H270.994V956.955Z" stroke="white" stroke-width="5.31562" stroke-linecap="round" stroke-linejoin="round"/>
<path d="M154.082 1028.72H276.341" stroke="white" stroke-width="5.31562" stroke-linecap="round" stroke-linejoin="round"/>
</g>
<g filter="url(#filter1_bd_302_2583)">
<rect x="722.191" y="37.75" width="216.497" height="216.497" rx="108.248" fill="#36B9EB" fill-opacity="0.8" shape-rendering="crispEdges"/>
<rect x="723.044" y="38.6022" width="214.793" height="214.793" rx="107.396" stroke="white" stroke-opacity="0.5" stroke-width="1.70439" shape-rendering="crispEdges"/>
<path d="M861.838 160.356V160.356C863.941 160.356 865.885 161.479 866.937 163.3C867.989 165.122 867.989 167.366 866.937 169.188C865.885 171.01 863.941 172.132 861.838 172.132H857.912C861.164 172.132 863.8 174.768 863.8 178.02C863.8 181.274 861.163 181.945 857.912 181.945H832.398C821.208 181.945 818.66 179.983 804.922 178.02V144.655C814.539 144.655 830.436 126.992 830.436 111.291C830.436 105.085 839.028 102.773 842.212 114.113C844.174 121.104 838.286 134.842 838.286 134.842H869.688C872.94 134.842 875.576 137.478 875.576 140.73C875.576 143.984 872.938 148.581 869.688 148.581H865.763C869.015 148.581 871.651 151.217 871.651 154.469C871.651 157.72 869.015 160.356 865.763 160.356H861.838" stroke="white" stroke-width="3.91989" stroke-linecap="round" stroke-linejoin="round"/>
<path fill-rule="evenodd" clip-rule="evenodd" d="M785.297 138.766H804.923V185.868H785.297V138.766Z" stroke="white" stroke-width="3.91989" stroke-linecap="round" stroke-linejoin="round"/>
<path d="M796.095 176.059C795.553 176.059 795.113 176.498 795.113 177.04C795.113 177.582 795.553 178.021 796.095 178.021C796.637 178.021 797.076 177.582 797.076 177.04C797.076 176.498 796.637 176.059 796.095 176.059" stroke="white" stroke-width="3.91989" stroke-linecap="round" stroke-linejoin="round"/>
</g>
<defs>
<filter id="filter0_bd_302_2583" x="1.89447" y="766.484" width="426.567" height="426.567" filterUnits="userSpaceOnUse" color-interpolation-filters="sRGB">
<feFlood flood-opacity="0" result="BackgroundImageFix"/>
<feGaussianBlur in="BackgroundImageFix" stdDeviation="15.6209"/>
<feComposite in2="SourceAlpha" operator="in" result="effect1_backgroundBlur_302_2583"/>
<feColorMatrix in="SourceAlpha" type="matrix" values="0 0 0 0 0 0 0 0 0 0 0 0 0 0 0 0 0 0 127 0" result="hardAlpha"/>
<feOffset dy="4.22187"/>
<feGaussianBlur stdDeviation="29.1309"/>
<feComposite in2="hardAlpha" operator="out"/>
<feColorMatrix type="matrix" values="0 0 0 0 0.660319 0 0 0 0 0.905748 0 0 0 0 1 0 0 0 1 0"/>
<feBlend mode="normal" in2="effect1_backgroundBlur_302_2583" result="effect2_dropShadow_302_2583"/>
<feBlend mode="normal" in="SourceGraphic" in2="effect2_dropShadow_302_2583" result="shape"/>
</filter>
<filter id="filter1_bd_302_2583" x="681.508" y="0.0150065" width="297.862" height="297.862" filterUnits="userSpaceOnUse" color-interpolation-filters="sRGB">
<feFlood flood-opacity="0" result="BackgroundImageFix"/>
<feGaussianBlur in="BackgroundImageFix" stdDeviation="10.9078"/>
<feComposite in2="SourceAlpha" operator="in" result="effect1_backgroundBlur_302_2583"/>
<feColorMatrix in="SourceAlpha" type="matrix" values="0 0 0 0 0 0 0 0 0 0 0 0 0 0 0 0 0 0 127 0" result="hardAlpha"/>
<feOffset dy="2.94805"/>
<feGaussianBlur stdDeviation="20.3415"/>
<feComposite in2="hardAlpha" operator="out"/>
<feColorMatrix type="matrix" values="0 0 0 0 0.660319 0 0 0 0 0.905748 0 0 0 0 1 0 0 0 1 0"/>
<feBlend mode="normal" in2="effect1_backgroundBlur_302_2583" result="effect2_dropShadow_302_2583"/>
<feBlend mode="normal" in="SourceGraphic" in2="effect2_dropShadow_302_2583" result="shape"/>
</filter>
<radialGradient id="paint0_radial_302_2583" cx="0" cy="0" r="1" gradientUnits="userSpaceOnUse" gradientTransform="translate(749.701 661.134) rotate(90) scale(336.579 336.58)">
<stop stop-color="white" stop-opacity="0"/>
<stop offset="1" stop-color="#36B9EB" stop-opacity="0.47"/>
</radialGradient>
</defs>
</svg>
